solid OpenSCAD_Model
  facet normal -1 0 0
    outer loop
      vertex 0 -1 0
      vertex 0 0.5 8
      vertex 0 0.5 0
    endloop
  endfacet
  facet normal -1 -0 0
    outer loop
      vertex 0 0.5 8
      vertex 0 -1 0
      vertex 0 -1 8
    endloop
  endfacet
  facet normal 0 0 1
    outer loop
      vertex 1.8 0.5 8
      vertex 0 0.5 8
      vertex 1.8 0 8
    endloop
  endfacet
  facet normal 0 0 1
    outer loop
      vertex 17.2 0 8
      vertex 19 0.5 8
      vertex 17.2 0.5 8
    endloop
  endfacet
  facet normal 0 0 1
    outer loop
      vertex 19 0.5 8
      vertex 17.2 0 8
      vertex 19 -1 8
    endloop
  endfacet
  facet normal 0 0 1
    outer loop
      vertex 17.2 0 8
      vertex 14 -1 8
      vertex 19 -1 8
    endloop
  endfacet
  facet normal 0 0 1
    outer loop
      vertex 14 -1 8
      vertex 5 -1 8
      vertex 14 -5 8
    endloop
  endfacet
  facet normal 0 0 1
    outer loop
      vertex 17.2 0 8
      vertex 5 -1 8
      vertex 14 -1 8
    endloop
  endfacet
  facet normal -0 0 1
    outer loop
      vertex 1.8 0 8
      vertex 5 -1 8
      vertex 17.2 0 8
    endloop
  endfacet
  facet normal 0 0 1
    outer loop
      vertex 0 -1 8
      vertex 1.8 0 8
      vertex 0 0.5 8
    endloop
  endfacet
  facet normal 0 0 1
    outer loop
      vertex 1.8 0 8
      vertex 0 -1 8
      vertex 5 -1 8
    endloop
  endfacet
  facet normal 0 0 1
    outer loop
      vertex 14 -5 8
      vertex 5 -1 8
      vertex 5 -5 8
    endloop
  endfacet
  facet normal 1 -0 0
    outer loop
      vertex 19 -1 8
      vertex 19 0.5 0
      vertex 19 0.5 8
    endloop
  endfacet
  facet normal 1 0 0
    outer loop
      vertex 19 0.5 0
      vertex 19 -1 8
      vertex 19 -1 0
    endloop
  endfacet
  facet normal 0 1 -0
    outer loop
      vertex 17.2 0 3
      vertex 1.8 0 8
      vertex 17.2 0 8
    endloop
  endfacet
  facet normal 0 1 0
    outer loop
      vertex 1.8 0 8
      vertex 17.2 0 3
      vertex 1.8 0 3
    endloop
  endfacet
  facet normal 0 0 -1
    outer loop
      vertex 1.2 33.87 0
      vertex 2.2 34.41 0
      vertex 2.2 33.87 0
    endloop
  endfacet
  facet normal -0 0 -1
    outer loop
      vertex 2.2 34.41 0
      vertex 1.2 33.87 0
      vertex 1.2 34.41 0
    endloop
  endfacet
  facet normal 0 0 -1
    outer loop
      vertex 1.2 31.33 0
      vertex 2.2 31.87 0
      vertex 2.2 31.33 0
    endloop
  endfacet
  facet normal -0 0 -1
    outer loop
      vertex 2.2 31.87 0
      vertex 1.2 31.33 0
      vertex 1.2 31.87 0
    endloop
  endfacet
  facet normal 0 0 -1
    outer loop
      vertex 1.2 28.79 0
      vertex 2.2 29.33 0
      vertex 2.2 28.79 0
    endloop
  endfacet
  facet normal -0 0 -1
    outer loop
      vertex 2.2 29.33 0
      vertex 1.2 28.79 0
      vertex 1.2 29.33 0
    endloop
  endfacet
  facet normal 0 0 -1
    outer loop
      vertex 1.2 26.25 0
      vertex 2.2 26.79 0
      vertex 2.2 26.25 0
    endloop
  endfacet
  facet normal -0 0 -1
    outer loop
      vertex 2.2 26.79 0
      vertex 1.2 26.25 0
      vertex 1.2 26.79 0
    endloop
  endfacet
  facet normal 0 0 -1
    outer loop
      vertex 1.2 23.71 0
      vertex 2.2 24.25 0
      vertex 2.2 23.71 0
    endloop
  endfacet
  facet normal -0 0 -1
    outer loop
      vertex 2.2 24.25 0
      vertex 1.2 23.71 0
      vertex 1.2 24.25 0
    endloop
  endfacet
  facet normal 0 0 -1
    outer loop
      vertex 1.2 21.17 0
      vertex 2.2 21.71 0
      vertex 2.2 21.17 0
    endloop
  endfacet
  facet normal -0 0 -1
    outer loop
      vertex 2.2 21.71 0
      vertex 1.2 21.17 0
      vertex 1.2 21.71 0
    endloop
  endfacet
  facet normal 0 0 -1
    outer loop
      vertex 1.2 18.63 0
      vertex 2.2 19.17 0
      vertex 2.2 18.63 0
    endloop
  endfacet
  facet normal -0 0 -1
    outer loop
      vertex 2.2 19.17 0
      vertex 1.2 18.63 0
      vertex 1.2 19.17 0
    endloop
  endfacet
  facet normal 0 0 -1
    outer loop
      vertex 1.2 16.09 0
      vertex 2.2 16.63 0
      vertex 2.2 16.09 0
    endloop
  endfacet
  facet normal -0 0 -1
    outer loop
      vertex 2.2 16.63 0
      vertex 1.2 16.09 0
      vertex 1.2 16.63 0
    endloop
  endfacet
  facet normal 0 0 -1
    outer loop
      vertex 1.2 13.55 0
      vertex 2.2 14.09 0
      vertex 2.2 13.55 0
    endloop
  endfacet
  facet normal -0 0 -1
    outer loop
      vertex 2.2 14.09 0
      vertex 1.2 13.55 0
      vertex 1.2 14.09 0
    endloop
  endfacet
  facet normal 0 0 -1
    outer loop
      vertex 1.2 11.01 0
      vertex 2.2 11.55 0
      vertex 2.2 11.01 0
    endloop
  endfacet
  facet normal -0 0 -1
    outer loop
      vertex 2.2 11.55 0
      vertex 1.2 11.01 0
      vertex 1.2 11.55 0
    endloop
  endfacet
  facet normal 0 0 -1
    outer loop
      vertex 1.2 8.47 0
      vertex 2.2 9.01 0
      vertex 2.2 8.47 0
    endloop
  endfacet
  facet normal -0 0 -1
    outer loop
      vertex 2.2 9.01 0
      vertex 1.2 8.47 0
      vertex 1.2 9.01 0
    endloop
  endfacet
  facet normal 0 0 -1
    outer loop
      vertex 1.2 5.93 0
      vertex 2.2 6.47 0
      vertex 2.2 5.93 0
    endloop
  endfacet
  facet normal -0 0 -1
    outer loop
      vertex 2.2 6.47 0
      vertex 1.2 5.93 0
      vertex 1.2 6.47 0
    endloop
  endfacet
  facet normal 0 0 -1
    outer loop
      vertex 1.2 3.39 0
      vertex 2.2 3.93 0
      vertex 2.2 3.39 0
    endloop
  endfacet
  facet normal -0 0 -1
    outer loop
      vertex 2.2 3.93 0
      vertex 1.2 3.39 0
      vertex 1.2 3.93 0
    endloop
  endfacet
  facet normal 0 0 -1
    outer loop
      vertex 19 -1 0
      vertex 17.8 0.5 0
      vertex 19 0.5 0
    endloop
  endfacet
  facet normal 0 0 -1
    outer loop
      vertex 17.8 0.5 0
      vertex 16.8 1.39 0
      vertex 17.8 1.39 0
    endloop
  endfacet
  facet normal 0 0 -1
    outer loop
      vertex 19 -1 0
      vertex 16.8 1.39 0
      vertex 17.8 0.5 0
    endloop
  endfacet
  facet normal 0 0 -1
    outer loop
      vertex 2.2 3.39 0
      vertex 16.8 3.39 0
      vertex 16.8 1.39 0
    endloop
  endfacet
  facet normal 0 0 -1
    outer loop
      vertex 16.8 3.39 0
      vertex 2.2 3.39 0
      vertex 16.8 3.93 0
    endloop
  endfacet
  facet normal 0 0 -1
    outer loop
      vertex 16.8 3.93 0
      vertex 2.2 3.93 0
      vertex 16.8 5.93 0
    endloop
  endfacet
  facet normal 0 0 -1
    outer loop
      vertex 2.2 5.93 0
      vertex 16.8 5.93 0
      vertex 2.2 3.93 0
    endloop
  endfacet
  facet normal 0 0 -1
    outer loop
      vertex 2.2 6.47 0
      vertex 16.8 6.47 0
      vertex 2.2 5.93 0
    endloop
  endfacet
  facet normal 0 0 -1
    outer loop
      vertex 16.8 6.47 0
      vertex 2.2 6.47 0
      vertex 16.8 8.47 0
    endloop
  endfacet
  facet normal 0 0 -1
    outer loop
      vertex 16.8 8.47 0
      vertex 2.2 8.47 0
      vertex 16.8 9.01 0
    endloop
  endfacet
  facet normal 0 0 -1
    outer loop
      vertex 2.2 9.01 0
      vertex 16.8 9.01 0
      vertex 2.2 8.47 0
    endloop
  endfacet
  facet normal 0 0 -1
    outer loop
      vertex 2.2 11.01 0
      vertex 16.8 11.01 0
      vertex 2.2 9.01 0
    endloop
  endfacet
  facet normal 0 0 -1
    outer loop
      vertex 16.8 11.01 0
      vertex 2.2 11.01 0
      vertex 16.8 11.55 0
    endloop
  endfacet
  facet normal 0 0 -1
    outer loop
      vertex 16.8 11.55 0
      vertex 2.2 11.55 0
      vertex 16.8 13.55 0
    endloop
  endfacet
  facet normal 0 0 -1
    outer loop
      vertex 2.2 13.55 0
      vertex 16.8 13.55 0
      vertex 2.2 11.55 0
    endloop
  endfacet
  facet normal 0 0 -1
    outer loop
      vertex 2.2 14.09 0
      vertex 16.8 14.09 0
      vertex 2.2 13.55 0
    endloop
  endfacet
  facet normal 0 0 -1
    outer loop
      vertex 16.8 14.09 0
      vertex 2.2 14.09 0
      vertex 16.8 16.09 0
    endloop
  endfacet
  facet normal 0 0 -1
    outer loop
      vertex 16.8 16.09 0
      vertex 2.2 16.09 0
      vertex 16.8 16.63 0
    endloop
  endfacet
  facet normal 0 0 -1
    outer loop
      vertex 2.2 16.63 0
      vertex 16.8 16.63 0
      vertex 2.2 16.09 0
    endloop
  endfacet
  facet normal 0 0 -1
    outer loop
      vertex 2.2 18.63 0
      vertex 16.8 18.63 0
      vertex 2.2 16.63 0
    endloop
  endfacet
  facet normal 0 0 -1
    outer loop
      vertex 16.8 18.63 0
      vertex 2.2 18.63 0
      vertex 16.8 19.17 0
    endloop
  endfacet
  facet normal 0 0 -1
    outer loop
      vertex 16.8 19.17 0
      vertex 2.2 19.17 0
      vertex 16.8 21.17 0
    endloop
  endfacet
  facet normal 0 0 -1
    outer loop
      vertex 2.2 21.17 0
      vertex 16.8 21.17 0
      vertex 2.2 19.17 0
    endloop
  endfacet
  facet normal 0 0 -1
    outer loop
      vertex 2.2 21.71 0
      vertex 16.8 21.71 0
      vertex 2.2 21.17 0
    endloop
  endfacet
  facet normal 0 0 -1
    outer loop
      vertex 16.8 21.71 0
      vertex 2.2 21.71 0
      vertex 16.8 23.71 0
    endloop
  endfacet
  facet normal 0 0 -1
    outer loop
      vertex 16.8 23.71 0
      vertex 2.2 23.71 0
      vertex 16.8 24.25 0
    endloop
  endfacet
  facet normal 0 0 -1
    outer loop
      vertex 2.2 24.25 0
      vertex 16.8 24.25 0
      vertex 2.2 23.71 0
    endloop
  endfacet
  facet normal 0 0 -1
    outer loop
      vertex 2.2 26.25 0
      vertex 16.8 26.25 0
      vertex 2.2 24.25 0
    endloop
  endfacet
  facet normal 0 0 -1
    outer loop
      vertex 16.8 26.25 0
      vertex 2.2 26.25 0
      vertex 16.8 26.79 0
    endloop
  endfacet
  facet normal 0 0 -1
    outer loop
      vertex 2.2 3.39 0
      vertex 16.8 1.39 0
      vertex 2.2 1.39 0
    endloop
  endfacet
  facet normal 0 0 -1
    outer loop
      vertex 19 -1 0
      vertex 2.2 1.39 0
      vertex 16.8 1.39 0
    endloop
  endfacet
  facet normal 0 0 -1
    outer loop
      vertex 0 -1 0
      vertex 2.2 1.39 0
      vertex 19 -1 0
    endloop
  endfacet
  facet normal 0 0 -1
    outer loop
      vertex 2.2 1.39 0
      vertex 0 -1 0
      vertex 1.2 0.5 0
    endloop
  endfacet
  facet normal -0 0 -1
    outer loop
      vertex 1.2 0.5 0
      vertex 0 -1 0
      vertex 0 0.5 0
    endloop
  endfacet
  facet normal 0 0 -1
    outer loop
      vertex 16.8 3.39 0
      vertex 17.8 3.93 0
      vertex 17.8 3.39 0
    endloop
  endfacet
  facet normal -0 0 -1
    outer loop
      vertex 17.8 3.93 0
      vertex 16.8 3.39 0
      vertex 16.8 3.93 0
    endloop
  endfacet
  facet normal 0 0 -1
    outer loop
      vertex 16.8 5.93 0
      vertex 17.8 6.47 0
      vertex 17.8 5.93 0
    endloop
  endfacet
  facet normal -0 0 -1
    outer loop
      vertex 17.8 6.47 0
      vertex 16.8 5.93 0
      vertex 16.8 6.47 0
    endloop
  endfacet
  facet normal 0 0 -1
    outer loop
      vertex 16.8 8.47 0
      vertex 17.8 9.01 0
      vertex 17.8 8.47 0
    endloop
  endfacet
  facet normal -0 0 -1
    outer loop
      vertex 17.8 9.01 0
      vertex 16.8 8.47 0
      vertex 16.8 9.01 0
    endloop
  endfacet
  facet normal 0 0 -1
    outer loop
      vertex 16.8 11.01 0
      vertex 17.8 11.55 0
      vertex 17.8 11.01 0
    endloop
  endfacet
  facet normal -0 0 -1
    outer loop
      vertex 17.8 11.55 0
      vertex 16.8 11.01 0
      vertex 16.8 11.55 0
    endloop
  endfacet
  facet normal 0 0 -1
    outer loop
      vertex 16.8 13.55 0
      vertex 17.8 14.09 0
      vertex 17.8 13.55 0
    endloop
  endfacet
  facet normal -0 0 -1
    outer loop
      vertex 17.8 14.09 0
      vertex 16.8 13.55 0
      vertex 16.8 14.09 0
    endloop
  endfacet
  facet normal 0 0 -1
    outer loop
      vertex 16.8 16.09 0
      vertex 17.8 16.63 0
      vertex 17.8 16.09 0
    endloop
  endfacet
  facet normal -0 0 -1
    outer loop
      vertex 17.8 16.63 0
      vertex 16.8 16.09 0
      vertex 16.8 16.63 0
    endloop
  endfacet
  facet normal 0 0 -1
    outer loop
      vertex 16.8 18.63 0
      vertex 17.8 19.17 0
      vertex 17.8 18.63 0
    endloop
  endfacet
  facet normal -0 0 -1
    outer loop
      vertex 17.8 19.17 0
      vertex 16.8 18.63 0
      vertex 16.8 19.17 0
    endloop
  endfacet
  facet normal 0 0 -1
    outer loop
      vertex 16.8 21.17 0
      vertex 17.8 21.71 0
      vertex 17.8 21.17 0
    endloop
  endfacet
  facet normal -0 0 -1
    outer loop
      vertex 17.8 21.71 0
      vertex 16.8 21.17 0
      vertex 16.8 21.71 0
    endloop
  endfacet
  facet normal 0 0 -1
    outer loop
      vertex 16.8 23.71 0
      vertex 17.8 24.25 0
      vertex 17.8 23.71 0
    endloop
  endfacet
  facet normal -0 0 -1
    outer loop
      vertex 17.8 24.25 0
      vertex 16.8 23.71 0
      vertex 16.8 24.25 0
    endloop
  endfacet
  facet normal 0 0 -1
    outer loop
      vertex 16.8 26.25 0
      vertex 17.8 26.79 0
      vertex 17.8 26.25 0
    endloop
  endfacet
  facet normal -0 0 -1
    outer loop
      vertex 17.8 26.79 0
      vertex 16.8 26.25 0
      vertex 16.8 26.79 0
    endloop
  endfacet
  facet normal 0 0 -1
    outer loop
      vertex 16.8 28.79 0
      vertex 17.8 29.33 0
      vertex 17.8 28.79 0
    endloop
  endfacet
  facet normal -0 0 -1
    outer loop
      vertex 17.8 29.33 0
      vertex 16.8 28.79 0
      vertex 16.8 29.33 0
    endloop
  endfacet
  facet normal 0 0 -1
    outer loop
      vertex 16.8 31.33 0
      vertex 17.8 31.87 0
      vertex 17.8 31.33 0
    endloop
  endfacet
  facet normal -0 0 -1
    outer loop
      vertex 17.8 31.87 0
      vertex 16.8 31.33 0
      vertex 16.8 31.87 0
    endloop
  endfacet
  facet normal 0 0 -1
    outer loop
      vertex 16.8 33.87 0
      vertex 17.8 34.41 0
      vertex 17.8 33.87 0
    endloop
  endfacet
  facet normal -0 0 -1
    outer loop
      vertex 17.8 34.41 0
      vertex 16.8 33.87 0
      vertex 16.8 34.41 0
    endloop
  endfacet
  facet normal 0 0 -1
    outer loop
      vertex 17.8 36.41 0
      vertex 16.8 36.41 0
      vertex 17.8 37.4 0
    endloop
  endfacet
  facet normal 0 0 -1
    outer loop
      vertex 17.8 37.4 0
      vertex 19 38.9 0
      vertex 19 37.4 0
    endloop
  endfacet
  facet normal 0 0 -1
    outer loop
      vertex 1.2 37.4 0
      vertex 17.8 37.4 0
      vertex 16.8 36.41 0
    endloop
  endfacet
  facet normal -0 0 -1
    outer loop
      vertex 16.8 3.93 0
      vertex 2.2 3.39 0
      vertex 2.2 3.93 0
    endloop
  endfacet
  facet normal 0 0 -1
    outer loop
      vertex 16.8 5.93 0
      vertex 2.2 5.93 0
      vertex 16.8 6.47 0
    endloop
  endfacet
  facet normal 0 0 -1
    outer loop
      vertex 2.2 8.47 0
      vertex 16.8 8.47 0
      vertex 2.2 6.47 0
    endloop
  endfacet
  facet normal 0 0 -1
    outer loop
      vertex 16.8 9.01 0
      vertex 2.2 9.01 0
      vertex 16.8 11.01 0
    endloop
  endfacet
  facet normal 0 0 -1
    outer loop
      vertex 2.2 11.55 0
      vertex 16.8 11.55 0
      vertex 2.2 11.01 0
    endloop
  endfacet
  facet normal 0 0 -1
    outer loop
      vertex 16.8 13.55 0
      vertex 2.2 13.55 0
      vertex 16.8 14.09 0
    endloop
  endfacet
  facet normal 0 0 -1
    outer loop
      vertex 2.2 16.09 0
      vertex 16.8 16.09 0
      vertex 2.2 14.09 0
    endloop
  endfacet
  facet normal 0 0 -1
    outer loop
      vertex 16.8 16.63 0
      vertex 2.2 16.63 0
      vertex 16.8 18.63 0
    endloop
  endfacet
  facet normal 0 0 -1
    outer loop
      vertex 2.2 19.17 0
      vertex 16.8 19.17 0
      vertex 2.2 18.63 0
    endloop
  endfacet
  facet normal 0 0 -1
    outer loop
      vertex 16.8 21.17 0
      vertex 2.2 21.17 0
      vertex 16.8 21.71 0
    endloop
  endfacet
  facet normal 0 0 -1
    outer loop
      vertex 2.2 23.71 0
      vertex 16.8 23.71 0
      vertex 2.2 21.71 0
    endloop
  endfacet
  facet normal 0 0 -1
    outer loop
      vertex 16.8 24.25 0
      vertex 2.2 24.25 0
      vertex 16.8 26.25 0
    endloop
  endfacet
  facet normal 0 0 -1
    outer loop
      vertex 2.2 26.79 0
      vertex 16.8 26.79 0
      vertex 2.2 26.25 0
    endloop
  endfacet
  facet normal 0 0 -1
    outer loop
      vertex 16.8 26.79 0
      vertex 2.2 26.79 0
      vertex 16.8 28.79 0
    endloop
  endfacet
  facet normal 0 0 -1
    outer loop
      vertex 2.2 28.79 0
      vertex 16.8 28.79 0
      vertex 2.2 26.79 0
    endloop
  endfacet
  facet normal 0 0 -1
    outer loop
      vertex 16.8 28.79 0
      vertex 2.2 28.79 0
      vertex 16.8 29.33 0
    endloop
  endfacet
  facet normal 0 0 -1
    outer loop
      vertex 2.2 29.33 0
      vertex 16.8 29.33 0
      vertex 2.2 28.79 0
    endloop
  endfacet
  facet normal 0 0 -1
    outer loop
      vertex 16.8 29.33 0
      vertex 2.2 29.33 0
      vertex 16.8 31.33 0
    endloop
  endfacet
  facet normal 0 0 -1
    outer loop
      vertex 2.2 31.33 0
      vertex 16.8 31.33 0
      vertex 2.2 29.33 0
    endloop
  endfacet
  facet normal 0 0 -1
    outer loop
      vertex 16.8 31.33 0
      vertex 2.2 31.33 0
      vertex 16.8 31.87 0
    endloop
  endfacet
  facet normal 0 0 -1
    outer loop
      vertex 2.2 31.87 0
      vertex 16.8 31.87 0
      vertex 2.2 31.33 0
    endloop
  endfacet
  facet normal 0 0 -1
    outer loop
      vertex 16.8 31.87 0
      vertex 2.2 31.87 0
      vertex 16.8 33.87 0
    endloop
  endfacet
  facet normal 0 0 -1
    outer loop
      vertex 2.2 33.87 0
      vertex 16.8 33.87 0
      vertex 2.2 31.87 0
    endloop
  endfacet
  facet normal 0 0 -1
    outer loop
      vertex 16.8 33.87 0
      vertex 2.2 33.87 0
      vertex 16.8 34.41 0
    endloop
  endfacet
  facet normal 0 0 -1
    outer loop
      vertex 2.2 34.41 0
      vertex 16.8 34.41 0
      vertex 2.2 33.87 0
    endloop
  endfacet
  facet normal 0 0 -1
    outer loop
      vertex 16.8 34.41 0
      vertex 2.2 34.41 0
      vertex 16.8 36.41 0
    endloop
  endfacet
  facet normal 0 0 -1
    outer loop
      vertex 2.2 36.41 0
      vertex 16.8 36.41 0
      vertex 2.2 34.41 0
    endloop
  endfacet
  facet normal 0 0 -1
    outer loop
      vertex 1.2 37.4 0
      vertex 16.8 36.41 0
      vertex 2.2 36.41 0
    endloop
  endfacet
  facet normal 0 0 -1
    outer loop
      vertex 1.2 37.4 0
      vertex 2.2 36.41 0
      vertex 1.2 36.41 0
    endloop
  endfacet
  facet normal 0 0 -1
    outer loop
      vertex 17.8 37.4 0
      vertex 1.2 37.4 0
      vertex 19 38.9 0
    endloop
  endfacet
  facet normal 0 0 -1
    outer loop
      vertex 1.2 37.4 0
      vertex 0 38.9 0
      vertex 19 38.9 0
    endloop
  endfacet
  facet normal 0 -0 -1
    outer loop
      vertex 0 38.9 0
      vertex 1.2 37.4 0
      vertex -1.83697e-16 37.4 0
    endloop
  endfacet
  facet normal -0 0 -1
    outer loop
      vertex 2.2 1.39 0
      vertex 1.2 0.5 0
      vertex 1.2 1.39 0
    endloop
  endfacet
  facet normal 0 -1 0
    outer loop
      vertex 0 -1 8
      vertex 5 -1 7
      vertex 5 -1 8
    endloop
  endfacet
  facet normal 0 -1 0
    outer loop
      vertex 5 -1 7
      vertex 8.75 -1 3
      vertex 8.75 -1 7
    endloop
  endfacet
  facet normal 0 -1 0
    outer loop
      vertex 0 -1 0
      vertex 5 -1 7
      vertex 0 -1 8
    endloop
  endfacet
  facet normal 0 -1 -0
    outer loop
      vertex 8.75 -1 3
      vertex 0 -1 0
      vertex 10.25 -1 3
    endloop
  endfacet
  facet normal 0 -1 -0
    outer loop
      vertex 5 -1 7
      vertex 0 -1 0
      vertex 8.75 -1 3
    endloop
  endfacet
  facet normal 0 -1 0
    outer loop
      vertex 10.25 -1 7
      vertex 10.25 -1 3
      vertex 14 -1 7
    endloop
  endfacet
  facet normal 0 -1 0
    outer loop
      vertex 14 -1 7
      vertex 19 -1 8
      vertex 14 -1 8
    endloop
  endfacet
  facet normal 0 -1 0
    outer loop
      vertex 19 -1 0
      vertex 14 -1 7
      vertex 10.25 -1 3
    endloop
  endfacet
  facet normal 0 -1 0
    outer loop
      vertex 14 -1 7
      vertex 19 -1 0
      vertex 19 -1 8
    endloop
  endfacet
  facet normal 0 -1 0
    outer loop
      vertex 19 -1 0
      vertex 10.25 -1 3
      vertex 0 -1 0
    endloop
  endfacet
  facet normal 1 -0 0
    outer loop
      vertex 1.8 0 8
      vertex 1.8 0.5 3
      vertex 1.8 0.5 8
    endloop
  endfacet
  facet normal 1 0 0
    outer loop
      vertex 1.8 0.5 3
      vertex 1.8 0 8
      vertex 1.8 0 3
    endloop
  endfacet
  facet normal 0 1 0
    outer loop
      vertex 1.2 0.5 3
      vertex 1.8 0.5 8
      vertex 1.8 0.5 3
    endloop
  endfacet
  facet normal 0 1 0
    outer loop
      vertex 1.8 0.5 8
      vertex 1.2 0.5 3
      vertex 0 0.5 8
    endloop
  endfacet
  facet normal 0 1 0
    outer loop
      vertex 0 0.5 0
      vertex 1.2 0.5 3
      vertex 1.2 0.5 0
    endloop
  endfacet
  facet normal 0 1 0
    outer loop
      vertex 1.2 0.5 3
      vertex 0 0.5 0
      vertex 0 0.5 8
    endloop
  endfacet
  facet normal -1 0 0
    outer loop
      vertex 17.2 0 3
      vertex 17.2 0.5 8
      vertex 17.2 0.5 3
    endloop
  endfacet
  facet normal -1 -0 0
    outer loop
      vertex 17.2 0.5 8
      vertex 17.2 0 3
      vertex 17.2 0 8
    endloop
  endfacet
  facet normal 0 1 0
    outer loop
      vertex 19 0.5 8
      vertex 17.8 0.5 3
      vertex 17.2 0.5 8
    endloop
  endfacet
  facet normal 0 1 -0
    outer loop
      vertex 19 0.5 0
      vertex 17.8 0.5 3
      vertex 19 0.5 8
    endloop
  endfacet
  facet normal 0 1 0
    outer loop
      vertex 17.8 0.5 3
      vertex 19 0.5 0
      vertex 17.8 0.5 0
    endloop
  endfacet
  facet normal 0 1 0
    outer loop
      vertex 17.2 0.5 8
      vertex 17.8 0.5 3
      vertex 17.2 0.5 3
    endloop
  endfacet
  facet normal -1 0 0
    outer loop
      vertex 5 -5 7
      vertex 5 -1 8
      vertex 5 -1 7
    endloop
  endfacet
  facet normal -1 -0 0
    outer loop
      vertex 5 -1 8
      vertex 5 -5 7
      vertex 5 -5 8
    endloop
  endfacet
  facet normal 1 -0 0
    outer loop
      vertex 14 -5 8
      vertex 14 -1 7
      vertex 14 -1 8
    endloop
  endfacet
  facet normal 1 0 0
    outer loop
      vertex 14 -1 7
      vertex 14 -5 8
      vertex 14 -5 7
    endloop
  endfacet
  facet normal 0 0 -1
    outer loop
      vertex 14 -5 7
      vertex 10.25 -3 7
      vertex 14 -1 7
    endloop
  endfacet
  facet normal 0 0 -1
    outer loop
      vertex 14 -5 7
      vertex 8.75 -3 7
      vertex 10.25 -3 7
    endloop
  endfacet
  facet normal 0 0 -1
    outer loop
      vertex 5 -5 7
      vertex 8.75 -3 7
      vertex 14 -5 7
    endloop
  endfacet
  facet normal 0 0 -1
    outer loop
      vertex 5 -1 7
      vertex 8.75 -3 7
      vertex 5 -5 7
    endloop
  endfacet
  facet normal 0 0 -1
    outer loop
      vertex 8.75 -3 7
      vertex 5 -1 7
      vertex 8.75 -1 7
    endloop
  endfacet
  facet normal -0 0 -1
    outer loop
      vertex 14 -1 7
      vertex 10.25 -3 7
      vertex 10.25 -1 7
    endloop
  endfacet
  facet normal 0 -1 0
    outer loop
      vertex 5 -5 7
      vertex 14 -5 8
      vertex 5 -5 8
    endloop
  endfacet
  facet normal 0 -1 -0
    outer loop
      vertex 14 -5 8
      vertex 5 -5 7
      vertex 14 -5 7
    endloop
  endfacet
  facet normal -1 0 0
    outer loop
      vertex 8.75 -3 3
      vertex 8.75 -1 7
      vertex 8.75 -1 3
    endloop
  endfacet
  facet normal -1 -0 0
    outer loop
      vertex 8.75 -1 7
      vertex 8.75 -3 3
      vertex 8.75 -3 7
    endloop
  endfacet
  facet normal 1 -0 0
    outer loop
      vertex 10.25 -3 7
      vertex 10.25 -1 3
      vertex 10.25 -1 7
    endloop
  endfacet
  facet normal 1 0 0
    outer loop
      vertex 10.25 -1 3
      vertex 10.25 -3 7
      vertex 10.25 -3 3
    endloop
  endfacet
  facet normal 0 0 -1
    outer loop
      vertex 8.75 -3 3
      vertex 10.25 -1 3
      vertex 10.25 -3 3
    endloop
  endfacet
  facet normal -0 0 -1
    outer loop
      vertex 10.25 -1 3
      vertex 8.75 -3 3
      vertex 8.75 -1 3
    endloop
  endfacet
  facet normal 0 -1 0
    outer loop
      vertex 8.75 -3 3
      vertex 10.25 -3 7
      vertex 8.75 -3 7
    endloop
  endfacet
  facet normal 0 -1 -0
    outer loop
      vertex 10.25 -3 7
      vertex 8.75 -3 3
      vertex 10.25 -3 3
    endloop
  endfacet
  facet normal -1 0 0
    outer loop
      vertex 2.2 1.39 0
      vertex 2.2 3.39 3
      vertex 2.2 3.39 0
    endloop
  endfacet
  facet normal -1 -0 0
    outer loop
      vertex 2.2 3.39 3
      vertex 2.2 1.39 0
      vertex 2.2 1.39 3
    endloop
  endfacet
  facet normal 0 1 -0
    outer loop
      vertex 2.2 1.39 0
      vertex 1.2 1.39 3
      vertex 2.2 1.39 3
    endloop
  endfacet
  facet normal 0 1 0
    outer loop
      vertex 1.2 1.39 3
      vertex 2.2 1.39 0
      vertex 1.2 1.39 0
    endloop
  endfacet
  facet normal 0 -1 0
    outer loop
      vertex 1.2 3.39 0
      vertex 2.2 3.39 3
      vertex 1.2 3.39 3
    endloop
  endfacet
  facet normal 0 -1 -0
    outer loop
      vertex 2.2 3.39 3
      vertex 1.2 3.39 0
      vertex 2.2 3.39 0
    endloop
  endfacet
  facet normal 1 -0 0
    outer loop
      vertex 16.8 1.39 3
      vertex 16.8 3.39 0
      vertex 16.8 3.39 3
    endloop
  endfacet
  facet normal 1 0 0
    outer loop
      vertex 16.8 3.39 0
      vertex 16.8 1.39 3
      vertex 16.8 1.39 0
    endloop
  endfacet
  facet normal 0 1 -0
    outer loop
      vertex 17.8 1.39 0
      vertex 16.8 1.39 3
      vertex 17.8 1.39 3
    endloop
  endfacet
  facet normal 0 1 0
    outer loop
      vertex 16.8 1.39 3
      vertex 17.8 1.39 0
      vertex 16.8 1.39 0
    endloop
  endfacet
  facet normal 0 -1 0
    outer loop
      vertex 16.8 3.39 0
      vertex 17.8 3.39 3
      vertex 16.8 3.39 3
    endloop
  endfacet
  facet normal 0 -1 -0
    outer loop
      vertex 17.8 3.39 3
      vertex 16.8 3.39 0
      vertex 17.8 3.39 0
    endloop
  endfacet
  facet normal -1 0 0
    outer loop
      vertex 2.2 3.93 0
      vertex 2.2 5.93 3
      vertex 2.2 5.93 0
    endloop
  endfacet
  facet normal -1 -0 0
    outer loop
      vertex 2.2 5.93 3
      vertex 2.2 3.93 0
      vertex 2.2 3.93 3
    endloop
  endfacet
  facet normal 0 -1 0
    outer loop
      vertex 1.2 5.93 0
      vertex 2.2 5.93 3
      vertex 1.2 5.93 3
    endloop
  endfacet
  facet normal 0 -1 -0
    outer loop
      vertex 2.2 5.93 3
      vertex 1.2 5.93 0
      vertex 2.2 5.93 0
    endloop
  endfacet
  facet normal 0 1 -0
    outer loop
      vertex 2.2 3.93 0
      vertex 1.2 3.93 3
      vertex 2.2 3.93 3
    endloop
  endfacet
  facet normal 0 1 0
    outer loop
      vertex 1.2 3.93 3
      vertex 2.2 3.93 0
      vertex 1.2 3.93 0
    endloop
  endfacet
  facet normal 1 -0 0
    outer loop
      vertex 16.8 3.93 3
      vertex 16.8 5.93 0
      vertex 16.8 5.93 3
    endloop
  endfacet
  facet normal 1 0 0
    outer loop
      vertex 16.8 5.93 0
      vertex 16.8 3.93 3
      vertex 16.8 3.93 0
    endloop
  endfacet
  facet normal 0 -1 0
    outer loop
      vertex 16.8 5.93 0
      vertex 17.8 5.93 3
      vertex 16.8 5.93 3
    endloop
  endfacet
  facet normal 0 -1 -0
    outer loop
      vertex 17.8 5.93 3
      vertex 16.8 5.93 0
      vertex 17.8 5.93 0
    endloop
  endfacet
  facet normal 0 1 -0
    outer loop
      vertex 17.8 3.93 0
      vertex 16.8 3.93 3
      vertex 17.8 3.93 3
    endloop
  endfacet
  facet normal 0 1 0
    outer loop
      vertex 16.8 3.93 3
      vertex 17.8 3.93 0
      vertex 16.8 3.93 0
    endloop
  endfacet
  facet normal -1 0 0
    outer loop
      vertex 2.2 6.47 0
      vertex 2.2 8.47 3
      vertex 2.2 8.47 0
    endloop
  endfacet
  facet normal -1 -0 0
    outer loop
      vertex 2.2 8.47 3
      vertex 2.2 6.47 0
      vertex 2.2 6.47 3
    endloop
  endfacet
  facet normal 0 -1 0
    outer loop
      vertex 1.2 8.47 0
      vertex 2.2 8.47 3
      vertex 1.2 8.47 3
    endloop
  endfacet
  facet normal 0 -1 -0
    outer loop
      vertex 2.2 8.47 3
      vertex 1.2 8.47 0
      vertex 2.2 8.47 0
    endloop
  endfacet
  facet normal 0 1 -0
    outer loop
      vertex 2.2 6.47 0
      vertex 1.2 6.47 3
      vertex 2.2 6.47 3
    endloop
  endfacet
  facet normal 0 1 0
    outer loop
      vertex 1.2 6.47 3
      vertex 2.2 6.47 0
      vertex 1.2 6.47 0
    endloop
  endfacet
  facet normal 1 -0 0
    outer loop
      vertex 16.8 6.47 3
      vertex 16.8 8.47 0
      vertex 16.8 8.47 3
    endloop
  endfacet
  facet normal 1 0 0
    outer loop
      vertex 16.8 8.47 0
      vertex 16.8 6.47 3
      vertex 16.8 6.47 0
    endloop
  endfacet
  facet normal 0 1 -0
    outer loop
      vertex 17.8 6.47 0
      vertex 16.8 6.47 3
      vertex 17.8 6.47 3
    endloop
  endfacet
  facet normal 0 1 0
    outer loop
      vertex 16.8 6.47 3
      vertex 17.8 6.47 0
      vertex 16.8 6.47 0
    endloop
  endfacet
  facet normal 0 -1 0
    outer loop
      vertex 16.8 8.47 0
      vertex 17.8 8.47 3
      vertex 16.8 8.47 3
    endloop
  endfacet
  facet normal 0 -1 -0
    outer loop
      vertex 17.8 8.47 3
      vertex 16.8 8.47 0
      vertex 17.8 8.47 0
    endloop
  endfacet
  facet normal -1 0 0
    outer loop
      vertex 2.2 9.01 0
      vertex 2.2 11.01 3
      vertex 2.2 11.01 0
    endloop
  endfacet
  facet normal -1 -0 0
    outer loop
      vertex 2.2 11.01 3
      vertex 2.2 9.01 0
      vertex 2.2 9.01 3
    endloop
  endfacet
  facet normal 0 -1 0
    outer loop
      vertex 1.2 11.01 0
      vertex 2.2 11.01 3
      vertex 1.2 11.01 3
    endloop
  endfacet
  facet normal 0 -1 -0
    outer loop
      vertex 2.2 11.01 3
      vertex 1.2 11.01 0
      vertex 2.2 11.01 0
    endloop
  endfacet
  facet normal 0 1 -0
    outer loop
      vertex 2.2 9.01 0
      vertex 1.2 9.01 3
      vertex 2.2 9.01 3
    endloop
  endfacet
  facet normal 0 1 0
    outer loop
      vertex 1.2 9.01 3
      vertex 2.2 9.01 0
      vertex 1.2 9.01 0
    endloop
  endfacet
  facet normal 1 -0 0
    outer loop
      vertex 16.8 9.01 3
      vertex 16.8 11.01 0
      vertex 16.8 11.01 3
    endloop
  endfacet
  facet normal 1 0 0
    outer loop
      vertex 16.8 11.01 0
      vertex 16.8 9.01 3
      vertex 16.8 9.01 0
    endloop
  endfacet
  facet normal 0 1 -0
    outer loop
      vertex 17.8 9.01 0
      vertex 16.8 9.01 3
      vertex 17.8 9.01 3
    endloop
  endfacet
  facet normal 0 1 0
    outer loop
      vertex 16.8 9.01 3
      vertex 17.8 9.01 0
      vertex 16.8 9.01 0
    endloop
  endfacet
  facet normal 0 -1 0
    outer loop
      vertex 16.8 11.01 0
      vertex 17.8 11.01 3
      vertex 16.8 11.01 3
    endloop
  endfacet
  facet normal 0 -1 -0
    outer loop
      vertex 17.8 11.01 3
      vertex 16.8 11.01 0
      vertex 17.8 11.01 0
    endloop
  endfacet
  facet normal -1 0 0
    outer loop
      vertex 2.2 11.55 0
      vertex 2.2 13.55 3
      vertex 2.2 13.55 0
    endloop
  endfacet
  facet normal -1 -0 0
    outer loop
      vertex 2.2 13.55 3
      vertex 2.2 11.55 0
      vertex 2.2 11.55 3
    endloop
  endfacet
  facet normal 0 -1 0
    outer loop
      vertex 1.2 13.55 0
      vertex 2.2 13.55 3
      vertex 1.2 13.55 3
    endloop
  endfacet
  facet normal 0 -1 -0
    outer loop
      vertex 2.2 13.55 3
      vertex 1.2 13.55 0
      vertex 2.2 13.55 0
    endloop
  endfacet
  facet normal 0 1 -0
    outer loop
      vertex 2.2 11.55 0
      vertex 1.2 11.55 3
      vertex 2.2 11.55 3
    endloop
  endfacet
  facet normal 0 1 0
    outer loop
      vertex 1.2 11.55 3
      vertex 2.2 11.55 0
      vertex 1.2 11.55 0
    endloop
  endfacet
  facet normal 1 -0 0
    outer loop
      vertex 16.8 11.55 3
      vertex 16.8 13.55 0
      vertex 16.8 13.55 3
    endloop
  endfacet
  facet normal 1 0 0
    outer loop
      vertex 16.8 13.55 0
      vertex 16.8 11.55 3
      vertex 16.8 11.55 0
    endloop
  endfacet
  facet normal 0 1 -0
    outer loop
      vertex 17.8 11.55 0
      vertex 16.8 11.55 3
      vertex 17.8 11.55 3
    endloop
  endfacet
  facet normal 0 1 0
    outer loop
      vertex 16.8 11.55 3
      vertex 17.8 11.55 0
      vertex 16.8 11.55 0
    endloop
  endfacet
  facet normal 0 -1 0
    outer loop
      vertex 16.8 13.55 0
      vertex 17.8 13.55 3
      vertex 16.8 13.55 3
    endloop
  endfacet
  facet normal 0 -1 -0
    outer loop
      vertex 17.8 13.55 3
      vertex 16.8 13.55 0
      vertex 17.8 13.55 0
    endloop
  endfacet
  facet normal -1 0 0
    outer loop
      vertex 2.2 14.09 0
      vertex 2.2 16.09 3
      vertex 2.2 16.09 0
    endloop
  endfacet
  facet normal -1 -0 0
    outer loop
      vertex 2.2 16.09 3
      vertex 2.2 14.09 0
      vertex 2.2 14.09 3
    endloop
  endfacet
  facet normal 0 1 -0
    outer loop
      vertex 2.2 14.09 0
      vertex 1.2 14.09 3
      vertex 2.2 14.09 3
    endloop
  endfacet
  facet normal 0 1 0
    outer loop
      vertex 1.2 14.09 3
      vertex 2.2 14.09 0
      vertex 1.2 14.09 0
    endloop
  endfacet
  facet normal 0 -1 0
    outer loop
      vertex 1.2 16.09 0
      vertex 2.2 16.09 3
      vertex 1.2 16.09 3
    endloop
  endfacet
  facet normal 0 -1 -0
    outer loop
      vertex 2.2 16.09 3
      vertex 1.2 16.09 0
      vertex 2.2 16.09 0
    endloop
  endfacet
  facet normal 1 -0 0
    outer loop
      vertex 16.8 14.09 3
      vertex 16.8 16.09 0
      vertex 16.8 16.09 3
    endloop
  endfacet
  facet normal 1 0 0
    outer loop
      vertex 16.8 16.09 0
      vertex 16.8 14.09 3
      vertex 16.8 14.09 0
    endloop
  endfacet
  facet normal 0 1 -0
    outer loop
      vertex 17.8 14.09 0
      vertex 16.8 14.09 3
      vertex 17.8 14.09 3
    endloop
  endfacet
  facet normal 0 1 0
    outer loop
      vertex 16.8 14.09 3
      vertex 17.8 14.09 0
      vertex 16.8 14.09 0
    endloop
  endfacet
  facet normal 0 -1 0
    outer loop
      vertex 16.8 16.09 0
      vertex 17.8 16.09 3
      vertex 16.8 16.09 3
    endloop
  endfacet
  facet normal 0 -1 -0
    outer loop
      vertex 17.8 16.09 3
      vertex 16.8 16.09 0
      vertex 17.8 16.09 0
    endloop
  endfacet
  facet normal -1 0 0
    outer loop
      vertex 2.2 16.63 0
      vertex 2.2 18.63 3
      vertex 2.2 18.63 0
    endloop
  endfacet
  facet normal -1 -0 0
    outer loop
      vertex 2.2 18.63 3
      vertex 2.2 16.63 0
      vertex 2.2 16.63 3
    endloop
  endfacet
  facet normal 0 -1 0
    outer loop
      vertex 1.2 18.63 0
      vertex 2.2 18.63 3
      vertex 1.2 18.63 3
    endloop
  endfacet
  facet normal 0 -1 -0
    outer loop
      vertex 2.2 18.63 3
      vertex 1.2 18.63 0
      vertex 2.2 18.63 0
    endloop
  endfacet
  facet normal 0 1 -0
    outer loop
      vertex 2.2 16.63 0
      vertex 1.2 16.63 3
      vertex 2.2 16.63 3
    endloop
  endfacet
  facet normal 0 1 0
    outer loop
      vertex 1.2 16.63 3
      vertex 2.2 16.63 0
      vertex 1.2 16.63 0
    endloop
  endfacet
  facet normal 1 -0 0
    outer loop
      vertex 16.8 16.63 3
      vertex 16.8 18.63 0
      vertex 16.8 18.63 3
    endloop
  endfacet
  facet normal 1 0 0
    outer loop
      vertex 16.8 18.63 0
      vertex 16.8 16.63 3
      vertex 16.8 16.63 0
    endloop
  endfacet
  facet normal 0 -1 0
    outer loop
      vertex 16.8 18.63 0
      vertex 17.8 18.63 3
      vertex 16.8 18.63 3
    endloop
  endfacet
  facet normal 0 -1 -0
    outer loop
      vertex 17.8 18.63 3
      vertex 16.8 18.63 0
      vertex 17.8 18.63 0
    endloop
  endfacet
  facet normal 0 1 -0
    outer loop
      vertex 17.8 16.63 0
      vertex 16.8 16.63 3
      vertex 17.8 16.63 3
    endloop
  endfacet
  facet normal 0 1 0
    outer loop
      vertex 16.8 16.63 3
      vertex 17.8 16.63 0
      vertex 16.8 16.63 0
    endloop
  endfacet
  facet normal -1 0 0
    outer loop
      vertex 2.2 19.17 0
      vertex 2.2 21.17 3
      vertex 2.2 21.17 0
    endloop
  endfacet
  facet normal -1 -0 0
    outer loop
      vertex 2.2 21.17 3
      vertex 2.2 19.17 0
      vertex 2.2 19.17 3
    endloop
  endfacet
  facet normal 0 1 -0
    outer loop
      vertex 2.2 19.17 0
      vertex 1.2 19.17 3
      vertex 2.2 19.17 3
    endloop
  endfacet
  facet normal 0 1 0
    outer loop
      vertex 1.2 19.17 3
      vertex 2.2 19.17 0
      vertex 1.2 19.17 0
    endloop
  endfacet
  facet normal 0 -1 0
    outer loop
      vertex 1.2 21.17 0
      vertex 2.2 21.17 3
      vertex 1.2 21.17 3
    endloop
  endfacet
  facet normal 0 -1 -0
    outer loop
      vertex 2.2 21.17 3
      vertex 1.2 21.17 0
      vertex 2.2 21.17 0
    endloop
  endfacet
  facet normal 1 -0 0
    outer loop
      vertex 16.8 19.17 3
      vertex 16.8 21.17 0
      vertex 16.8 21.17 3
    endloop
  endfacet
  facet normal 1 0 0
    outer loop
      vertex 16.8 21.17 0
      vertex 16.8 19.17 3
      vertex 16.8 19.17 0
    endloop
  endfacet
  facet normal 0 -1 0
    outer loop
      vertex 16.8 21.17 0
      vertex 17.8 21.17 3
      vertex 16.8 21.17 3
    endloop
  endfacet
  facet normal 0 -1 -0
    outer loop
      vertex 17.8 21.17 3
      vertex 16.8 21.17 0
      vertex 17.8 21.17 0
    endloop
  endfacet
  facet normal 0 1 -0
    outer loop
      vertex 17.8 19.17 0
      vertex 16.8 19.17 3
      vertex 17.8 19.17 3
    endloop
  endfacet
  facet normal 0 1 0
    outer loop
      vertex 16.8 19.17 3
      vertex 17.8 19.17 0
      vertex 16.8 19.17 0
    endloop
  endfacet
  facet normal -1 0 0
    outer loop
      vertex 2.2 21.71 0
      vertex 2.2 23.71 3
      vertex 2.2 23.71 0
    endloop
  endfacet
  facet normal -1 -0 0
    outer loop
      vertex 2.2 23.71 3
      vertex 2.2 21.71 0
      vertex 2.2 21.71 3
    endloop
  endfacet
  facet normal 0 1 -0
    outer loop
      vertex 2.2 21.71 0
      vertex 1.2 21.71 3
      vertex 2.2 21.71 3
    endloop
  endfacet
  facet normal 0 1 0
    outer loop
      vertex 1.2 21.71 3
      vertex 2.2 21.71 0
      vertex 1.2 21.71 0
    endloop
  endfacet
  facet normal 0 -1 0
    outer loop
      vertex 1.2 23.71 0
      vertex 2.2 23.71 3
      vertex 1.2 23.71 3
    endloop
  endfacet
  facet normal 0 -1 -0
    outer loop
      vertex 2.2 23.71 3
      vertex 1.2 23.71 0
      vertex 2.2 23.71 0
    endloop
  endfacet
  facet normal 1 -0 0
    outer loop
      vertex 16.8 21.71 3
      vertex 16.8 23.71 0
      vertex 16.8 23.71 3
    endloop
  endfacet
  facet normal 1 0 0
    outer loop
      vertex 16.8 23.71 0
      vertex 16.8 21.71 3
      vertex 16.8 21.71 0
    endloop
  endfacet
  facet normal 0 1 -0
    outer loop
      vertex 17.8 21.71 0
      vertex 16.8 21.71 3
      vertex 17.8 21.71 3
    endloop
  endfacet
  facet normal 0 1 0
    outer loop
      vertex 16.8 21.71 3
      vertex 17.8 21.71 0
      vertex 16.8 21.71 0
    endloop
  endfacet
  facet normal 0 -1 0
    outer loop
      vertex 16.8 23.71 0
      vertex 17.8 23.71 3
      vertex 16.8 23.71 3
    endloop
  endfacet
  facet normal 0 -1 -0
    outer loop
      vertex 17.8 23.71 3
      vertex 16.8 23.71 0
      vertex 17.8 23.71 0
    endloop
  endfacet
  facet normal -1 0 0
    outer loop
      vertex 2.2 24.25 0
      vertex 2.2 26.25 3
      vertex 2.2 26.25 0
    endloop
  endfacet
  facet normal -1 -0 0
    outer loop
      vertex 2.2 26.25 3
      vertex 2.2 24.25 0
      vertex 2.2 24.25 3
    endloop
  endfacet
  facet normal 0 -1 0
    outer loop
      vertex 1.2 26.25 0
      vertex 2.2 26.25 3
      vertex 1.2 26.25 3
    endloop
  endfacet
  facet normal 0 -1 -0
    outer loop
      vertex 2.2 26.25 3
      vertex 1.2 26.25 0
      vertex 2.2 26.25 0
    endloop
  endfacet
  facet normal 0 1 -0
    outer loop
      vertex 2.2 24.25 0
      vertex 1.2 24.25 3
      vertex 2.2 24.25 3
    endloop
  endfacet
  facet normal 0 1 0
    outer loop
      vertex 1.2 24.25 3
      vertex 2.2 24.25 0
      vertex 1.2 24.25 0
    endloop
  endfacet
  facet normal 1 -0 0
    outer loop
      vertex 16.8 24.25 3
      vertex 16.8 26.25 0
      vertex 16.8 26.25 3
    endloop
  endfacet
  facet normal 1 0 0
    outer loop
      vertex 16.8 26.25 0
      vertex 16.8 24.25 3
      vertex 16.8 24.25 0
    endloop
  endfacet
  facet normal 0 1 -0
    outer loop
      vertex 17.8 24.25 0
      vertex 16.8 24.25 3
      vertex 17.8 24.25 3
    endloop
  endfacet
  facet normal 0 1 0
    outer loop
      vertex 16.8 24.25 3
      vertex 17.8 24.25 0
      vertex 16.8 24.25 0
    endloop
  endfacet
  facet normal 0 -1 0
    outer loop
      vertex 16.8 26.25 0
      vertex 17.8 26.25 3
      vertex 16.8 26.25 3
    endloop
  endfacet
  facet normal 0 -1 -0
    outer loop
      vertex 17.8 26.25 3
      vertex 16.8 26.25 0
      vertex 17.8 26.25 0
    endloop
  endfacet
  facet normal -1 0 0
    outer loop
      vertex 2.2 26.79 0
      vertex 2.2 28.79 3
      vertex 2.2 28.79 0
    endloop
  endfacet
  facet normal -1 -0 0
    outer loop
      vertex 2.2 28.79 3
      vertex 2.2 26.79 0
      vertex 2.2 26.79 3
    endloop
  endfacet
  facet normal 0 1 -0
    outer loop
      vertex 2.2 26.79 0
      vertex 1.2 26.79 3
      vertex 2.2 26.79 3
    endloop
  endfacet
  facet normal 0 1 0
    outer loop
      vertex 1.2 26.79 3
      vertex 2.2 26.79 0
      vertex 1.2 26.79 0
    endloop
  endfacet
  facet normal 0 -1 0
    outer loop
      vertex 1.2 28.79 0
      vertex 2.2 28.79 3
      vertex 1.2 28.79 3
    endloop
  endfacet
  facet normal 0 -1 -0
    outer loop
      vertex 2.2 28.79 3
      vertex 1.2 28.79 0
      vertex 2.2 28.79 0
    endloop
  endfacet
  facet normal 1 -0 0
    outer loop
      vertex 16.8 26.79 3
      vertex 16.8 28.79 0
      vertex 16.8 28.79 3
    endloop
  endfacet
  facet normal 1 0 0
    outer loop
      vertex 16.8 28.79 0
      vertex 16.8 26.79 3
      vertex 16.8 26.79 0
    endloop
  endfacet
  facet normal 0 1 -0
    outer loop
      vertex 17.8 26.79 0
      vertex 16.8 26.79 3
      vertex 17.8 26.79 3
    endloop
  endfacet
  facet normal 0 1 0
    outer loop
      vertex 16.8 26.79 3
      vertex 17.8 26.79 0
      vertex 16.8 26.79 0
    endloop
  endfacet
  facet normal 0 -1 0
    outer loop
      vertex 16.8 28.79 0
      vertex 17.8 28.79 3
      vertex 16.8 28.79 3
    endloop
  endfacet
  facet normal 0 -1 -0
    outer loop
      vertex 17.8 28.79 3
      vertex 16.8 28.79 0
      vertex 17.8 28.79 0
    endloop
  endfacet
  facet normal -1 0 0
    outer loop
      vertex 2.2 29.33 0
      vertex 2.2 31.33 3
      vertex 2.2 31.33 0
    endloop
  endfacet
  facet normal -1 -0 0
    outer loop
      vertex 2.2 31.33 3
      vertex 2.2 29.33 0
      vertex 2.2 29.33 3
    endloop
  endfacet
  facet normal 0 1 -0
    outer loop
      vertex 2.2 29.33 0
      vertex 1.2 29.33 3
      vertex 2.2 29.33 3
    endloop
  endfacet
  facet normal 0 1 0
    outer loop
      vertex 1.2 29.33 3
      vertex 2.2 29.33 0
      vertex 1.2 29.33 0
    endloop
  endfacet
  facet normal 0 -1 0
    outer loop
      vertex 1.2 31.33 0
      vertex 2.2 31.33 3
      vertex 1.2 31.33 3
    endloop
  endfacet
  facet normal 0 -1 -0
    outer loop
      vertex 2.2 31.33 3
      vertex 1.2 31.33 0
      vertex 2.2 31.33 0
    endloop
  endfacet
  facet normal 1 -0 0
    outer loop
      vertex 16.8 29.33 3
      vertex 16.8 31.33 0
      vertex 16.8 31.33 3
    endloop
  endfacet
  facet normal 1 0 0
    outer loop
      vertex 16.8 31.33 0
      vertex 16.8 29.33 3
      vertex 16.8 29.33 0
    endloop
  endfacet
  facet normal 0 -1 0
    outer loop
      vertex 16.8 31.33 0
      vertex 17.8 31.33 3
      vertex 16.8 31.33 3
    endloop
  endfacet
  facet normal 0 -1 -0
    outer loop
      vertex 17.8 31.33 3
      vertex 16.8 31.33 0
      vertex 17.8 31.33 0
    endloop
  endfacet
  facet normal 0 1 -0
    outer loop
      vertex 17.8 29.33 0
      vertex 16.8 29.33 3
      vertex 17.8 29.33 3
    endloop
  endfacet
  facet normal 0 1 0
    outer loop
      vertex 16.8 29.33 3
      vertex 17.8 29.33 0
      vertex 16.8 29.33 0
    endloop
  endfacet
  facet normal -1 0 0
    outer loop
      vertex 2.2 31.87 0
      vertex 2.2 33.87 3
      vertex 2.2 33.87 0
    endloop
  endfacet
  facet normal -1 -0 0
    outer loop
      vertex 2.2 33.87 3
      vertex 2.2 31.87 0
      vertex 2.2 31.87 3
    endloop
  endfacet
  facet normal 0 -1 0
    outer loop
      vertex 1.2 33.87 0
      vertex 2.2 33.87 3
      vertex 1.2 33.87 3
    endloop
  endfacet
  facet normal 0 -1 -0
    outer loop
      vertex 2.2 33.87 3
      vertex 1.2 33.87 0
      vertex 2.2 33.87 0
    endloop
  endfacet
  facet normal 0 1 -0
    outer loop
      vertex 2.2 31.87 0
      vertex 1.2 31.87 3
      vertex 2.2 31.87 3
    endloop
  endfacet
  facet normal 0 1 0
    outer loop
      vertex 1.2 31.87 3
      vertex 2.2 31.87 0
      vertex 1.2 31.87 0
    endloop
  endfacet
  facet normal 1 -0 0
    outer loop
      vertex 16.8 31.87 3
      vertex 16.8 33.87 0
      vertex 16.8 33.87 3
    endloop
  endfacet
  facet normal 1 0 0
    outer loop
      vertex 16.8 33.87 0
      vertex 16.8 31.87 3
      vertex 16.8 31.87 0
    endloop
  endfacet
  facet normal 0 1 -0
    outer loop
      vertex 17.8 31.87 0
      vertex 16.8 31.87 3
      vertex 17.8 31.87 3
    endloop
  endfacet
  facet normal 0 1 0
    outer loop
      vertex 16.8 31.87 3
      vertex 17.8 31.87 0
      vertex 16.8 31.87 0
    endloop
  endfacet
  facet normal 0 -1 0
    outer loop
      vertex 16.8 33.87 0
      vertex 17.8 33.87 3
      vertex 16.8 33.87 3
    endloop
  endfacet
  facet normal 0 -1 -0
    outer loop
      vertex 17.8 33.87 3
      vertex 16.8 33.87 0
      vertex 17.8 33.87 0
    endloop
  endfacet
  facet normal -1 0 0
    outer loop
      vertex 2.2 34.41 0
      vertex 2.2 36.41 3
      vertex 2.2 36.41 0
    endloop
  endfacet
  facet normal -1 -0 0
    outer loop
      vertex 2.2 36.41 3
      vertex 2.2 34.41 0
      vertex 2.2 34.41 3
    endloop
  endfacet
  facet normal 0 -1 0
    outer loop
      vertex 1.2 36.41 0
      vertex 2.2 36.41 3
      vertex 1.2 36.41 3
    endloop
  endfacet
  facet normal 0 -1 -0
    outer loop
      vertex 2.2 36.41 3
      vertex 1.2 36.41 0
      vertex 2.2 36.41 0
    endloop
  endfacet
  facet normal 0 1 -0
    outer loop
      vertex 2.2 34.41 0
      vertex 1.2 34.41 3
      vertex 2.2 34.41 3
    endloop
  endfacet
  facet normal 0 1 0
    outer loop
      vertex 1.2 34.41 3
      vertex 2.2 34.41 0
      vertex 1.2 34.41 0
    endloop
  endfacet
  facet normal 1 -0 0
    outer loop
      vertex 16.8 34.41 3
      vertex 16.8 36.41 0
      vertex 16.8 36.41 3
    endloop
  endfacet
  facet normal 1 0 0
    outer loop
      vertex 16.8 36.41 0
      vertex 16.8 34.41 3
      vertex 16.8 34.41 0
    endloop
  endfacet
  facet normal 0 1 -0
    outer loop
      vertex 17.8 34.41 0
      vertex 16.8 34.41 3
      vertex 17.8 34.41 3
    endloop
  endfacet
  facet normal 0 1 0
    outer loop
      vertex 16.8 34.41 3
      vertex 17.8 34.41 0
      vertex 16.8 34.41 0
    endloop
  endfacet
  facet normal 0 -1 0
    outer loop
      vertex 16.8 36.41 0
      vertex 17.8 36.41 3
      vertex 16.8 36.41 3
    endloop
  endfacet
  facet normal 0 -1 -0
    outer loop
      vertex 17.8 36.41 3
      vertex 16.8 36.41 0
      vertex 17.8 36.41 0
    endloop
  endfacet
  facet normal -1 0 0
    outer loop
      vertex 1.2 0.5 0
      vertex 1.2 1.39 3
      vertex 1.2 1.39 0
    endloop
  endfacet
  facet normal -1 -0 0
    outer loop
      vertex 1.2 1.39 3
      vertex 1.2 0.5 0
      vertex 1.2 0.5 3
    endloop
  endfacet
  facet normal -1 0 0
    outer loop
      vertex 1.2 36.41 0
      vertex 1.2 37.4 3
      vertex 1.2 37.4 0
    endloop
  endfacet
  facet normal -1 -0 0
    outer loop
      vertex 1.2 37.4 3
      vertex 1.2 36.41 0
      vertex 1.2 36.41 3
    endloop
  endfacet
  facet normal -1 0 0
    outer loop
      vertex 1.2 3.39 0
      vertex 1.2 3.93 3
      vertex 1.2 3.93 0
    endloop
  endfacet
  facet normal -1 -0 0
    outer loop
      vertex 1.2 3.93 3
      vertex 1.2 3.39 0
      vertex 1.2 3.39 3
    endloop
  endfacet
  facet normal -1 0 0
    outer loop
      vertex 1.2 5.93 0
      vertex 1.2 6.47 3
      vertex 1.2 6.47 0
    endloop
  endfacet
  facet normal -1 -0 0
    outer loop
      vertex 1.2 6.47 3
      vertex 1.2 5.93 0
      vertex 1.2 5.93 3
    endloop
  endfacet
  facet normal -1 0 0
    outer loop
      vertex 1.2 8.47 0
      vertex 1.2 9.01 3
      vertex 1.2 9.01 0
    endloop
  endfacet
  facet normal -1 -0 0
    outer loop
      vertex 1.2 9.01 3
      vertex 1.2 8.47 0
      vertex 1.2 8.47 3
    endloop
  endfacet
  facet normal -1 0 0
    outer loop
      vertex 1.2 11.01 0
      vertex 1.2 11.55 3
      vertex 1.2 11.55 0
    endloop
  endfacet
  facet normal -1 -0 0
    outer loop
      vertex 1.2 11.55 3
      vertex 1.2 11.01 0
      vertex 1.2 11.01 3
    endloop
  endfacet
  facet normal -1 0 0
    outer loop
      vertex 1.2 13.55 0
      vertex 1.2 14.09 3
      vertex 1.2 14.09 0
    endloop
  endfacet
  facet normal -1 -0 0
    outer loop
      vertex 1.2 14.09 3
      vertex 1.2 13.55 0
      vertex 1.2 13.55 3
    endloop
  endfacet
  facet normal -1 0 0
    outer loop
      vertex 1.2 16.09 0
      vertex 1.2 16.63 3
      vertex 1.2 16.63 0
    endloop
  endfacet
  facet normal -1 -0 0
    outer loop
      vertex 1.2 16.63 3
      vertex 1.2 16.09 0
      vertex 1.2 16.09 3
    endloop
  endfacet
  facet normal -1 0 0
    outer loop
      vertex 1.2 18.63 0
      vertex 1.2 19.17 3
      vertex 1.2 19.17 0
    endloop
  endfacet
  facet normal -1 -0 0
    outer loop
      vertex 1.2 19.17 3
      vertex 1.2 18.63 0
      vertex 1.2 18.63 3
    endloop
  endfacet
  facet normal -1 0 0
    outer loop
      vertex 1.2 21.17 0
      vertex 1.2 21.71 3
      vertex 1.2 21.71 0
    endloop
  endfacet
  facet normal -1 -0 0
    outer loop
      vertex 1.2 21.71 3
      vertex 1.2 21.17 0
      vertex 1.2 21.17 3
    endloop
  endfacet
  facet normal -1 0 0
    outer loop
      vertex 1.2 23.71 0
      vertex 1.2 24.25 3
      vertex 1.2 24.25 0
    endloop
  endfacet
  facet normal -1 -0 0
    outer loop
      vertex 1.2 24.25 3
      vertex 1.2 23.71 0
      vertex 1.2 23.71 3
    endloop
  endfacet
  facet normal -1 0 0
    outer loop
      vertex 1.2 26.25 0
      vertex 1.2 26.79 3
      vertex 1.2 26.79 0
    endloop
  endfacet
  facet normal -1 -0 0
    outer loop
      vertex 1.2 26.79 3
      vertex 1.2 26.25 0
      vertex 1.2 26.25 3
    endloop
  endfacet
  facet normal -1 0 0
    outer loop
      vertex 1.2 28.79 0
      vertex 1.2 29.33 3
      vertex 1.2 29.33 0
    endloop
  endfacet
  facet normal -1 -0 0
    outer loop
      vertex 1.2 29.33 3
      vertex 1.2 28.79 0
      vertex 1.2 28.79 3
    endloop
  endfacet
  facet normal -1 0 0
    outer loop
      vertex 1.2 31.33 0
      vertex 1.2 31.87 3
      vertex 1.2 31.87 0
    endloop
  endfacet
  facet normal -1 -0 0
    outer loop
      vertex 1.2 31.87 3
      vertex 1.2 31.33 0
      vertex 1.2 31.33 3
    endloop
  endfacet
  facet normal -1 0 0
    outer loop
      vertex 1.2 33.87 0
      vertex 1.2 34.41 3
      vertex 1.2 34.41 0
    endloop
  endfacet
  facet normal -1 -0 0
    outer loop
      vertex 1.2 34.41 3
      vertex 1.2 33.87 0
      vertex 1.2 33.87 3
    endloop
  endfacet
  facet normal -0 0 1
    outer loop
      vertex 1.2 1.39 3
      vertex 1.8 0.5 3
      vertex 2.2 1.39 3
    endloop
  endfacet
  facet normal 0 0 1
    outer loop
      vertex 1.8 0.5 3
      vertex 1.2 1.39 3
      vertex 1.2 0.5 3
    endloop
  endfacet
  facet normal -0 0 1
    outer loop
      vertex 1.2 3.93 3
      vertex 2.2 3.39 3
      vertex 2.2 3.93 3
    endloop
  endfacet
  facet normal 0 0 1
    outer loop
      vertex 2.2 3.39 3
      vertex 1.2 3.93 3
      vertex 1.2 3.39 3
    endloop
  endfacet
  facet normal -0 0 1
    outer loop
      vertex 1.2 6.47 3
      vertex 2.2 5.93 3
      vertex 2.2 6.47 3
    endloop
  endfacet
  facet normal 0 0 1
    outer loop
      vertex 2.2 5.93 3
      vertex 1.2 6.47 3
      vertex 1.2 5.93 3
    endloop
  endfacet
  facet normal -0 0 1
    outer loop
      vertex 1.2 9.01 3
      vertex 2.2 8.47 3
      vertex 2.2 9.01 3
    endloop
  endfacet
  facet normal 0 0 1
    outer loop
      vertex 2.2 8.47 3
      vertex 1.2 9.01 3
      vertex 1.2 8.47 3
    endloop
  endfacet
  facet normal -0 0 1
    outer loop
      vertex 1.2 11.55 3
      vertex 2.2 11.01 3
      vertex 2.2 11.55 3
    endloop
  endfacet
  facet normal 0 0 1
    outer loop
      vertex 2.2 11.01 3
      vertex 1.2 11.55 3
      vertex 1.2 11.01 3
    endloop
  endfacet
  facet normal -0 0 1
    outer loop
      vertex 1.2 14.09 3
      vertex 2.2 13.55 3
      vertex 2.2 14.09 3
    endloop
  endfacet
  facet normal 0 0 1
    outer loop
      vertex 2.2 13.55 3
      vertex 1.2 14.09 3
      vertex 1.2 13.55 3
    endloop
  endfacet
  facet normal -0 0 1
    outer loop
      vertex 1.2 16.63 3
      vertex 2.2 16.09 3
      vertex 2.2 16.63 3
    endloop
  endfacet
  facet normal 0 0 1
    outer loop
      vertex 2.2 16.09 3
      vertex 1.2 16.63 3
      vertex 1.2 16.09 3
    endloop
  endfacet
  facet normal -0 0 1
    outer loop
      vertex 1.2 19.17 3
      vertex 2.2 18.63 3
      vertex 2.2 19.17 3
    endloop
  endfacet
  facet normal 0 0 1
    outer loop
      vertex 2.2 18.63 3
      vertex 1.2 19.17 3
      vertex 1.2 18.63 3
    endloop
  endfacet
  facet normal -0 0 1
    outer loop
      vertex 1.2 21.71 3
      vertex 2.2 21.17 3
      vertex 2.2 21.71 3
    endloop
  endfacet
  facet normal 0 0 1
    outer loop
      vertex 2.2 21.17 3
      vertex 1.2 21.71 3
      vertex 1.2 21.17 3
    endloop
  endfacet
  facet normal -0 0 1
    outer loop
      vertex 1.2 24.25 3
      vertex 2.2 23.71 3
      vertex 2.2 24.25 3
    endloop
  endfacet
  facet normal 0 0 1
    outer loop
      vertex 2.2 23.71 3
      vertex 1.2 24.25 3
      vertex 1.2 23.71 3
    endloop
  endfacet
  facet normal -0 0 1
    outer loop
      vertex 1.2 26.79 3
      vertex 2.2 26.25 3
      vertex 2.2 26.79 3
    endloop
  endfacet
  facet normal 0 0 1
    outer loop
      vertex 2.2 26.25 3
      vertex 1.2 26.79 3
      vertex 1.2 26.25 3
    endloop
  endfacet
  facet normal -0 0 1
    outer loop
      vertex 1.2 29.33 3
      vertex 2.2 28.79 3
      vertex 2.2 29.33 3
    endloop
  endfacet
  facet normal 0 0 1
    outer loop
      vertex 2.2 28.79 3
      vertex 1.2 29.33 3
      vertex 1.2 28.79 3
    endloop
  endfacet
  facet normal -0 0 1
    outer loop
      vertex 1.2 31.87 3
      vertex 2.2 31.33 3
      vertex 2.2 31.87 3
    endloop
  endfacet
  facet normal 0 0 1
    outer loop
      vertex 2.2 31.33 3
      vertex 1.2 31.87 3
      vertex 1.2 31.33 3
    endloop
  endfacet
  facet normal -0 0 1
    outer loop
      vertex 1.2 34.41 3
      vertex 2.2 33.87 3
      vertex 2.2 34.41 3
    endloop
  endfacet
  facet normal 0 0 1
    outer loop
      vertex 2.2 33.87 3
      vertex 1.2 34.41 3
      vertex 1.2 33.87 3
    endloop
  endfacet
  facet normal 0 0 1
    outer loop
      vertex 17.2 37.9 3
      vertex 16.8 36.41 3
      vertex 17.2 37.4 3
    endloop
  endfacet
  facet normal 0 0 1
    outer loop
      vertex 2.2 34.41 3
      vertex 16.8 34.41 3
      vertex 16.8 36.41 3
    endloop
  endfacet
  facet normal 0 0 1
    outer loop
      vertex 16.8 34.41 3
      vertex 2.2 34.41 3
      vertex 16.8 33.87 3
    endloop
  endfacet
  facet normal 0 0 1
    outer loop
      vertex 16.8 33.87 3
      vertex 2.2 33.87 3
      vertex 16.8 31.87 3
    endloop
  endfacet
  facet normal 0 0 1
    outer loop
      vertex 2.2 31.87 3
      vertex 16.8 31.87 3
      vertex 2.2 33.87 3
    endloop
  endfacet
  facet normal 0 0 1
    outer loop
      vertex 2.2 31.33 3
      vertex 16.8 31.33 3
      vertex 2.2 31.87 3
    endloop
  endfacet
  facet normal 0 0 1
    outer loop
      vertex 16.8 31.33 3
      vertex 2.2 31.33 3
      vertex 16.8 29.33 3
    endloop
  endfacet
  facet normal 0 0 1
    outer loop
      vertex 16.8 29.33 3
      vertex 2.2 29.33 3
      vertex 16.8 28.79 3
    endloop
  endfacet
  facet normal 0 0 1
    outer loop
      vertex 2.2 28.79 3
      vertex 16.8 28.79 3
      vertex 2.2 29.33 3
    endloop
  endfacet
  facet normal 0 0 1
    outer loop
      vertex 2.2 26.79 3
      vertex 16.8 26.79 3
      vertex 2.2 28.79 3
    endloop
  endfacet
  facet normal 0 0 1
    outer loop
      vertex 16.8 26.79 3
      vertex 2.2 26.79 3
      vertex 16.8 26.25 3
    endloop
  endfacet
  facet normal 0 0 1
    outer loop
      vertex 16.8 26.25 3
      vertex 2.2 26.25 3
      vertex 16.8 24.25 3
    endloop
  endfacet
  facet normal 0 0 1
    outer loop
      vertex 2.2 24.25 3
      vertex 16.8 24.25 3
      vertex 2.2 26.25 3
    endloop
  endfacet
  facet normal 0 0 1
    outer loop
      vertex 2.2 23.71 3
      vertex 16.8 23.71 3
      vertex 2.2 24.25 3
    endloop
  endfacet
  facet normal 0 0 1
    outer loop
      vertex 16.8 23.71 3
      vertex 2.2 23.71 3
      vertex 16.8 21.71 3
    endloop
  endfacet
  facet normal 0 0 1
    outer loop
      vertex 16.8 21.71 3
      vertex 2.2 21.71 3
      vertex 16.8 21.17 3
    endloop
  endfacet
  facet normal 0 0 1
    outer loop
      vertex 2.2 21.17 3
      vertex 16.8 21.17 3
      vertex 2.2 21.71 3
    endloop
  endfacet
  facet normal 0 0 1
    outer loop
      vertex 2.2 19.17 3
      vertex 16.8 19.17 3
      vertex 2.2 21.17 3
    endloop
  endfacet
  facet normal 0 0 1
    outer loop
      vertex 16.8 19.17 3
      vertex 2.2 19.17 3
      vertex 16.8 18.63 3
    endloop
  endfacet
  facet normal 0 0 1
    outer loop
      vertex 16.8 18.63 3
      vertex 2.2 18.63 3
      vertex 16.8 16.63 3
    endloop
  endfacet
  facet normal 0 0 1
    outer loop
      vertex 2.2 16.63 3
      vertex 16.8 16.63 3
      vertex 2.2 18.63 3
    endloop
  endfacet
  facet normal 0 0 1
    outer loop
      vertex 2.2 16.09 3
      vertex 16.8 16.09 3
      vertex 2.2 16.63 3
    endloop
  endfacet
  facet normal 0 0 1
    outer loop
      vertex 16.8 16.09 3
      vertex 2.2 16.09 3
      vertex 16.8 14.09 3
    endloop
  endfacet
  facet normal 0 0 1
    outer loop
      vertex 16.8 14.09 3
      vertex 2.2 14.09 3
      vertex 16.8 13.55 3
    endloop
  endfacet
  facet normal 0 0 1
    outer loop
      vertex 2.2 13.55 3
      vertex 16.8 13.55 3
      vertex 2.2 14.09 3
    endloop
  endfacet
  facet normal 0 0 1
    outer loop
      vertex 2.2 11.55 3
      vertex 16.8 11.55 3
      vertex 2.2 13.55 3
    endloop
  endfacet
  facet normal 0 0 1
    outer loop
      vertex 16.8 11.55 3
      vertex 2.2 11.55 3
      vertex 16.8 11.01 3
    endloop
  endfacet
  facet normal 0 0 1
    outer loop
      vertex 2.2 34.41 3
      vertex 16.8 36.41 3
      vertex 2.2 36.41 3
    endloop
  endfacet
  facet normal 0 0 1
    outer loop
      vertex 17.2 37.9 3
      vertex 2.2 36.41 3
      vertex 16.8 36.41 3
    endloop
  endfacet
  facet normal -0 0 1
    outer loop
      vertex 1.8 37.9 3
      vertex 2.2 36.41 3
      vertex 17.2 37.9 3
    endloop
  endfacet
  facet normal -0 0 1
    outer loop
      vertex 1.8 37.4 3
      vertex 2.2 36.41 3
      vertex 1.8 37.9 3
    endloop
  endfacet
  facet normal 0 0 1
    outer loop
      vertex 1.2 36.41 3
      vertex 1.8 37.4 3
      vertex 1.2 37.4 3
    endloop
  endfacet
  facet normal 0 0 1
    outer loop
      vertex 1.8 37.4 3
      vertex 1.2 36.41 3
      vertex 2.2 36.41 3
    endloop
  endfacet
  facet normal -0 0 1
    outer loop
      vertex 17.2 37.4 3
      vertex 17.8 36.41 3
      vertex 17.8 37.4 3
    endloop
  endfacet
  facet normal 0 0 1
    outer loop
      vertex 17.8 36.41 3
      vertex 17.2 37.4 3
      vertex 16.8 36.41 3
    endloop
  endfacet
  facet normal -0 0 1
    outer loop
      vertex 16.8 34.41 3
      vertex 17.8 33.87 3
      vertex 17.8 34.41 3
    endloop
  endfacet
  facet normal 0 0 1
    outer loop
      vertex 17.8 33.87 3
      vertex 16.8 34.41 3
      vertex 16.8 33.87 3
    endloop
  endfacet
  facet normal -0 0 1
    outer loop
      vertex 16.8 31.87 3
      vertex 17.8 31.33 3
      vertex 17.8 31.87 3
    endloop
  endfacet
  facet normal 0 0 1
    outer loop
      vertex 17.8 31.33 3
      vertex 16.8 31.87 3
      vertex 16.8 31.33 3
    endloop
  endfacet
  facet normal -0 0 1
    outer loop
      vertex 16.8 29.33 3
      vertex 17.8 28.79 3
      vertex 17.8 29.33 3
    endloop
  endfacet
  facet normal 0 0 1
    outer loop
      vertex 17.8 28.79 3
      vertex 16.8 29.33 3
      vertex 16.8 28.79 3
    endloop
  endfacet
  facet normal -0 0 1
    outer loop
      vertex 16.8 26.79 3
      vertex 17.8 26.25 3
      vertex 17.8 26.79 3
    endloop
  endfacet
  facet normal 0 0 1
    outer loop
      vertex 17.8 26.25 3
      vertex 16.8 26.79 3
      vertex 16.8 26.25 3
    endloop
  endfacet
  facet normal -0 0 1
    outer loop
      vertex 16.8 24.25 3
      vertex 17.8 23.71 3
      vertex 17.8 24.25 3
    endloop
  endfacet
  facet normal 0 0 1
    outer loop
      vertex 17.8 23.71 3
      vertex 16.8 24.25 3
      vertex 16.8 23.71 3
    endloop
  endfacet
  facet normal -0 0 1
    outer loop
      vertex 16.8 21.71 3
      vertex 17.8 21.17 3
      vertex 17.8 21.71 3
    endloop
  endfacet
  facet normal 0 0 1
    outer loop
      vertex 17.8 21.17 3
      vertex 16.8 21.71 3
      vertex 16.8 21.17 3
    endloop
  endfacet
  facet normal -0 0 1
    outer loop
      vertex 16.8 19.17 3
      vertex 17.8 18.63 3
      vertex 17.8 19.17 3
    endloop
  endfacet
  facet normal 0 0 1
    outer loop
      vertex 17.8 18.63 3
      vertex 16.8 19.17 3
      vertex 16.8 18.63 3
    endloop
  endfacet
  facet normal -0 0 1
    outer loop
      vertex 16.8 16.63 3
      vertex 17.8 16.09 3
      vertex 17.8 16.63 3
    endloop
  endfacet
  facet normal 0 0 1
    outer loop
      vertex 17.8 16.09 3
      vertex 16.8 16.63 3
      vertex 16.8 16.09 3
    endloop
  endfacet
  facet normal -0 0 1
    outer loop
      vertex 16.8 14.09 3
      vertex 17.8 13.55 3
      vertex 17.8 14.09 3
    endloop
  endfacet
  facet normal 0 0 1
    outer loop
      vertex 17.8 13.55 3
      vertex 16.8 14.09 3
      vertex 16.8 13.55 3
    endloop
  endfacet
  facet normal -0 0 1
    outer loop
      vertex 16.8 11.55 3
      vertex 17.8 11.01 3
      vertex 17.8 11.55 3
    endloop
  endfacet
  facet normal 0 0 1
    outer loop
      vertex 17.8 11.01 3
      vertex 16.8 11.55 3
      vertex 16.8 11.01 3
    endloop
  endfacet
  facet normal -0 0 1
    outer loop
      vertex 16.8 9.01 3
      vertex 17.8 8.47 3
      vertex 17.8 9.01 3
    endloop
  endfacet
  facet normal 0 0 1
    outer loop
      vertex 17.8 8.47 3
      vertex 16.8 9.01 3
      vertex 16.8 8.47 3
    endloop
  endfacet
  facet normal -0 0 1
    outer loop
      vertex 16.8 6.47 3
      vertex 17.8 5.93 3
      vertex 17.8 6.47 3
    endloop
  endfacet
  facet normal 0 0 1
    outer loop
      vertex 17.8 5.93 3
      vertex 16.8 6.47 3
      vertex 16.8 5.93 3
    endloop
  endfacet
  facet normal -0 0 1
    outer loop
      vertex 16.8 3.93 3
      vertex 17.8 3.39 3
      vertex 17.8 3.93 3
    endloop
  endfacet
  facet normal 0 0 1
    outer loop
      vertex 17.8 3.39 3
      vertex 16.8 3.93 3
      vertex 16.8 3.39 3
    endloop
  endfacet
  facet normal 0 0 1
    outer loop
      vertex 17.8 1.39 3
      vertex 17.2 0.5 3
      vertex 17.8 0.5 3
    endloop
  endfacet
  facet normal -0 0 1
    outer loop
      vertex 16.8 1.39 3
      vertex 17.2 0.5 3
      vertex 17.8 1.39 3
    endloop
  endfacet
  facet normal 0 0 1
    outer loop
      vertex 16.8 1.39 3
      vertex 17.2 0 3
      vertex 17.2 0.5 3
    endloop
  endfacet
  facet normal 0 0 1
    outer loop
      vertex 16.8 33.87 3
      vertex 2.2 34.41 3
      vertex 2.2 33.87 3
    endloop
  endfacet
  facet normal 0 0 1
    outer loop
      vertex 16.8 31.87 3
      vertex 2.2 31.87 3
      vertex 16.8 31.33 3
    endloop
  endfacet
  facet normal 0 0 1
    outer loop
      vertex 2.2 29.33 3
      vertex 16.8 29.33 3
      vertex 2.2 31.33 3
    endloop
  endfacet
  facet normal 0 0 1
    outer loop
      vertex 16.8 28.79 3
      vertex 2.2 28.79 3
      vertex 16.8 26.79 3
    endloop
  endfacet
  facet normal 0 0 1
    outer loop
      vertex 2.2 26.25 3
      vertex 16.8 26.25 3
      vertex 2.2 26.79 3
    endloop
  endfacet
  facet normal 0 0 1
    outer loop
      vertex 16.8 24.25 3
      vertex 2.2 24.25 3
      vertex 16.8 23.71 3
    endloop
  endfacet
  facet normal 0 0 1
    outer loop
      vertex 2.2 21.71 3
      vertex 16.8 21.71 3
      vertex 2.2 23.71 3
    endloop
  endfacet
  facet normal 0 0 1
    outer loop
      vertex 16.8 21.17 3
      vertex 2.2 21.17 3
      vertex 16.8 19.17 3
    endloop
  endfacet
  facet normal 0 0 1
    outer loop
      vertex 2.2 18.63 3
      vertex 16.8 18.63 3
      vertex 2.2 19.17 3
    endloop
  endfacet
  facet normal 0 0 1
    outer loop
      vertex 16.8 16.63 3
      vertex 2.2 16.63 3
      vertex 16.8 16.09 3
    endloop
  endfacet
  facet normal 0 0 1
    outer loop
      vertex 2.2 14.09 3
      vertex 16.8 14.09 3
      vertex 2.2 16.09 3
    endloop
  endfacet
  facet normal 0 0 1
    outer loop
      vertex 16.8 13.55 3
      vertex 2.2 13.55 3
      vertex 16.8 11.55 3
    endloop
  endfacet
  facet normal 0 0 1
    outer loop
      vertex 2.2 11.01 3
      vertex 16.8 11.01 3
      vertex 2.2 11.55 3
    endloop
  endfacet
  facet normal 0 0 1
    outer loop
      vertex 16.8 11.01 3
      vertex 2.2 11.01 3
      vertex 16.8 9.01 3
    endloop
  endfacet
  facet normal 0 0 1
    outer loop
      vertex 2.2 9.01 3
      vertex 16.8 9.01 3
      vertex 2.2 11.01 3
    endloop
  endfacet
  facet normal 0 0 1
    outer loop
      vertex 16.8 9.01 3
      vertex 2.2 9.01 3
      vertex 16.8 8.47 3
    endloop
  endfacet
  facet normal 0 0 1
    outer loop
      vertex 2.2 8.47 3
      vertex 16.8 8.47 3
      vertex 2.2 9.01 3
    endloop
  endfacet
  facet normal 0 0 1
    outer loop
      vertex 16.8 8.47 3
      vertex 2.2 8.47 3
      vertex 16.8 6.47 3
    endloop
  endfacet
  facet normal 0 0 1
    outer loop
      vertex 2.2 6.47 3
      vertex 16.8 6.47 3
      vertex 2.2 8.47 3
    endloop
  endfacet
  facet normal 0 0 1
    outer loop
      vertex 16.8 6.47 3
      vertex 2.2 6.47 3
      vertex 16.8 5.93 3
    endloop
  endfacet
  facet normal 0 0 1
    outer loop
      vertex 2.2 5.93 3
      vertex 16.8 5.93 3
      vertex 2.2 6.47 3
    endloop
  endfacet
  facet normal 0 0 1
    outer loop
      vertex 16.8 5.93 3
      vertex 2.2 5.93 3
      vertex 16.8 3.93 3
    endloop
  endfacet
  facet normal 0 0 1
    outer loop
      vertex 2.2 3.93 3
      vertex 16.8 3.93 3
      vertex 2.2 5.93 3
    endloop
  endfacet
  facet normal 0 0 1
    outer loop
      vertex 16.8 3.93 3
      vertex 2.2 3.93 3
      vertex 16.8 3.39 3
    endloop
  endfacet
  facet normal 0 0 1
    outer loop
      vertex 2.2 3.39 3
      vertex 16.8 3.39 3
      vertex 2.2 3.93 3
    endloop
  endfacet
  facet normal 0 0 1
    outer loop
      vertex 16.8 3.39 3
      vertex 2.2 3.39 3
      vertex 16.8 1.39 3
    endloop
  endfacet
  facet normal 0 0 1
    outer loop
      vertex 2.2 1.39 3
      vertex 16.8 1.39 3
      vertex 2.2 3.39 3
    endloop
  endfacet
  facet normal 0 0 1
    outer loop
      vertex 16.8 1.39 3
      vertex 2.2 1.39 3
      vertex 17.2 0 3
    endloop
  endfacet
  facet normal 0 0 1
    outer loop
      vertex 1.8 0 3
      vertex 2.2 1.39 3
      vertex 1.8 0.5 3
    endloop
  endfacet
  facet normal 0 0 1
    outer loop
      vertex 2.2 1.39 3
      vertex 1.8 0 3
      vertex 17.2 0 3
    endloop
  endfacet
  facet normal 1 -0 0
    outer loop
      vertex 17.8 0.5 3
      vertex 17.8 1.39 0
      vertex 17.8 1.39 3
    endloop
  endfacet
  facet normal 1 0 0
    outer loop
      vertex 17.8 1.39 0
      vertex 17.8 0.5 3
      vertex 17.8 0.5 0
    endloop
  endfacet
  facet normal 1 -0 0
    outer loop
      vertex 17.8 36.41 3
      vertex 17.8 37.4 0
      vertex 17.8 37.4 3
    endloop
  endfacet
  facet normal 1 0 0
    outer loop
      vertex 17.8 37.4 0
      vertex 17.8 36.41 3
      vertex 17.8 36.41 0
    endloop
  endfacet
  facet normal 1 -0 0
    outer loop
      vertex 17.8 3.39 3
      vertex 17.8 3.93 0
      vertex 17.8 3.93 3
    endloop
  endfacet
  facet normal 1 0 0
    outer loop
      vertex 17.8 3.93 0
      vertex 17.8 3.39 3
      vertex 17.8 3.39 0
    endloop
  endfacet
  facet normal 1 -0 0
    outer loop
      vertex 17.8 5.93 3
      vertex 17.8 6.47 0
      vertex 17.8 6.47 3
    endloop
  endfacet
  facet normal 1 0 0
    outer loop
      vertex 17.8 6.47 0
      vertex 17.8 5.93 3
      vertex 17.8 5.93 0
    endloop
  endfacet
  facet normal 1 -0 0
    outer loop
      vertex 17.8 8.47 3
      vertex 17.8 9.01 0
      vertex 17.8 9.01 3
    endloop
  endfacet
  facet normal 1 0 0
    outer loop
      vertex 17.8 9.01 0
      vertex 17.8 8.47 3
      vertex 17.8 8.47 0
    endloop
  endfacet
  facet normal 1 -0 0
    outer loop
      vertex 17.8 11.01 3
      vertex 17.8 11.55 0
      vertex 17.8 11.55 3
    endloop
  endfacet
  facet normal 1 0 0
    outer loop
      vertex 17.8 11.55 0
      vertex 17.8 11.01 3
      vertex 17.8 11.01 0
    endloop
  endfacet
  facet normal 1 -0 0
    outer loop
      vertex 17.8 13.55 3
      vertex 17.8 14.09 0
      vertex 17.8 14.09 3
    endloop
  endfacet
  facet normal 1 0 0
    outer loop
      vertex 17.8 14.09 0
      vertex 17.8 13.55 3
      vertex 17.8 13.55 0
    endloop
  endfacet
  facet normal 1 -0 0
    outer loop
      vertex 17.8 16.09 3
      vertex 17.8 16.63 0
      vertex 17.8 16.63 3
    endloop
  endfacet
  facet normal 1 0 0
    outer loop
      vertex 17.8 16.63 0
      vertex 17.8 16.09 3
      vertex 17.8 16.09 0
    endloop
  endfacet
  facet normal 1 -0 0
    outer loop
      vertex 17.8 18.63 3
      vertex 17.8 19.17 0
      vertex 17.8 19.17 3
    endloop
  endfacet
  facet normal 1 0 0
    outer loop
      vertex 17.8 19.17 0
      vertex 17.8 18.63 3
      vertex 17.8 18.63 0
    endloop
  endfacet
  facet normal 1 -0 0
    outer loop
      vertex 17.8 21.17 3
      vertex 17.8 21.71 0
      vertex 17.8 21.71 3
    endloop
  endfacet
  facet normal 1 0 0
    outer loop
      vertex 17.8 21.71 0
      vertex 17.8 21.17 3
      vertex 17.8 21.17 0
    endloop
  endfacet
  facet normal 1 -0 0
    outer loop
      vertex 17.8 23.71 3
      vertex 17.8 24.25 0
      vertex 17.8 24.25 3
    endloop
  endfacet
  facet normal 1 0 0
    outer loop
      vertex 17.8 24.25 0
      vertex 17.8 23.71 3
      vertex 17.8 23.71 0
    endloop
  endfacet
  facet normal 1 -0 0
    outer loop
      vertex 17.8 26.25 3
      vertex 17.8 26.79 0
      vertex 17.8 26.79 3
    endloop
  endfacet
  facet normal 1 0 0
    outer loop
      vertex 17.8 26.79 0
      vertex 17.8 26.25 3
      vertex 17.8 26.25 0
    endloop
  endfacet
  facet normal 1 -0 0
    outer loop
      vertex 17.8 28.79 3
      vertex 17.8 29.33 0
      vertex 17.8 29.33 3
    endloop
  endfacet
  facet normal 1 0 0
    outer loop
      vertex 17.8 29.33 0
      vertex 17.8 28.79 3
      vertex 17.8 28.79 0
    endloop
  endfacet
  facet normal 1 -0 0
    outer loop
      vertex 17.8 31.33 3
      vertex 17.8 31.87 0
      vertex 17.8 31.87 3
    endloop
  endfacet
  facet normal 1 0 0
    outer loop
      vertex 17.8 31.87 0
      vertex 17.8 31.33 3
      vertex 17.8 31.33 0
    endloop
  endfacet
  facet normal 1 -0 0
    outer loop
      vertex 17.8 33.87 3
      vertex 17.8 34.41 0
      vertex 17.8 34.41 3
    endloop
  endfacet
  facet normal 1 0 0
    outer loop
      vertex 17.8 34.41 0
      vertex 17.8 33.87 3
      vertex 17.8 33.87 0
    endloop
  endfacet
  facet normal 0 1 -0
    outer loop
      vertex 17.2 37.9 0
      vertex 1.8 37.9 3
      vertex 17.2 37.9 3
    endloop
  endfacet
  facet normal 0 1 0
    outer loop
      vertex 1.8 37.9 3
      vertex 17.2 37.9 0
      vertex 1.8 37.9 0
    endloop
  endfacet
  facet normal 1 -0 0
    outer loop
      vertex 19 37.4 8
      vertex 19 38.9 0
      vertex 19 38.9 8
    endloop
  endfacet
  facet normal 1 0 0
    outer loop
      vertex 19 38.9 0
      vertex 19 37.4 8
      vertex 19 37.4 0
    endloop
  endfacet
  facet normal 0 0 1
    outer loop
      vertex 14 42.9 8
      vertex 5 42.9 8
      vertex 14 38.9 8
    endloop
  endfacet
  facet normal 0 0 1
    outer loop
      vertex 19 38.9 8
      vertex 17.2 37.9 8
      vertex 19 37.4 8
    endloop
  endfacet
  facet normal -0 0 1
    outer loop
      vertex 14 38.9 8
      vertex 17.2 37.9 8
      vertex 19 38.9 8
    endloop
  endfacet
  facet normal 0 0 1
    outer loop
      vertex 5 38.9 8
      vertex 14 38.9 8
      vertex 5 42.9 8
    endloop
  endfacet
  facet normal -0 0 1
    outer loop
      vertex 5 38.9 8
      vertex 17.2 37.9 8
      vertex 14 38.9 8
    endloop
  endfacet
  facet normal 0 0 1
    outer loop
      vertex 5 38.9 8
      vertex 1.8 37.9 8
      vertex 17.2 37.9 8
    endloop
  endfacet
  facet normal -0 0 1
    outer loop
      vertex 0 38.9 8
      vertex 1.8 37.9 8
      vertex 5 38.9 8
    endloop
  endfacet
  facet normal 0 0 1
    outer loop
      vertex -1.83697e-16 37.4 8
      vertex 1.8 37.9 8
      vertex 0 38.9 8
    endloop
  endfacet
  facet normal 0 0 1
    outer loop
      vertex 1.8 37.9 8
      vertex -1.83697e-16 37.4 8
      vertex 1.8 37.4 8
    endloop
  endfacet
  facet normal 0 0 1
    outer loop
      vertex 19 37.4 8
      vertex 17.2 37.9 8
      vertex 17.2 37.4 8
    endloop
  endfacet
  facet normal -1 1.22465e-16 0
    outer loop
      vertex -1.83697e-16 37.4 0
      vertex 0 38.9 8
      vertex 0 38.9 0
    endloop
  endfacet
  facet normal -1 1.22465e-16 0
    outer loop
      vertex 0 38.9 8
      vertex -1.83697e-16 37.4 0
      vertex -1.83697e-16 37.4 8
    endloop
  endfacet
  facet normal 0 -1 0
    outer loop
      vertex 1.8 37.9 0
      vertex 17.2 37.9 8
      vertex 1.8 37.9 8
    endloop
  endfacet
  facet normal 0 -1 -0
    outer loop
      vertex 17.2 37.9 8
      vertex 1.8 37.9 0
      vertex 17.2 37.9 0
    endloop
  endfacet
  facet normal 0 1 0
    outer loop
      vertex 19 38.9 8
      vertex 14 38.9 3
      vertex 14 38.9 8
    endloop
  endfacet
  facet normal 0 1 0
    outer loop
      vertex 19 38.9 0
      vertex 12.5 38.9 3
      vertex 14 38.9 3
    endloop
  endfacet
  facet normal 0 1 0
    outer loop
      vertex 12.5 38.9 3
      vertex 19 38.9 0
      vertex 6.5 38.9 3
    endloop
  endfacet
  facet normal 0 1 0
    outer loop
      vertex 0 38.9 0
      vertex 6.5 38.9 3
      vertex 19 38.9 0
    endloop
  endfacet
  facet normal 0 1 -0
    outer loop
      vertex 19 38.9 0
      vertex 14 38.9 3
      vertex 19 38.9 8
    endloop
  endfacet
  facet normal 0 1 -0
    outer loop
      vertex 12.5 38.9 3
      vertex 6.5 38.9 7
      vertex 12.5 38.9 7
    endloop
  endfacet
  facet normal 0 1 0
    outer loop
      vertex 6.5 38.9 7
      vertex 12.5 38.9 3
      vertex 6.5 38.9 3
    endloop
  endfacet
  facet normal 0 1 -0
    outer loop
      vertex 5 38.9 3
      vertex 0 38.9 8
      vertex 5 38.9 8
    endloop
  endfacet
  facet normal 0 1 0
    outer loop
      vertex 5 38.9 3
      vertex 0 38.9 0
      vertex 0 38.9 8
    endloop
  endfacet
  facet normal 0 1 0
    outer loop
      vertex 6.5 38.9 3
      vertex 0 38.9 0
      vertex 5 38.9 3
    endloop
  endfacet
  facet normal -1 0 0
    outer loop
      vertex 17.2 37.4 3
      vertex 17.2 37.9 8
      vertex 17.2 37.9 3
    endloop
  endfacet
  facet normal -1 -0 0
    outer loop
      vertex 17.2 37.9 8
      vertex 17.2 37.4 3
      vertex 17.2 37.4 8
    endloop
  endfacet
  facet normal -0 0 0
    outer loop
      vertex 17.2 37.9 3
      vertex 17.2 37.9 8
      vertex 17.2 37.9 0
    endloop
  endfacet
  facet normal 0 -1 0
    outer loop
      vertex 17.8 37.4 3
      vertex 17.2 37.4 8
      vertex 17.2 37.4 3
    endloop
  endfacet
  facet normal 0 -1 0
    outer loop
      vertex 17.2 37.4 8
      vertex 17.8 37.4 3
      vertex 19 37.4 8
    endloop
  endfacet
  facet normal 0 -1 0
    outer loop
      vertex 19 37.4 0
      vertex 17.8 37.4 3
      vertex 17.8 37.4 0
    endloop
  endfacet
  facet normal 0 -1 0
    outer loop
      vertex 17.8 37.4 3
      vertex 19 37.4 0
      vertex 19 37.4 8
    endloop
  endfacet
  facet normal 1 -0 0
    outer loop
      vertex 1.8 37.4 8
      vertex 1.8 37.9 3
      vertex 1.8 37.9 8
    endloop
  endfacet
  facet normal 1 0 0
    outer loop
      vertex 1.8 37.9 3
      vertex 1.8 37.4 8
      vertex 1.8 37.4 3
    endloop
  endfacet
  facet normal 0 0 0
    outer loop
      vertex 1.8 37.9 8
      vertex 1.8 37.9 3
      vertex 1.8 37.9 0
    endloop
  endfacet
  facet normal 0 -1 0
    outer loop
      vertex -1.83697e-16 37.4 8
      vertex 1.2 37.4 3
      vertex 1.8 37.4 8
    endloop
  endfacet
  facet normal 0 -1 0
    outer loop
      vertex -1.83697e-16 37.4 0
      vertex 1.2 37.4 3
      vertex -1.83697e-16 37.4 8
    endloop
  endfacet
  facet normal 0 -1 -0
    outer loop
      vertex 1.2 37.4 3
      vertex -1.83697e-16 37.4 0
      vertex 1.2 37.4 0
    endloop
  endfacet
  facet normal 0 -1 -0
    outer loop
      vertex 1.8 37.4 8
      vertex 1.2 37.4 3
      vertex 1.8 37.4 3
    endloop
  endfacet
  facet normal 1 0 0
    outer loop
      vertex 14 42.9 8
      vertex 14 40.9 7
      vertex 14 42.9 7
    endloop
  endfacet
  facet normal 1 -0 0
    outer loop
      vertex 14 38.9 8
      vertex 14 40.9 7
      vertex 14 42.9 8
    endloop
  endfacet
  facet normal 1 0 0
    outer loop
      vertex 14 38.9 3
      vertex 14 40.9 7
      vertex 14 38.9 8
    endloop
  endfacet
  facet normal 1 0 0
    outer loop
      vertex 14 40.9 7
      vertex 14 38.9 3
      vertex 14 40.9 3
    endloop
  endfacet
  facet normal -1 0 0
    outer loop
      vertex 5 40.9 3
      vertex 5 38.9 3
      vertex 5 40.9 7
    endloop
  endfacet
  facet normal -1 0 0
    outer loop
      vertex 5 40.9 7
      vertex 5 42.9 8
      vertex 5 42.9 7
    endloop
  endfacet
  facet normal -1 0 0
    outer loop
      vertex 5 40.9 7
      vertex 5 38.9 8
      vertex 5 42.9 8
    endloop
  endfacet
  facet normal -1 0 0
    outer loop
      vertex 5 38.9 8
      vertex 5 40.9 7
      vertex 5 38.9 3
    endloop
  endfacet
  facet normal 0 0 -1
    outer loop
      vertex 12.5 38.9 7
      vertex 6.5 38.9 7
      vertex 12.5 40.9 7
    endloop
  endfacet
  facet normal 0 0 -1
    outer loop
      vertex 12.5 40.9 7
      vertex 14 42.9 7
      vertex 14 40.9 7
    endloop
  endfacet
  facet normal 0 0 -1
    outer loop
      vertex 6.5 40.9 7
      vertex 12.5 40.9 7
      vertex 6.5 38.9 7
    endloop
  endfacet
  facet normal 0 0 -1
    outer loop
      vertex 12.5 40.9 7
      vertex 6.5 40.9 7
      vertex 14 42.9 7
    endloop
  endfacet
  facet normal 0 0 -1
    outer loop
      vertex 5 42.9 7
      vertex 6.5 40.9 7
      vertex 5 40.9 7
    endloop
  endfacet
  facet normal 0 0 -1
    outer loop
      vertex 6.5 40.9 7
      vertex 5 42.9 7
      vertex 14 42.9 7
    endloop
  endfacet
  facet normal 0 1 -0
    outer loop
      vertex 14 42.9 7
      vertex 5 42.9 8
      vertex 14 42.9 8
    endloop
  endfacet
  facet normal 0 1 0
    outer loop
      vertex 5 42.9 8
      vertex 14 42.9 7
      vertex 5 42.9 7
    endloop
  endfacet
  facet normal -1 0 0
    outer loop
      vertex 12.5 38.9 3
      vertex 12.5 40.9 7
      vertex 12.5 40.9 3
    endloop
  endfacet
  facet normal -1 -0 0
    outer loop
      vertex 12.5 40.9 7
      vertex 12.5 38.9 3
      vertex 12.5 38.9 7
    endloop
  endfacet
  facet normal 0 0 -1
    outer loop
      vertex 12.5 38.9 3
      vertex 14 40.9 3
      vertex 14 38.9 3
    endloop
  endfacet
  facet normal -0 0 -1
    outer loop
      vertex 14 40.9 3
      vertex 12.5 38.9 3
      vertex 12.5 40.9 3
    endloop
  endfacet
  facet normal 0 1 -0
    outer loop
      vertex 14 40.9 3
      vertex 12.5 40.9 7
      vertex 14 40.9 7
    endloop
  endfacet
  facet normal 0 1 0
    outer loop
      vertex 12.5 40.9 7
      vertex 14 40.9 3
      vertex 12.5 40.9 3
    endloop
  endfacet
  facet normal 1 -0 0
    outer loop
      vertex 6.5 38.9 7
      vertex 6.5 40.9 3
      vertex 6.5 40.9 7
    endloop
  endfacet
  facet normal 1 0 0
    outer loop
      vertex 6.5 40.9 3
      vertex 6.5 38.9 7
      vertex 6.5 38.9 3
    endloop
  endfacet
  facet normal 0 0 -1
    outer loop
      vertex 5 38.9 3
      vertex 6.5 40.9 3
      vertex 6.5 38.9 3
    endloop
  endfacet
  facet normal -0 0 -1
    outer loop
      vertex 6.5 40.9 3
      vertex 5 38.9 3
      vertex 5 40.9 3
    endloop
  endfacet
  facet normal 0 1 -0
    outer loop
      vertex 6.5 40.9 3
      vertex 5 40.9 7
      vertex 6.5 40.9 7
    endloop
  endfacet
  facet normal 0 1 0
    outer loop
      vertex 5 40.9 7
      vertex 6.5 40.9 3
      vertex 5 40.9 3
    endloop
  endfacet
endsolid OpenSCAD_Model
