solid OpenSCAD_Model
  facet normal -1 0 0
    outer loop
      vertex 0 -1 0
      vertex 0 0 7.8
      vertex 0 0 0
    endloop
  endfacet
  facet normal -1 -0 0
    outer loop
      vertex 0 0 7.8
      vertex 0 -1 0
      vertex 0 -1 7.8
    endloop
  endfacet
  facet normal 0 0 1
    outer loop
      vertex 1.8 0.5 7.8
      vertex 0.9 0.5 7.8
      vertex 1.8 0 7.8
    endloop
  endfacet
  facet normal 0 0 1
    outer loop
      vertex 18.1 0.5 7.8
      vertex 19 -1 7.8
      vertex 19 0 7.8
    endloop
  endfacet
  facet normal 0 0 1
    outer loop
      vertex 17.2 0 7.8
      vertex 18.1 0.5 7.8
      vertex 17.2 0.5 7.8
    endloop
  endfacet
  facet normal 0 0 1
    outer loop
      vertex 18.1 0.5 7.8
      vertex 17.2 0 7.8
      vertex 19 -1 7.8
    endloop
  endfacet
  facet normal 0 0 1
    outer loop
      vertex 17.2 0 7.8
      vertex 14 -1 7.8
      vertex 19 -1 7.8
    endloop
  endfacet
  facet normal 0 0 1
    outer loop
      vertex 14 -1 7.8
      vertex 5 -1 7.8
      vertex 14 -5 7.8
    endloop
  endfacet
  facet normal 0 0 1
    outer loop
      vertex 17.2 0 7.8
      vertex 5 -1 7.8
      vertex 14 -1 7.8
    endloop
  endfacet
  facet normal -0 0 1
    outer loop
      vertex 1.8 0 7.8
      vertex 5 -1 7.8
      vertex 17.2 0 7.8
    endloop
  endfacet
  facet normal 0 0 1
    outer loop
      vertex 0 -1 7.8
      vertex 0.9 0.5 7.8
      vertex 0 0 7.8
    endloop
  endfacet
  facet normal 0 0 1
    outer loop
      vertex 0.9 0.5 7.8
      vertex 0 -1 7.8
      vertex 1.8 0 7.8
    endloop
  endfacet
  facet normal 0 0 1
    outer loop
      vertex 1.8 0 7.8
      vertex 0 -1 7.8
      vertex 5 -1 7.8
    endloop
  endfacet
  facet normal 0 0 1
    outer loop
      vertex 14 -5 7.8
      vertex 5 -1 7.8
      vertex 5 -5 7.8
    endloop
  endfacet
  facet normal 1 -0 0
    outer loop
      vertex 19 -1 7.8
      vertex 19 0 0
      vertex 19 0 7.8
    endloop
  endfacet
  facet normal 1 0 0
    outer loop
      vertex 19 0 0
      vertex 19 -1 7.8
      vertex 19 -1 0
    endloop
  endfacet
  facet normal 0 1 -0
    outer loop
      vertex 17.2 0 3
      vertex 1.8 0 7.8
      vertex 17.2 0 7.8
    endloop
  endfacet
  facet normal 0 1 0
    outer loop
      vertex 1.8 0 7.8
      vertex 17.2 0 3
      vertex 1.8 0 3
    endloop
  endfacet
  facet normal 0 0 -1
    outer loop
      vertex 1.5 33.57 0
      vertex 2 34.11 0
      vertex 2 33.57 0
    endloop
  endfacet
  facet normal -0 0 -1
    outer loop
      vertex 2 34.11 0
      vertex 1.5 33.57 0
      vertex 1.5 34.11 0
    endloop
  endfacet
  facet normal 0 0 -1
    outer loop
      vertex 1.5 31.03 0
      vertex 2 31.57 0
      vertex 2 31.03 0
    endloop
  endfacet
  facet normal -0 0 -1
    outer loop
      vertex 2 31.57 0
      vertex 1.5 31.03 0
      vertex 1.5 31.57 0
    endloop
  endfacet
  facet normal 0 0 -1
    outer loop
      vertex 1.5 28.49 0
      vertex 2 29.03 0
      vertex 2 28.49 0
    endloop
  endfacet
  facet normal -0 0 -1
    outer loop
      vertex 2 29.03 0
      vertex 1.5 28.49 0
      vertex 1.5 29.03 0
    endloop
  endfacet
  facet normal 0 0 -1
    outer loop
      vertex 1.5 25.95 0
      vertex 2 26.49 0
      vertex 2 25.95 0
    endloop
  endfacet
  facet normal -0 0 -1
    outer loop
      vertex 2 26.49 0
      vertex 1.5 25.95 0
      vertex 1.5 26.49 0
    endloop
  endfacet
  facet normal 0 0 -1
    outer loop
      vertex 1.5 23.41 0
      vertex 2 23.95 0
      vertex 2 23.41 0
    endloop
  endfacet
  facet normal -0 0 -1
    outer loop
      vertex 2 23.95 0
      vertex 1.5 23.41 0
      vertex 1.5 23.95 0
    endloop
  endfacet
  facet normal 0 0 -1
    outer loop
      vertex 1.5 20.87 0
      vertex 2 21.41 0
      vertex 2 20.87 0
    endloop
  endfacet
  facet normal -0 0 -1
    outer loop
      vertex 2 21.41 0
      vertex 1.5 20.87 0
      vertex 1.5 21.41 0
    endloop
  endfacet
  facet normal 0 0 -1
    outer loop
      vertex 1.5 18.33 0
      vertex 2 18.87 0
      vertex 2 18.33 0
    endloop
  endfacet
  facet normal -0 0 -1
    outer loop
      vertex 2 18.87 0
      vertex 1.5 18.33 0
      vertex 1.5 18.87 0
    endloop
  endfacet
  facet normal 0 0 -1
    outer loop
      vertex 1.5 15.79 0
      vertex 2 16.33 0
      vertex 2 15.79 0
    endloop
  endfacet
  facet normal -0 0 -1
    outer loop
      vertex 2 16.33 0
      vertex 1.5 15.79 0
      vertex 1.5 16.33 0
    endloop
  endfacet
  facet normal 0 0 -1
    outer loop
      vertex 1.5 13.25 0
      vertex 2 13.79 0
      vertex 2 13.25 0
    endloop
  endfacet
  facet normal -0 0 -1
    outer loop
      vertex 2 13.79 0
      vertex 1.5 13.25 0
      vertex 1.5 13.79 0
    endloop
  endfacet
  facet normal 0 0 -1
    outer loop
      vertex 1.5 10.71 0
      vertex 2 11.25 0
      vertex 2 10.71 0
    endloop
  endfacet
  facet normal -0 0 -1
    outer loop
      vertex 2 11.25 0
      vertex 1.5 10.71 0
      vertex 1.5 11.25 0
    endloop
  endfacet
  facet normal 0 0 -1
    outer loop
      vertex 1.5 8.17 0
      vertex 2 8.71 0
      vertex 2 8.17 0
    endloop
  endfacet
  facet normal -0 0 -1
    outer loop
      vertex 2 8.71 0
      vertex 1.5 8.17 0
      vertex 1.5 8.71 0
    endloop
  endfacet
  facet normal 0 0 -1
    outer loop
      vertex 1.5 5.63 0
      vertex 2 6.17 0
      vertex 2 5.63 0
    endloop
  endfacet
  facet normal -0 0 -1
    outer loop
      vertex 2 6.17 0
      vertex 1.5 5.63 0
      vertex 1.5 6.17 0
    endloop
  endfacet
  facet normal 0 0 -1
    outer loop
      vertex 1.5 3.09 0
      vertex 2 3.63 0
      vertex 2 3.09 0
    endloop
  endfacet
  facet normal -0 0 -1
    outer loop
      vertex 2 3.63 0
      vertex 1.5 3.09 0
      vertex 1.5 3.63 0
    endloop
  endfacet
  facet normal 0 0 -1
    outer loop
      vertex 19 -1 0
      vertex 18.1 0.5 0
      vertex 19 0 0
    endloop
  endfacet
  facet normal 0 0 -1
    outer loop
      vertex 19 -1 0
      vertex 17.5 0.5 0
      vertex 18.1 0.5 0
    endloop
  endfacet
  facet normal 0 0 -1
    outer loop
      vertex 17.5 0.5 0
      vertex 17 1.09 0
      vertex 17.5 1.09 0
    endloop
  endfacet
  facet normal 0 0 -1
    outer loop
      vertex 2 3.09 0
      vertex 17 3.09 0
      vertex 17 1.09 0
    endloop
  endfacet
  facet normal 0 0 -1
    outer loop
      vertex 17 3.09 0
      vertex 2 3.09 0
      vertex 17 3.63 0
    endloop
  endfacet
  facet normal 0 0 -1
    outer loop
      vertex 17 3.63 0
      vertex 2 3.63 0
      vertex 17 5.63 0
    endloop
  endfacet
  facet normal 0 0 -1
    outer loop
      vertex 2 5.63 0
      vertex 17 5.63 0
      vertex 2 3.63 0
    endloop
  endfacet
  facet normal 0 0 -1
    outer loop
      vertex 2 6.17 0
      vertex 17 6.17 0
      vertex 2 5.63 0
    endloop
  endfacet
  facet normal 0 0 -1
    outer loop
      vertex 17 6.17 0
      vertex 2 6.17 0
      vertex 17 8.17 0
    endloop
  endfacet
  facet normal 0 0 -1
    outer loop
      vertex 17 8.17 0
      vertex 2 8.17 0
      vertex 17 8.71 0
    endloop
  endfacet
  facet normal 0 0 -1
    outer loop
      vertex 2 8.71 0
      vertex 17 8.71 0
      vertex 2 8.17 0
    endloop
  endfacet
  facet normal 0 0 -1
    outer loop
      vertex 2 10.71 0
      vertex 17 10.71 0
      vertex 2 8.71 0
    endloop
  endfacet
  facet normal 0 0 -1
    outer loop
      vertex 17 10.71 0
      vertex 2 10.71 0
      vertex 17 11.25 0
    endloop
  endfacet
  facet normal 0 0 -1
    outer loop
      vertex 17 11.25 0
      vertex 2 11.25 0
      vertex 17 13.25 0
    endloop
  endfacet
  facet normal 0 0 -1
    outer loop
      vertex 2 13.25 0
      vertex 17 13.25 0
      vertex 2 11.25 0
    endloop
  endfacet
  facet normal 0 0 -1
    outer loop
      vertex 2 13.79 0
      vertex 17 13.79 0
      vertex 2 13.25 0
    endloop
  endfacet
  facet normal 0 0 -1
    outer loop
      vertex 17 13.79 0
      vertex 2 13.79 0
      vertex 17 15.79 0
    endloop
  endfacet
  facet normal 0 0 -1
    outer loop
      vertex 17 15.79 0
      vertex 2 15.79 0
      vertex 17 16.33 0
    endloop
  endfacet
  facet normal 0 0 -1
    outer loop
      vertex 2 16.33 0
      vertex 17 16.33 0
      vertex 2 15.79 0
    endloop
  endfacet
  facet normal 0 0 -1
    outer loop
      vertex 2 18.33 0
      vertex 17 18.33 0
      vertex 2 16.33 0
    endloop
  endfacet
  facet normal 0 0 -1
    outer loop
      vertex 17 18.33 0
      vertex 2 18.33 0
      vertex 17 18.87 0
    endloop
  endfacet
  facet normal 0 0 -1
    outer loop
      vertex 17 18.87 0
      vertex 2 18.87 0
      vertex 17 20.87 0
    endloop
  endfacet
  facet normal 0 0 -1
    outer loop
      vertex 2 20.87 0
      vertex 17 20.87 0
      vertex 2 18.87 0
    endloop
  endfacet
  facet normal 0 0 -1
    outer loop
      vertex 2 21.41 0
      vertex 17 21.41 0
      vertex 2 20.87 0
    endloop
  endfacet
  facet normal 0 0 -1
    outer loop
      vertex 17 21.41 0
      vertex 2 21.41 0
      vertex 17 23.41 0
    endloop
  endfacet
  facet normal 0 0 -1
    outer loop
      vertex 17 23.41 0
      vertex 2 23.41 0
      vertex 17 23.95 0
    endloop
  endfacet
  facet normal 0 0 -1
    outer loop
      vertex 2 23.95 0
      vertex 17 23.95 0
      vertex 2 23.41 0
    endloop
  endfacet
  facet normal 0 0 -1
    outer loop
      vertex 2 25.95 0
      vertex 17 25.95 0
      vertex 2 23.95 0
    endloop
  endfacet
  facet normal 0 0 -1
    outer loop
      vertex 17 25.95 0
      vertex 2 25.95 0
      vertex 17 26.49 0
    endloop
  endfacet
  facet normal 0 0 -1
    outer loop
      vertex 2 3.09 0
      vertex 17 1.09 0
      vertex 2 1.09 0
    endloop
  endfacet
  facet normal 0 0 -1
    outer loop
      vertex 17.5 0.5 0
      vertex 2 1.09 0
      vertex 17 1.09 0
    endloop
  endfacet
  facet normal 0 0 -1
    outer loop
      vertex 1.5 0.5 0
      vertex 17.5 0.5 0
      vertex 19 -1 0
    endloop
  endfacet
  facet normal 0 0 -1
    outer loop
      vertex 17.5 0.5 0
      vertex 1.5 0.5 0
      vertex 2 1.09 0
    endloop
  endfacet
  facet normal 0 0 -1
    outer loop
      vertex 0 -1 0
      vertex 1.5 0.5 0
      vertex 19 -1 0
    endloop
  endfacet
  facet normal -0 0 -1
    outer loop
      vertex 1.5 0.5 0
      vertex 0 -1 0
      vertex 0.9 0.5 0
    endloop
  endfacet
  facet normal 0 0 -1
    outer loop
      vertex 0.9 0.5 0
      vertex 0 -1 0
      vertex 0 0 0
    endloop
  endfacet
  facet normal 0 0 -1
    outer loop
      vertex 17 3.09 0
      vertex 17.5 3.63 0
      vertex 17.5 3.09 0
    endloop
  endfacet
  facet normal -0 0 -1
    outer loop
      vertex 17.5 3.63 0
      vertex 17 3.09 0
      vertex 17 3.63 0
    endloop
  endfacet
  facet normal 0 0 -1
    outer loop
      vertex 17 5.63 0
      vertex 17.5 6.17 0
      vertex 17.5 5.63 0
    endloop
  endfacet
  facet normal -0 0 -1
    outer loop
      vertex 17.5 6.17 0
      vertex 17 5.63 0
      vertex 17 6.17 0
    endloop
  endfacet
  facet normal 0 0 -1
    outer loop
      vertex 17 8.17 0
      vertex 17.5 8.71 0
      vertex 17.5 8.17 0
    endloop
  endfacet
  facet normal -0 0 -1
    outer loop
      vertex 17.5 8.71 0
      vertex 17 8.17 0
      vertex 17 8.71 0
    endloop
  endfacet
  facet normal 0 0 -1
    outer loop
      vertex 17 10.71 0
      vertex 17.5 11.25 0
      vertex 17.5 10.71 0
    endloop
  endfacet
  facet normal -0 0 -1
    outer loop
      vertex 17.5 11.25 0
      vertex 17 10.71 0
      vertex 17 11.25 0
    endloop
  endfacet
  facet normal 0 0 -1
    outer loop
      vertex 17 13.25 0
      vertex 17.5 13.79 0
      vertex 17.5 13.25 0
    endloop
  endfacet
  facet normal -0 0 -1
    outer loop
      vertex 17.5 13.79 0
      vertex 17 13.25 0
      vertex 17 13.79 0
    endloop
  endfacet
  facet normal 0 0 -1
    outer loop
      vertex 17 15.79 0
      vertex 17.5 16.33 0
      vertex 17.5 15.79 0
    endloop
  endfacet
  facet normal -0 0 -1
    outer loop
      vertex 17.5 16.33 0
      vertex 17 15.79 0
      vertex 17 16.33 0
    endloop
  endfacet
  facet normal 0 0 -1
    outer loop
      vertex 17 18.33 0
      vertex 17.5 18.87 0
      vertex 17.5 18.33 0
    endloop
  endfacet
  facet normal -0 0 -1
    outer loop
      vertex 17.5 18.87 0
      vertex 17 18.33 0
      vertex 17 18.87 0
    endloop
  endfacet
  facet normal 0 0 -1
    outer loop
      vertex 17 20.87 0
      vertex 17.5 21.41 0
      vertex 17.5 20.87 0
    endloop
  endfacet
  facet normal -0 0 -1
    outer loop
      vertex 17.5 21.41 0
      vertex 17 20.87 0
      vertex 17 21.41 0
    endloop
  endfacet
  facet normal 0 0 -1
    outer loop
      vertex 17 23.41 0
      vertex 17.5 23.95 0
      vertex 17.5 23.41 0
    endloop
  endfacet
  facet normal -0 0 -1
    outer loop
      vertex 17.5 23.95 0
      vertex 17 23.41 0
      vertex 17 23.95 0
    endloop
  endfacet
  facet normal 0 0 -1
    outer loop
      vertex 17 25.95 0
      vertex 17.5 26.49 0
      vertex 17.5 25.95 0
    endloop
  endfacet
  facet normal -0 0 -1
    outer loop
      vertex 17.5 26.49 0
      vertex 17 25.95 0
      vertex 17 26.49 0
    endloop
  endfacet
  facet normal 0 0 -1
    outer loop
      vertex 17 28.49 0
      vertex 17.5 29.03 0
      vertex 17.5 28.49 0
    endloop
  endfacet
  facet normal -0 0 -1
    outer loop
      vertex 17.5 29.03 0
      vertex 17 28.49 0
      vertex 17 29.03 0
    endloop
  endfacet
  facet normal 0 0 -1
    outer loop
      vertex 17 31.03 0
      vertex 17.5 31.57 0
      vertex 17.5 31.03 0
    endloop
  endfacet
  facet normal -0 0 -1
    outer loop
      vertex 17.5 31.57 0
      vertex 17 31.03 0
      vertex 17 31.57 0
    endloop
  endfacet
  facet normal 0 0 -1
    outer loop
      vertex 17 33.57 0
      vertex 17.5 34.11 0
      vertex 17.5 33.57 0
    endloop
  endfacet
  facet normal -0 0 -1
    outer loop
      vertex 17.5 34.11 0
      vertex 17 33.57 0
      vertex 17 34.11 0
    endloop
  endfacet
  facet normal 0 0 -1
    outer loop
      vertex 17.5 36.11 0
      vertex 17 36.11 0
      vertex 17.5 36.8 0
    endloop
  endfacet
  facet normal 0 0 -1
    outer loop
      vertex 17.5 36.8 0
      vertex 19 38.3 0
      vertex 19 36.8 0
    endloop
  endfacet
  facet normal -0 0 -1
    outer loop
      vertex 17 3.63 0
      vertex 2 3.09 0
      vertex 2 3.63 0
    endloop
  endfacet
  facet normal 0 0 -1
    outer loop
      vertex 17 5.63 0
      vertex 2 5.63 0
      vertex 17 6.17 0
    endloop
  endfacet
  facet normal 0 0 -1
    outer loop
      vertex 2 8.17 0
      vertex 17 8.17 0
      vertex 2 6.17 0
    endloop
  endfacet
  facet normal 0 0 -1
    outer loop
      vertex 17 8.71 0
      vertex 2 8.71 0
      vertex 17 10.71 0
    endloop
  endfacet
  facet normal 0 0 -1
    outer loop
      vertex 2 11.25 0
      vertex 17 11.25 0
      vertex 2 10.71 0
    endloop
  endfacet
  facet normal 0 0 -1
    outer loop
      vertex 17 13.25 0
      vertex 2 13.25 0
      vertex 17 13.79 0
    endloop
  endfacet
  facet normal 0 0 -1
    outer loop
      vertex 2 15.79 0
      vertex 17 15.79 0
      vertex 2 13.79 0
    endloop
  endfacet
  facet normal 0 0 -1
    outer loop
      vertex 17 16.33 0
      vertex 2 16.33 0
      vertex 17 18.33 0
    endloop
  endfacet
  facet normal 0 0 -1
    outer loop
      vertex 2 18.87 0
      vertex 17 18.87 0
      vertex 2 18.33 0
    endloop
  endfacet
  facet normal 0 0 -1
    outer loop
      vertex 17 20.87 0
      vertex 2 20.87 0
      vertex 17 21.41 0
    endloop
  endfacet
  facet normal 0 0 -1
    outer loop
      vertex 2 23.41 0
      vertex 17 23.41 0
      vertex 2 21.41 0
    endloop
  endfacet
  facet normal 0 0 -1
    outer loop
      vertex 17 23.95 0
      vertex 2 23.95 0
      vertex 17 25.95 0
    endloop
  endfacet
  facet normal 0 0 -1
    outer loop
      vertex 2 26.49 0
      vertex 17 26.49 0
      vertex 2 25.95 0
    endloop
  endfacet
  facet normal 0 0 -1
    outer loop
      vertex 17 26.49 0
      vertex 2 26.49 0
      vertex 17 28.49 0
    endloop
  endfacet
  facet normal 0 0 -1
    outer loop
      vertex 2 28.49 0
      vertex 17 28.49 0
      vertex 2 26.49 0
    endloop
  endfacet
  facet normal 0 0 -1
    outer loop
      vertex 17 28.49 0
      vertex 2 28.49 0
      vertex 17 29.03 0
    endloop
  endfacet
  facet normal 0 0 -1
    outer loop
      vertex 2 29.03 0
      vertex 17 29.03 0
      vertex 2 28.49 0
    endloop
  endfacet
  facet normal 0 0 -1
    outer loop
      vertex 17 29.03 0
      vertex 2 29.03 0
      vertex 17 31.03 0
    endloop
  endfacet
  facet normal 0 0 -1
    outer loop
      vertex 2 31.03 0
      vertex 17 31.03 0
      vertex 2 29.03 0
    endloop
  endfacet
  facet normal 0 0 -1
    outer loop
      vertex 17 31.03 0
      vertex 2 31.03 0
      vertex 17 31.57 0
    endloop
  endfacet
  facet normal 0 0 -1
    outer loop
      vertex 2 31.57 0
      vertex 17 31.57 0
      vertex 2 31.03 0
    endloop
  endfacet
  facet normal 0 0 -1
    outer loop
      vertex 17 31.57 0
      vertex 2 31.57 0
      vertex 17 33.57 0
    endloop
  endfacet
  facet normal 0 0 -1
    outer loop
      vertex 2 33.57 0
      vertex 17 33.57 0
      vertex 2 31.57 0
    endloop
  endfacet
  facet normal 0 0 -1
    outer loop
      vertex 17 33.57 0
      vertex 2 33.57 0
      vertex 17 34.11 0
    endloop
  endfacet
  facet normal 0 0 -1
    outer loop
      vertex 2 34.11 0
      vertex 17 34.11 0
      vertex 2 33.57 0
    endloop
  endfacet
  facet normal 0 0 -1
    outer loop
      vertex 17 34.11 0
      vertex 2 34.11 0
      vertex 17 36.11 0
    endloop
  endfacet
  facet normal 0 0 -1
    outer loop
      vertex 2 36.11 0
      vertex 17 36.11 0
      vertex 2 34.11 0
    endloop
  endfacet
  facet normal 0 0 -1
    outer loop
      vertex 17 36.11 0
      vertex 2 36.11 0
      vertex 17.5 36.8 0
    endloop
  endfacet
  facet normal 0 0 -1
    outer loop
      vertex 1.5 36.8 0
      vertex 17.5 36.8 0
      vertex 2 36.11 0
    endloop
  endfacet
  facet normal 0 0 -1
    outer loop
      vertex 1.5 36.8 0
      vertex 2 36.11 0
      vertex 1.5 36.11 0
    endloop
  endfacet
  facet normal 0 0 -1
    outer loop
      vertex 17.5 36.8 0
      vertex 1.5 36.8 0
      vertex 19 38.3 0
    endloop
  endfacet
  facet normal 0 0 -1
    outer loop
      vertex 1.5 36.8 0
      vertex 0 38.3 0
      vertex 19 38.3 0
    endloop
  endfacet
  facet normal 0 -0 -1
    outer loop
      vertex 0 38.3 0
      vertex 1.5 36.8 0
      vertex -1.83697e-16 36.8 0
    endloop
  endfacet
  facet normal -0 0 -1
    outer loop
      vertex 2 1.09 0
      vertex 1.5 0.5 0
      vertex 1.5 1.09 0
    endloop
  endfacet
  facet normal 0 -1 0
    outer loop
      vertex 0 -1 7.8
      vertex 5 -1 6.8
      vertex 5 -1 7.8
    endloop
  endfacet
  facet normal 0 -1 0
    outer loop
      vertex 5 -1 6.8
      vertex 8.8 -1 2.8
      vertex 8.8 -1 6.8
    endloop
  endfacet
  facet normal 0 -1 0
    outer loop
      vertex 0 -1 0
      vertex 5 -1 6.8
      vertex 0 -1 7.8
    endloop
  endfacet
  facet normal 0 -1 -0
    outer loop
      vertex 8.8 -1 2.8
      vertex 0 -1 0
      vertex 10.2 -1 2.8
    endloop
  endfacet
  facet normal 0 -1 -0
    outer loop
      vertex 5 -1 6.8
      vertex 0 -1 0
      vertex 8.8 -1 2.8
    endloop
  endfacet
  facet normal 0 -1 0
    outer loop
      vertex 10.2 -1 6.8
      vertex 10.2 -1 2.8
      vertex 14 -1 6.8
    endloop
  endfacet
  facet normal 0 -1 0
    outer loop
      vertex 14 -1 6.8
      vertex 19 -1 7.8
      vertex 14 -1 7.8
    endloop
  endfacet
  facet normal 0 -1 0
    outer loop
      vertex 19 -1 0
      vertex 14 -1 6.8
      vertex 10.2 -1 2.8
    endloop
  endfacet
  facet normal 0 -1 0
    outer loop
      vertex 14 -1 6.8
      vertex 19 -1 0
      vertex 19 -1 7.8
    endloop
  endfacet
  facet normal 0 -1 0
    outer loop
      vertex 19 -1 0
      vertex 10.2 -1 2.8
      vertex 0 -1 0
    endloop
  endfacet
  facet normal 1 -0 0
    outer loop
      vertex 1.8 0 7.8
      vertex 1.8 0.5 3
      vertex 1.8 0.5 7.8
    endloop
  endfacet
  facet normal 1 0 0
    outer loop
      vertex 1.8 0.5 3
      vertex 1.8 0 7.8
      vertex 1.8 0 3
    endloop
  endfacet
  facet normal -0.485643 0.874157 0
    outer loop
      vertex 0.9 0.5 0
      vertex 0 0 7.8
      vertex 0.9 0.5 7.8
    endloop
  endfacet
  facet normal -0.485643 0.874157 0
    outer loop
      vertex 0 0 7.8
      vertex 0.9 0.5 0
      vertex 0 0 0
    endloop
  endfacet
  facet normal 0 1 0
    outer loop
      vertex 1.5 0.5 3
      vertex 1.8 0.5 7.8
      vertex 1.8 0.5 3
    endloop
  endfacet
  facet normal 0 1 0
    outer loop
      vertex 1.8 0.5 7.8
      vertex 1.5 0.5 3
      vertex 0.9 0.5 7.8
    endloop
  endfacet
  facet normal 0 1 0
    outer loop
      vertex 0.9 0.5 0
      vertex 1.5 0.5 3
      vertex 1.5 0.5 0
    endloop
  endfacet
  facet normal 0 1 0
    outer loop
      vertex 1.5 0.5 3
      vertex 0.9 0.5 0
      vertex 0.9 0.5 7.8
    endloop
  endfacet
  facet normal -1 0 0
    outer loop
      vertex 17.2 0 3
      vertex 17.2 0.5 7.8
      vertex 17.2 0.5 3
    endloop
  endfacet
  facet normal -1 -0 0
    outer loop
      vertex 17.2 0.5 7.8
      vertex 17.2 0 3
      vertex 17.2 0 7.8
    endloop
  endfacet
  facet normal 0 1 0
    outer loop
      vertex 18.1 0.5 7.8
      vertex 17.5 0.5 3
      vertex 17.2 0.5 7.8
    endloop
  endfacet
  facet normal 0 1 -0
    outer loop
      vertex 18.1 0.5 0
      vertex 17.5 0.5 3
      vertex 18.1 0.5 7.8
    endloop
  endfacet
  facet normal 0 1 0
    outer loop
      vertex 17.5 0.5 3
      vertex 18.1 0.5 0
      vertex 17.5 0.5 0
    endloop
  endfacet
  facet normal 0 1 0
    outer loop
      vertex 17.2 0.5 7.8
      vertex 17.5 0.5 3
      vertex 17.2 0.5 3
    endloop
  endfacet
  facet normal 0.485642 0.874158 -0
    outer loop
      vertex 19 0 0
      vertex 18.1 0.5 7.8
      vertex 19 0 7.8
    endloop
  endfacet
  facet normal 0.485642 0.874158 0
    outer loop
      vertex 18.1 0.5 7.8
      vertex 19 0 0
      vertex 18.1 0.5 0
    endloop
  endfacet
  facet normal -1 0 0
    outer loop
      vertex 5 -5 6.8
      vertex 5 -1 7.8
      vertex 5 -1 6.8
    endloop
  endfacet
  facet normal -1 -0 0
    outer loop
      vertex 5 -1 7.8
      vertex 5 -5 6.8
      vertex 5 -5 7.8
    endloop
  endfacet
  facet normal 1 -0 0
    outer loop
      vertex 14 -5 7.8
      vertex 14 -1 6.8
      vertex 14 -1 7.8
    endloop
  endfacet
  facet normal 1 0 0
    outer loop
      vertex 14 -1 6.8
      vertex 14 -5 7.8
      vertex 14 -5 6.8
    endloop
  endfacet
  facet normal 0 0 -1
    outer loop
      vertex 14 -5 6.8
      vertex 10.2 -3 6.8
      vertex 14 -1 6.8
    endloop
  endfacet
  facet normal 0 0 -1
    outer loop
      vertex 14 -5 6.8
      vertex 8.8 -3 6.8
      vertex 10.2 -3 6.8
    endloop
  endfacet
  facet normal 0 0 -1
    outer loop
      vertex 5 -5 6.8
      vertex 8.8 -3 6.8
      vertex 14 -5 6.8
    endloop
  endfacet
  facet normal 0 0 -1
    outer loop
      vertex 5 -1 6.8
      vertex 8.8 -3 6.8
      vertex 5 -5 6.8
    endloop
  endfacet
  facet normal 0 0 -1
    outer loop
      vertex 8.8 -3 6.8
      vertex 5 -1 6.8
      vertex 8.8 -1 6.8
    endloop
  endfacet
  facet normal -0 0 -1
    outer loop
      vertex 14 -1 6.8
      vertex 10.2 -3 6.8
      vertex 10.2 -1 6.8
    endloop
  endfacet
  facet normal 0 -1 0
    outer loop
      vertex 5 -5 6.8
      vertex 14 -5 7.8
      vertex 5 -5 7.8
    endloop
  endfacet
  facet normal 0 -1 -0
    outer loop
      vertex 14 -5 7.8
      vertex 5 -5 6.8
      vertex 14 -5 6.8
    endloop
  endfacet
  facet normal -1 0 0
    outer loop
      vertex 8.8 -3 2.8
      vertex 8.8 -1 6.8
      vertex 8.8 -1 2.8
    endloop
  endfacet
  facet normal -1 -0 0
    outer loop
      vertex 8.8 -1 6.8
      vertex 8.8 -3 2.8
      vertex 8.8 -3 6.8
    endloop
  endfacet
  facet normal 1 -0 0
    outer loop
      vertex 10.2 -3 6.8
      vertex 10.2 -1 2.8
      vertex 10.2 -1 6.8
    endloop
  endfacet
  facet normal 1 0 0
    outer loop
      vertex 10.2 -1 2.8
      vertex 10.2 -3 6.8
      vertex 10.2 -3 2.8
    endloop
  endfacet
  facet normal 0 0 -1
    outer loop
      vertex 8.8 -3 2.8
      vertex 10.2 -1 2.8
      vertex 10.2 -3 2.8
    endloop
  endfacet
  facet normal -0 0 -1
    outer loop
      vertex 10.2 -1 2.8
      vertex 8.8 -3 2.8
      vertex 8.8 -1 2.8
    endloop
  endfacet
  facet normal 0 -1 0
    outer loop
      vertex 8.8 -3 2.8
      vertex 10.2 -3 6.8
      vertex 8.8 -3 6.8
    endloop
  endfacet
  facet normal 0 -1 -0
    outer loop
      vertex 10.2 -3 6.8
      vertex 8.8 -3 2.8
      vertex 10.2 -3 2.8
    endloop
  endfacet
  facet normal -1 0 0
    outer loop
      vertex 2 1.09 0
      vertex 2 3.09 3
      vertex 2 3.09 0
    endloop
  endfacet
  facet normal -1 -0 0
    outer loop
      vertex 2 3.09 3
      vertex 2 1.09 0
      vertex 2 1.09 3
    endloop
  endfacet
  facet normal 0 -1 0
    outer loop
      vertex 1.5 3.09 0
      vertex 2 3.09 3
      vertex 1.5 3.09 3
    endloop
  endfacet
  facet normal 0 -1 -0
    outer loop
      vertex 2 3.09 3
      vertex 1.5 3.09 0
      vertex 2 3.09 0
    endloop
  endfacet
  facet normal 0 1 -0
    outer loop
      vertex 2 1.09 0
      vertex 1.5 1.09 3
      vertex 2 1.09 3
    endloop
  endfacet
  facet normal 0 1 0
    outer loop
      vertex 1.5 1.09 3
      vertex 2 1.09 0
      vertex 1.5 1.09 0
    endloop
  endfacet
  facet normal 1 -0 0
    outer loop
      vertex 17 1.09 3
      vertex 17 3.09 0
      vertex 17 3.09 3
    endloop
  endfacet
  facet normal 1 0 0
    outer loop
      vertex 17 3.09 0
      vertex 17 1.09 3
      vertex 17 1.09 0
    endloop
  endfacet
  facet normal 0 -1 0
    outer loop
      vertex 17 3.09 0
      vertex 17.5 3.09 3
      vertex 17 3.09 3
    endloop
  endfacet
  facet normal 0 -1 -0
    outer loop
      vertex 17.5 3.09 3
      vertex 17 3.09 0
      vertex 17.5 3.09 0
    endloop
  endfacet
  facet normal 0 1 -0
    outer loop
      vertex 17.5 1.09 0
      vertex 17 1.09 3
      vertex 17.5 1.09 3
    endloop
  endfacet
  facet normal 0 1 0
    outer loop
      vertex 17 1.09 3
      vertex 17.5 1.09 0
      vertex 17 1.09 0
    endloop
  endfacet
  facet normal -1 0 0
    outer loop
      vertex 2 3.63 0
      vertex 2 5.63 3
      vertex 2 5.63 0
    endloop
  endfacet
  facet normal -1 -0 0
    outer loop
      vertex 2 5.63 3
      vertex 2 3.63 0
      vertex 2 3.63 3
    endloop
  endfacet
  facet normal 0 -1 0
    outer loop
      vertex 1.5 5.63 0
      vertex 2 5.63 3
      vertex 1.5 5.63 3
    endloop
  endfacet
  facet normal 0 -1 -0
    outer loop
      vertex 2 5.63 3
      vertex 1.5 5.63 0
      vertex 2 5.63 0
    endloop
  endfacet
  facet normal 0 1 -0
    outer loop
      vertex 2 3.63 0
      vertex 1.5 3.63 3
      vertex 2 3.63 3
    endloop
  endfacet
  facet normal 0 1 0
    outer loop
      vertex 1.5 3.63 3
      vertex 2 3.63 0
      vertex 1.5 3.63 0
    endloop
  endfacet
  facet normal 1 -0 0
    outer loop
      vertex 17 3.63 3
      vertex 17 5.63 0
      vertex 17 5.63 3
    endloop
  endfacet
  facet normal 1 0 0
    outer loop
      vertex 17 5.63 0
      vertex 17 3.63 3
      vertex 17 3.63 0
    endloop
  endfacet
  facet normal 0 -1 0
    outer loop
      vertex 17 5.63 0
      vertex 17.5 5.63 3
      vertex 17 5.63 3
    endloop
  endfacet
  facet normal 0 -1 -0
    outer loop
      vertex 17.5 5.63 3
      vertex 17 5.63 0
      vertex 17.5 5.63 0
    endloop
  endfacet
  facet normal 0 1 -0
    outer loop
      vertex 17.5 3.63 0
      vertex 17 3.63 3
      vertex 17.5 3.63 3
    endloop
  endfacet
  facet normal 0 1 0
    outer loop
      vertex 17 3.63 3
      vertex 17.5 3.63 0
      vertex 17 3.63 0
    endloop
  endfacet
  facet normal -1 0 0
    outer loop
      vertex 2 6.17 0
      vertex 2 8.17 3
      vertex 2 8.17 0
    endloop
  endfacet
  facet normal -1 -0 0
    outer loop
      vertex 2 8.17 3
      vertex 2 6.17 0
      vertex 2 6.17 3
    endloop
  endfacet
  facet normal 0 1 -0
    outer loop
      vertex 2 6.17 0
      vertex 1.5 6.17 3
      vertex 2 6.17 3
    endloop
  endfacet
  facet normal 0 1 0
    outer loop
      vertex 1.5 6.17 3
      vertex 2 6.17 0
      vertex 1.5 6.17 0
    endloop
  endfacet
  facet normal 0 -1 0
    outer loop
      vertex 1.5 8.17 0
      vertex 2 8.17 3
      vertex 1.5 8.17 3
    endloop
  endfacet
  facet normal 0 -1 -0
    outer loop
      vertex 2 8.17 3
      vertex 1.5 8.17 0
      vertex 2 8.17 0
    endloop
  endfacet
  facet normal 1 -0 0
    outer loop
      vertex 17 6.17 3
      vertex 17 8.17 0
      vertex 17 8.17 3
    endloop
  endfacet
  facet normal 1 0 0
    outer loop
      vertex 17 8.17 0
      vertex 17 6.17 3
      vertex 17 6.17 0
    endloop
  endfacet
  facet normal 0 -1 0
    outer loop
      vertex 17 8.17 0
      vertex 17.5 8.17 3
      vertex 17 8.17 3
    endloop
  endfacet
  facet normal 0 -1 -0
    outer loop
      vertex 17.5 8.17 3
      vertex 17 8.17 0
      vertex 17.5 8.17 0
    endloop
  endfacet
  facet normal 0 1 -0
    outer loop
      vertex 17.5 6.17 0
      vertex 17 6.17 3
      vertex 17.5 6.17 3
    endloop
  endfacet
  facet normal 0 1 0
    outer loop
      vertex 17 6.17 3
      vertex 17.5 6.17 0
      vertex 17 6.17 0
    endloop
  endfacet
  facet normal -1 0 0
    outer loop
      vertex 2 8.71 0
      vertex 2 10.71 3
      vertex 2 10.71 0
    endloop
  endfacet
  facet normal -1 -0 0
    outer loop
      vertex 2 10.71 3
      vertex 2 8.71 0
      vertex 2 8.71 3
    endloop
  endfacet
  facet normal 0 1 -0
    outer loop
      vertex 2 8.71 0
      vertex 1.5 8.71 3
      vertex 2 8.71 3
    endloop
  endfacet
  facet normal 0 1 0
    outer loop
      vertex 1.5 8.71 3
      vertex 2 8.71 0
      vertex 1.5 8.71 0
    endloop
  endfacet
  facet normal 0 -1 0
    outer loop
      vertex 1.5 10.71 0
      vertex 2 10.71 3
      vertex 1.5 10.71 3
    endloop
  endfacet
  facet normal 0 -1 -0
    outer loop
      vertex 2 10.71 3
      vertex 1.5 10.71 0
      vertex 2 10.71 0
    endloop
  endfacet
  facet normal 1 -0 0
    outer loop
      vertex 17 8.71 3
      vertex 17 10.71 0
      vertex 17 10.71 3
    endloop
  endfacet
  facet normal 1 0 0
    outer loop
      vertex 17 10.71 0
      vertex 17 8.71 3
      vertex 17 8.71 0
    endloop
  endfacet
  facet normal 0 1 -0
    outer loop
      vertex 17.5 8.71 0
      vertex 17 8.71 3
      vertex 17.5 8.71 3
    endloop
  endfacet
  facet normal 0 1 0
    outer loop
      vertex 17 8.71 3
      vertex 17.5 8.71 0
      vertex 17 8.71 0
    endloop
  endfacet
  facet normal 0 -1 0
    outer loop
      vertex 17 10.71 0
      vertex 17.5 10.71 3
      vertex 17 10.71 3
    endloop
  endfacet
  facet normal 0 -1 -0
    outer loop
      vertex 17.5 10.71 3
      vertex 17 10.71 0
      vertex 17.5 10.71 0
    endloop
  endfacet
  facet normal -1 0 0
    outer loop
      vertex 2 11.25 0
      vertex 2 13.25 3
      vertex 2 13.25 0
    endloop
  endfacet
  facet normal -1 -0 0
    outer loop
      vertex 2 13.25 3
      vertex 2 11.25 0
      vertex 2 11.25 3
    endloop
  endfacet
  facet normal 0 1 -0
    outer loop
      vertex 2 11.25 0
      vertex 1.5 11.25 3
      vertex 2 11.25 3
    endloop
  endfacet
  facet normal 0 1 0
    outer loop
      vertex 1.5 11.25 3
      vertex 2 11.25 0
      vertex 1.5 11.25 0
    endloop
  endfacet
  facet normal 0 -1 0
    outer loop
      vertex 1.5 13.25 0
      vertex 2 13.25 3
      vertex 1.5 13.25 3
    endloop
  endfacet
  facet normal 0 -1 -0
    outer loop
      vertex 2 13.25 3
      vertex 1.5 13.25 0
      vertex 2 13.25 0
    endloop
  endfacet
  facet normal 1 -0 0
    outer loop
      vertex 17 11.25 3
      vertex 17 13.25 0
      vertex 17 13.25 3
    endloop
  endfacet
  facet normal 1 0 0
    outer loop
      vertex 17 13.25 0
      vertex 17 11.25 3
      vertex 17 11.25 0
    endloop
  endfacet
  facet normal 0 -1 0
    outer loop
      vertex 17 13.25 0
      vertex 17.5 13.25 3
      vertex 17 13.25 3
    endloop
  endfacet
  facet normal 0 -1 -0
    outer loop
      vertex 17.5 13.25 3
      vertex 17 13.25 0
      vertex 17.5 13.25 0
    endloop
  endfacet
  facet normal 0 1 -0
    outer loop
      vertex 17.5 11.25 0
      vertex 17 11.25 3
      vertex 17.5 11.25 3
    endloop
  endfacet
  facet normal 0 1 0
    outer loop
      vertex 17 11.25 3
      vertex 17.5 11.25 0
      vertex 17 11.25 0
    endloop
  endfacet
  facet normal -1 0 0
    outer loop
      vertex 2 13.79 0
      vertex 2 15.79 3
      vertex 2 15.79 0
    endloop
  endfacet
  facet normal -1 -0 0
    outer loop
      vertex 2 15.79 3
      vertex 2 13.79 0
      vertex 2 13.79 3
    endloop
  endfacet
  facet normal 0 -1 0
    outer loop
      vertex 1.5 15.79 0
      vertex 2 15.79 3
      vertex 1.5 15.79 3
    endloop
  endfacet
  facet normal 0 -1 -0
    outer loop
      vertex 2 15.79 3
      vertex 1.5 15.79 0
      vertex 2 15.79 0
    endloop
  endfacet
  facet normal 0 1 -0
    outer loop
      vertex 2 13.79 0
      vertex 1.5 13.79 3
      vertex 2 13.79 3
    endloop
  endfacet
  facet normal 0 1 0
    outer loop
      vertex 1.5 13.79 3
      vertex 2 13.79 0
      vertex 1.5 13.79 0
    endloop
  endfacet
  facet normal 1 -0 0
    outer loop
      vertex 17 13.79 3
      vertex 17 15.79 0
      vertex 17 15.79 3
    endloop
  endfacet
  facet normal 1 0 0
    outer loop
      vertex 17 15.79 0
      vertex 17 13.79 3
      vertex 17 13.79 0
    endloop
  endfacet
  facet normal 0 1 -0
    outer loop
      vertex 17.5 13.79 0
      vertex 17 13.79 3
      vertex 17.5 13.79 3
    endloop
  endfacet
  facet normal 0 1 0
    outer loop
      vertex 17 13.79 3
      vertex 17.5 13.79 0
      vertex 17 13.79 0
    endloop
  endfacet
  facet normal 0 -1 0
    outer loop
      vertex 17 15.79 0
      vertex 17.5 15.79 3
      vertex 17 15.79 3
    endloop
  endfacet
  facet normal 0 -1 -0
    outer loop
      vertex 17.5 15.79 3
      vertex 17 15.79 0
      vertex 17.5 15.79 0
    endloop
  endfacet
  facet normal -1 0 0
    outer loop
      vertex 2 16.33 0
      vertex 2 18.33 3
      vertex 2 18.33 0
    endloop
  endfacet
  facet normal -1 -0 0
    outer loop
      vertex 2 18.33 3
      vertex 2 16.33 0
      vertex 2 16.33 3
    endloop
  endfacet
  facet normal 0 -1 0
    outer loop
      vertex 1.5 18.33 0
      vertex 2 18.33 3
      vertex 1.5 18.33 3
    endloop
  endfacet
  facet normal 0 -1 -0
    outer loop
      vertex 2 18.33 3
      vertex 1.5 18.33 0
      vertex 2 18.33 0
    endloop
  endfacet
  facet normal 0 1 -0
    outer loop
      vertex 2 16.33 0
      vertex 1.5 16.33 3
      vertex 2 16.33 3
    endloop
  endfacet
  facet normal 0 1 0
    outer loop
      vertex 1.5 16.33 3
      vertex 2 16.33 0
      vertex 1.5 16.33 0
    endloop
  endfacet
  facet normal 1 -0 0
    outer loop
      vertex 17 16.33 3
      vertex 17 18.33 0
      vertex 17 18.33 3
    endloop
  endfacet
  facet normal 1 0 0
    outer loop
      vertex 17 18.33 0
      vertex 17 16.33 3
      vertex 17 16.33 0
    endloop
  endfacet
  facet normal 0 -1 0
    outer loop
      vertex 17 18.33 0
      vertex 17.5 18.33 3
      vertex 17 18.33 3
    endloop
  endfacet
  facet normal 0 -1 -0
    outer loop
      vertex 17.5 18.33 3
      vertex 17 18.33 0
      vertex 17.5 18.33 0
    endloop
  endfacet
  facet normal 0 1 -0
    outer loop
      vertex 17.5 16.33 0
      vertex 17 16.33 3
      vertex 17.5 16.33 3
    endloop
  endfacet
  facet normal 0 1 0
    outer loop
      vertex 17 16.33 3
      vertex 17.5 16.33 0
      vertex 17 16.33 0
    endloop
  endfacet
  facet normal -1 0 0
    outer loop
      vertex 2 18.87 0
      vertex 2 20.87 3
      vertex 2 20.87 0
    endloop
  endfacet
  facet normal -1 -0 0
    outer loop
      vertex 2 20.87 3
      vertex 2 18.87 0
      vertex 2 18.87 3
    endloop
  endfacet
  facet normal 0 1 -0
    outer loop
      vertex 2 18.87 0
      vertex 1.5 18.87 3
      vertex 2 18.87 3
    endloop
  endfacet
  facet normal 0 1 0
    outer loop
      vertex 1.5 18.87 3
      vertex 2 18.87 0
      vertex 1.5 18.87 0
    endloop
  endfacet
  facet normal 0 -1 0
    outer loop
      vertex 1.5 20.87 0
      vertex 2 20.87 3
      vertex 1.5 20.87 3
    endloop
  endfacet
  facet normal 0 -1 -0
    outer loop
      vertex 2 20.87 3
      vertex 1.5 20.87 0
      vertex 2 20.87 0
    endloop
  endfacet
  facet normal 1 -0 0
    outer loop
      vertex 17 18.87 3
      vertex 17 20.87 0
      vertex 17 20.87 3
    endloop
  endfacet
  facet normal 1 0 0
    outer loop
      vertex 17 20.87 0
      vertex 17 18.87 3
      vertex 17 18.87 0
    endloop
  endfacet
  facet normal 0 -1 0
    outer loop
      vertex 17 20.87 0
      vertex 17.5 20.87 3
      vertex 17 20.87 3
    endloop
  endfacet
  facet normal 0 -1 -0
    outer loop
      vertex 17.5 20.87 3
      vertex 17 20.87 0
      vertex 17.5 20.87 0
    endloop
  endfacet
  facet normal 0 1 -0
    outer loop
      vertex 17.5 18.87 0
      vertex 17 18.87 3
      vertex 17.5 18.87 3
    endloop
  endfacet
  facet normal 0 1 0
    outer loop
      vertex 17 18.87 3
      vertex 17.5 18.87 0
      vertex 17 18.87 0
    endloop
  endfacet
  facet normal -1 0 0
    outer loop
      vertex 2 21.41 0
      vertex 2 23.41 3
      vertex 2 23.41 0
    endloop
  endfacet
  facet normal -1 -0 0
    outer loop
      vertex 2 23.41 3
      vertex 2 21.41 0
      vertex 2 21.41 3
    endloop
  endfacet
  facet normal 0 -1 0
    outer loop
      vertex 1.5 23.41 0
      vertex 2 23.41 3
      vertex 1.5 23.41 3
    endloop
  endfacet
  facet normal 0 -1 -0
    outer loop
      vertex 2 23.41 3
      vertex 1.5 23.41 0
      vertex 2 23.41 0
    endloop
  endfacet
  facet normal 0 1 -0
    outer loop
      vertex 2 21.41 0
      vertex 1.5 21.41 3
      vertex 2 21.41 3
    endloop
  endfacet
  facet normal 0 1 0
    outer loop
      vertex 1.5 21.41 3
      vertex 2 21.41 0
      vertex 1.5 21.41 0
    endloop
  endfacet
  facet normal 1 -0 0
    outer loop
      vertex 17 21.41 3
      vertex 17 23.41 0
      vertex 17 23.41 3
    endloop
  endfacet
  facet normal 1 0 0
    outer loop
      vertex 17 23.41 0
      vertex 17 21.41 3
      vertex 17 21.41 0
    endloop
  endfacet
  facet normal 0 1 -0
    outer loop
      vertex 17.5 21.41 0
      vertex 17 21.41 3
      vertex 17.5 21.41 3
    endloop
  endfacet
  facet normal 0 1 0
    outer loop
      vertex 17 21.41 3
      vertex 17.5 21.41 0
      vertex 17 21.41 0
    endloop
  endfacet
  facet normal 0 -1 0
    outer loop
      vertex 17 23.41 0
      vertex 17.5 23.41 3
      vertex 17 23.41 3
    endloop
  endfacet
  facet normal 0 -1 -0
    outer loop
      vertex 17.5 23.41 3
      vertex 17 23.41 0
      vertex 17.5 23.41 0
    endloop
  endfacet
  facet normal -1 0 0
    outer loop
      vertex 2 23.95 0
      vertex 2 25.95 3
      vertex 2 25.95 0
    endloop
  endfacet
  facet normal -1 -0 0
    outer loop
      vertex 2 25.95 3
      vertex 2 23.95 0
      vertex 2 23.95 3
    endloop
  endfacet
  facet normal 0 -1 0
    outer loop
      vertex 1.5 25.95 0
      vertex 2 25.95 3
      vertex 1.5 25.95 3
    endloop
  endfacet
  facet normal 0 -1 -0
    outer loop
      vertex 2 25.95 3
      vertex 1.5 25.95 0
      vertex 2 25.95 0
    endloop
  endfacet
  facet normal 0 1 -0
    outer loop
      vertex 2 23.95 0
      vertex 1.5 23.95 3
      vertex 2 23.95 3
    endloop
  endfacet
  facet normal 0 1 0
    outer loop
      vertex 1.5 23.95 3
      vertex 2 23.95 0
      vertex 1.5 23.95 0
    endloop
  endfacet
  facet normal 1 -0 0
    outer loop
      vertex 17 23.95 3
      vertex 17 25.95 0
      vertex 17 25.95 3
    endloop
  endfacet
  facet normal 1 0 0
    outer loop
      vertex 17 25.95 0
      vertex 17 23.95 3
      vertex 17 23.95 0
    endloop
  endfacet
  facet normal 0 1 -0
    outer loop
      vertex 17.5 23.95 0
      vertex 17 23.95 3
      vertex 17.5 23.95 3
    endloop
  endfacet
  facet normal 0 1 0
    outer loop
      vertex 17 23.95 3
      vertex 17.5 23.95 0
      vertex 17 23.95 0
    endloop
  endfacet
  facet normal 0 -1 0
    outer loop
      vertex 17 25.95 0
      vertex 17.5 25.95 3
      vertex 17 25.95 3
    endloop
  endfacet
  facet normal 0 -1 -0
    outer loop
      vertex 17.5 25.95 3
      vertex 17 25.95 0
      vertex 17.5 25.95 0
    endloop
  endfacet
  facet normal -1 0 0
    outer loop
      vertex 2 26.49 0
      vertex 2 28.49 3
      vertex 2 28.49 0
    endloop
  endfacet
  facet normal -1 -0 0
    outer loop
      vertex 2 28.49 3
      vertex 2 26.49 0
      vertex 2 26.49 3
    endloop
  endfacet
  facet normal 0 1 -0
    outer loop
      vertex 2 26.49 0
      vertex 1.5 26.49 3
      vertex 2 26.49 3
    endloop
  endfacet
  facet normal 0 1 0
    outer loop
      vertex 1.5 26.49 3
      vertex 2 26.49 0
      vertex 1.5 26.49 0
    endloop
  endfacet
  facet normal 0 -1 0
    outer loop
      vertex 1.5 28.49 0
      vertex 2 28.49 3
      vertex 1.5 28.49 3
    endloop
  endfacet
  facet normal 0 -1 -0
    outer loop
      vertex 2 28.49 3
      vertex 1.5 28.49 0
      vertex 2 28.49 0
    endloop
  endfacet
  facet normal 1 -0 0
    outer loop
      vertex 17 26.49 3
      vertex 17 28.49 0
      vertex 17 28.49 3
    endloop
  endfacet
  facet normal 1 0 0
    outer loop
      vertex 17 28.49 0
      vertex 17 26.49 3
      vertex 17 26.49 0
    endloop
  endfacet
  facet normal 0 1 -0
    outer loop
      vertex 17.5 26.49 0
      vertex 17 26.49 3
      vertex 17.5 26.49 3
    endloop
  endfacet
  facet normal 0 1 0
    outer loop
      vertex 17 26.49 3
      vertex 17.5 26.49 0
      vertex 17 26.49 0
    endloop
  endfacet
  facet normal 0 -1 0
    outer loop
      vertex 17 28.49 0
      vertex 17.5 28.49 3
      vertex 17 28.49 3
    endloop
  endfacet
  facet normal 0 -1 -0
    outer loop
      vertex 17.5 28.49 3
      vertex 17 28.49 0
      vertex 17.5 28.49 0
    endloop
  endfacet
  facet normal -1 0 0
    outer loop
      vertex 2 29.03 0
      vertex 2 31.03 3
      vertex 2 31.03 0
    endloop
  endfacet
  facet normal -1 -0 0
    outer loop
      vertex 2 31.03 3
      vertex 2 29.03 0
      vertex 2 29.03 3
    endloop
  endfacet
  facet normal 0 1 -0
    outer loop
      vertex 2 29.03 0
      vertex 1.5 29.03 3
      vertex 2 29.03 3
    endloop
  endfacet
  facet normal 0 1 0
    outer loop
      vertex 1.5 29.03 3
      vertex 2 29.03 0
      vertex 1.5 29.03 0
    endloop
  endfacet
  facet normal 0 -1 0
    outer loop
      vertex 1.5 31.03 0
      vertex 2 31.03 3
      vertex 1.5 31.03 3
    endloop
  endfacet
  facet normal 0 -1 -0
    outer loop
      vertex 2 31.03 3
      vertex 1.5 31.03 0
      vertex 2 31.03 0
    endloop
  endfacet
  facet normal 1 -0 0
    outer loop
      vertex 17 29.03 3
      vertex 17 31.03 0
      vertex 17 31.03 3
    endloop
  endfacet
  facet normal 1 0 0
    outer loop
      vertex 17 31.03 0
      vertex 17 29.03 3
      vertex 17 29.03 0
    endloop
  endfacet
  facet normal 0 1 -0
    outer loop
      vertex 17.5 29.03 0
      vertex 17 29.03 3
      vertex 17.5 29.03 3
    endloop
  endfacet
  facet normal 0 1 0
    outer loop
      vertex 17 29.03 3
      vertex 17.5 29.03 0
      vertex 17 29.03 0
    endloop
  endfacet
  facet normal 0 -1 0
    outer loop
      vertex 17 31.03 0
      vertex 17.5 31.03 3
      vertex 17 31.03 3
    endloop
  endfacet
  facet normal 0 -1 -0
    outer loop
      vertex 17.5 31.03 3
      vertex 17 31.03 0
      vertex 17.5 31.03 0
    endloop
  endfacet
  facet normal -1 0 0
    outer loop
      vertex 2 31.57 0
      vertex 2 33.57 3
      vertex 2 33.57 0
    endloop
  endfacet
  facet normal -1 -0 0
    outer loop
      vertex 2 33.57 3
      vertex 2 31.57 0
      vertex 2 31.57 3
    endloop
  endfacet
  facet normal 0 -1 0
    outer loop
      vertex 1.5 33.57 0
      vertex 2 33.57 3
      vertex 1.5 33.57 3
    endloop
  endfacet
  facet normal 0 -1 -0
    outer loop
      vertex 2 33.57 3
      vertex 1.5 33.57 0
      vertex 2 33.57 0
    endloop
  endfacet
  facet normal 0 1 -0
    outer loop
      vertex 2 31.57 0
      vertex 1.5 31.57 3
      vertex 2 31.57 3
    endloop
  endfacet
  facet normal 0 1 0
    outer loop
      vertex 1.5 31.57 3
      vertex 2 31.57 0
      vertex 1.5 31.57 0
    endloop
  endfacet
  facet normal 1 -0 0
    outer loop
      vertex 17 31.57 3
      vertex 17 33.57 0
      vertex 17 33.57 3
    endloop
  endfacet
  facet normal 1 0 0
    outer loop
      vertex 17 33.57 0
      vertex 17 31.57 3
      vertex 17 31.57 0
    endloop
  endfacet
  facet normal 0 -1 0
    outer loop
      vertex 17 33.57 0
      vertex 17.5 33.57 3
      vertex 17 33.57 3
    endloop
  endfacet
  facet normal 0 -1 -0
    outer loop
      vertex 17.5 33.57 3
      vertex 17 33.57 0
      vertex 17.5 33.57 0
    endloop
  endfacet
  facet normal 0 1 -0
    outer loop
      vertex 17.5 31.57 0
      vertex 17 31.57 3
      vertex 17.5 31.57 3
    endloop
  endfacet
  facet normal 0 1 0
    outer loop
      vertex 17 31.57 3
      vertex 17.5 31.57 0
      vertex 17 31.57 0
    endloop
  endfacet
  facet normal -1 0 0
    outer loop
      vertex 2 34.11 0
      vertex 2 36.11 3
      vertex 2 36.11 0
    endloop
  endfacet
  facet normal -1 -0 0
    outer loop
      vertex 2 36.11 3
      vertex 2 34.11 0
      vertex 2 34.11 3
    endloop
  endfacet
  facet normal 0 -1 0
    outer loop
      vertex 1.5 36.11 0
      vertex 2 36.11 3
      vertex 1.5 36.11 3
    endloop
  endfacet
  facet normal 0 -1 -0
    outer loop
      vertex 2 36.11 3
      vertex 1.5 36.11 0
      vertex 2 36.11 0
    endloop
  endfacet
  facet normal 0 1 -0
    outer loop
      vertex 2 34.11 0
      vertex 1.5 34.11 3
      vertex 2 34.11 3
    endloop
  endfacet
  facet normal 0 1 0
    outer loop
      vertex 1.5 34.11 3
      vertex 2 34.11 0
      vertex 1.5 34.11 0
    endloop
  endfacet
  facet normal 1 -0 0
    outer loop
      vertex 17 34.11 3
      vertex 17 36.11 0
      vertex 17 36.11 3
    endloop
  endfacet
  facet normal 1 0 0
    outer loop
      vertex 17 36.11 0
      vertex 17 34.11 3
      vertex 17 34.11 0
    endloop
  endfacet
  facet normal 0 -1 0
    outer loop
      vertex 17 36.11 0
      vertex 17.5 36.11 3
      vertex 17 36.11 3
    endloop
  endfacet
  facet normal 0 -1 -0
    outer loop
      vertex 17.5 36.11 3
      vertex 17 36.11 0
      vertex 17.5 36.11 0
    endloop
  endfacet
  facet normal 0 1 -0
    outer loop
      vertex 17.5 34.11 0
      vertex 17 34.11 3
      vertex 17.5 34.11 3
    endloop
  endfacet
  facet normal 0 1 0
    outer loop
      vertex 17 34.11 3
      vertex 17.5 34.11 0
      vertex 17 34.11 0
    endloop
  endfacet
  facet normal -1 0 0
    outer loop
      vertex 1.5 0.5 0
      vertex 1.5 1.09 3
      vertex 1.5 1.09 0
    endloop
  endfacet
  facet normal -1 -0 0
    outer loop
      vertex 1.5 1.09 3
      vertex 1.5 0.5 0
      vertex 1.5 0.5 3
    endloop
  endfacet
  facet normal -1 0 0
    outer loop
      vertex 1.5 36.11 0
      vertex 1.5 36.8 3
      vertex 1.5 36.8 0
    endloop
  endfacet
  facet normal -1 -0 0
    outer loop
      vertex 1.5 36.8 3
      vertex 1.5 36.11 0
      vertex 1.5 36.11 3
    endloop
  endfacet
  facet normal -1 0 0
    outer loop
      vertex 1.5 3.09 0
      vertex 1.5 3.63 3
      vertex 1.5 3.63 0
    endloop
  endfacet
  facet normal -1 -0 0
    outer loop
      vertex 1.5 3.63 3
      vertex 1.5 3.09 0
      vertex 1.5 3.09 3
    endloop
  endfacet
  facet normal -1 0 0
    outer loop
      vertex 1.5 5.63 0
      vertex 1.5 6.17 3
      vertex 1.5 6.17 0
    endloop
  endfacet
  facet normal -1 -0 0
    outer loop
      vertex 1.5 6.17 3
      vertex 1.5 5.63 0
      vertex 1.5 5.63 3
    endloop
  endfacet
  facet normal -1 0 0
    outer loop
      vertex 1.5 8.17 0
      vertex 1.5 8.71 3
      vertex 1.5 8.71 0
    endloop
  endfacet
  facet normal -1 -0 0
    outer loop
      vertex 1.5 8.71 3
      vertex 1.5 8.17 0
      vertex 1.5 8.17 3
    endloop
  endfacet
  facet normal -1 0 0
    outer loop
      vertex 1.5 10.71 0
      vertex 1.5 11.25 3
      vertex 1.5 11.25 0
    endloop
  endfacet
  facet normal -1 -0 0
    outer loop
      vertex 1.5 11.25 3
      vertex 1.5 10.71 0
      vertex 1.5 10.71 3
    endloop
  endfacet
  facet normal -1 0 0
    outer loop
      vertex 1.5 13.25 0
      vertex 1.5 13.79 3
      vertex 1.5 13.79 0
    endloop
  endfacet
  facet normal -1 -0 0
    outer loop
      vertex 1.5 13.79 3
      vertex 1.5 13.25 0
      vertex 1.5 13.25 3
    endloop
  endfacet
  facet normal -1 0 0
    outer loop
      vertex 1.5 15.79 0
      vertex 1.5 16.33 3
      vertex 1.5 16.33 0
    endloop
  endfacet
  facet normal -1 -0 0
    outer loop
      vertex 1.5 16.33 3
      vertex 1.5 15.79 0
      vertex 1.5 15.79 3
    endloop
  endfacet
  facet normal -1 0 0
    outer loop
      vertex 1.5 18.33 0
      vertex 1.5 18.87 3
      vertex 1.5 18.87 0
    endloop
  endfacet
  facet normal -1 -0 0
    outer loop
      vertex 1.5 18.87 3
      vertex 1.5 18.33 0
      vertex 1.5 18.33 3
    endloop
  endfacet
  facet normal -1 0 0
    outer loop
      vertex 1.5 20.87 0
      vertex 1.5 21.41 3
      vertex 1.5 21.41 0
    endloop
  endfacet
  facet normal -1 -0 0
    outer loop
      vertex 1.5 21.41 3
      vertex 1.5 20.87 0
      vertex 1.5 20.87 3
    endloop
  endfacet
  facet normal -1 0 0
    outer loop
      vertex 1.5 23.41 0
      vertex 1.5 23.95 3
      vertex 1.5 23.95 0
    endloop
  endfacet
  facet normal -1 -0 0
    outer loop
      vertex 1.5 23.95 3
      vertex 1.5 23.41 0
      vertex 1.5 23.41 3
    endloop
  endfacet
  facet normal -1 0 0
    outer loop
      vertex 1.5 25.95 0
      vertex 1.5 26.49 3
      vertex 1.5 26.49 0
    endloop
  endfacet
  facet normal -1 -0 0
    outer loop
      vertex 1.5 26.49 3
      vertex 1.5 25.95 0
      vertex 1.5 25.95 3
    endloop
  endfacet
  facet normal -1 0 0
    outer loop
      vertex 1.5 28.49 0
      vertex 1.5 29.03 3
      vertex 1.5 29.03 0
    endloop
  endfacet
  facet normal -1 -0 0
    outer loop
      vertex 1.5 29.03 3
      vertex 1.5 28.49 0
      vertex 1.5 28.49 3
    endloop
  endfacet
  facet normal -1 0 0
    outer loop
      vertex 1.5 31.03 0
      vertex 1.5 31.57 3
      vertex 1.5 31.57 0
    endloop
  endfacet
  facet normal -1 -0 0
    outer loop
      vertex 1.5 31.57 3
      vertex 1.5 31.03 0
      vertex 1.5 31.03 3
    endloop
  endfacet
  facet normal -1 0 0
    outer loop
      vertex 1.5 33.57 0
      vertex 1.5 34.11 3
      vertex 1.5 34.11 0
    endloop
  endfacet
  facet normal -1 -0 0
    outer loop
      vertex 1.5 34.11 3
      vertex 1.5 33.57 0
      vertex 1.5 33.57 3
    endloop
  endfacet
  facet normal -0 0 1
    outer loop
      vertex 1.5 1.09 3
      vertex 1.8 0.5 3
      vertex 2 1.09 3
    endloop
  endfacet
  facet normal 0 0 1
    outer loop
      vertex 1.8 0.5 3
      vertex 1.5 1.09 3
      vertex 1.5 0.5 3
    endloop
  endfacet
  facet normal -0 0 1
    outer loop
      vertex 1.5 3.63 3
      vertex 2 3.09 3
      vertex 2 3.63 3
    endloop
  endfacet
  facet normal 0 0 1
    outer loop
      vertex 2 3.09 3
      vertex 1.5 3.63 3
      vertex 1.5 3.09 3
    endloop
  endfacet
  facet normal -0 0 1
    outer loop
      vertex 1.5 6.17 3
      vertex 2 5.63 3
      vertex 2 6.17 3
    endloop
  endfacet
  facet normal 0 0 1
    outer loop
      vertex 2 5.63 3
      vertex 1.5 6.17 3
      vertex 1.5 5.63 3
    endloop
  endfacet
  facet normal -0 0 1
    outer loop
      vertex 1.5 8.71 3
      vertex 2 8.17 3
      vertex 2 8.71 3
    endloop
  endfacet
  facet normal 0 0 1
    outer loop
      vertex 2 8.17 3
      vertex 1.5 8.71 3
      vertex 1.5 8.17 3
    endloop
  endfacet
  facet normal -0 0 1
    outer loop
      vertex 1.5 11.25 3
      vertex 2 10.71 3
      vertex 2 11.25 3
    endloop
  endfacet
  facet normal 0 0 1
    outer loop
      vertex 2 10.71 3
      vertex 1.5 11.25 3
      vertex 1.5 10.71 3
    endloop
  endfacet
  facet normal -0 0 1
    outer loop
      vertex 1.5 13.79 3
      vertex 2 13.25 3
      vertex 2 13.79 3
    endloop
  endfacet
  facet normal 0 0 1
    outer loop
      vertex 2 13.25 3
      vertex 1.5 13.79 3
      vertex 1.5 13.25 3
    endloop
  endfacet
  facet normal -0 0 1
    outer loop
      vertex 1.5 16.33 3
      vertex 2 15.79 3
      vertex 2 16.33 3
    endloop
  endfacet
  facet normal 0 0 1
    outer loop
      vertex 2 15.79 3
      vertex 1.5 16.33 3
      vertex 1.5 15.79 3
    endloop
  endfacet
  facet normal -0 0 1
    outer loop
      vertex 1.5 18.87 3
      vertex 2 18.33 3
      vertex 2 18.87 3
    endloop
  endfacet
  facet normal 0 0 1
    outer loop
      vertex 2 18.33 3
      vertex 1.5 18.87 3
      vertex 1.5 18.33 3
    endloop
  endfacet
  facet normal -0 0 1
    outer loop
      vertex 1.5 21.41 3
      vertex 2 20.87 3
      vertex 2 21.41 3
    endloop
  endfacet
  facet normal 0 0 1
    outer loop
      vertex 2 20.87 3
      vertex 1.5 21.41 3
      vertex 1.5 20.87 3
    endloop
  endfacet
  facet normal -0 0 1
    outer loop
      vertex 1.5 23.95 3
      vertex 2 23.41 3
      vertex 2 23.95 3
    endloop
  endfacet
  facet normal 0 0 1
    outer loop
      vertex 2 23.41 3
      vertex 1.5 23.95 3
      vertex 1.5 23.41 3
    endloop
  endfacet
  facet normal -0 0 1
    outer loop
      vertex 1.5 26.49 3
      vertex 2 25.95 3
      vertex 2 26.49 3
    endloop
  endfacet
  facet normal 0 0 1
    outer loop
      vertex 2 25.95 3
      vertex 1.5 26.49 3
      vertex 1.5 25.95 3
    endloop
  endfacet
  facet normal -0 0 1
    outer loop
      vertex 1.5 29.03 3
      vertex 2 28.49 3
      vertex 2 29.03 3
    endloop
  endfacet
  facet normal 0 0 1
    outer loop
      vertex 2 28.49 3
      vertex 1.5 29.03 3
      vertex 1.5 28.49 3
    endloop
  endfacet
  facet normal -0 0 1
    outer loop
      vertex 1.5 31.57 3
      vertex 2 31.03 3
      vertex 2 31.57 3
    endloop
  endfacet
  facet normal 0 0 1
    outer loop
      vertex 2 31.03 3
      vertex 1.5 31.57 3
      vertex 1.5 31.03 3
    endloop
  endfacet
  facet normal -0 0 1
    outer loop
      vertex 1.5 34.11 3
      vertex 2 33.57 3
      vertex 2 34.11 3
    endloop
  endfacet
  facet normal 0 0 1
    outer loop
      vertex 2 33.57 3
      vertex 1.5 34.11 3
      vertex 1.5 33.57 3
    endloop
  endfacet
  facet normal 0 0 1
    outer loop
      vertex 17.2 37.3 3
      vertex 17 36.11 3
      vertex 17.2 36.8 3
    endloop
  endfacet
  facet normal 0 0 1
    outer loop
      vertex 2 34.11 3
      vertex 17 34.11 3
      vertex 17 36.11 3
    endloop
  endfacet
  facet normal 0 0 1
    outer loop
      vertex 17 34.11 3
      vertex 2 34.11 3
      vertex 17 33.57 3
    endloop
  endfacet
  facet normal 0 0 1
    outer loop
      vertex 17 33.57 3
      vertex 2 33.57 3
      vertex 17 31.57 3
    endloop
  endfacet
  facet normal 0 0 1
    outer loop
      vertex 2 31.57 3
      vertex 17 31.57 3
      vertex 2 33.57 3
    endloop
  endfacet
  facet normal 0 0 1
    outer loop
      vertex 2 31.03 3
      vertex 17 31.03 3
      vertex 2 31.57 3
    endloop
  endfacet
  facet normal 0 0 1
    outer loop
      vertex 17 31.03 3
      vertex 2 31.03 3
      vertex 17 29.03 3
    endloop
  endfacet
  facet normal 0 0 1
    outer loop
      vertex 17 29.03 3
      vertex 2 29.03 3
      vertex 17 28.49 3
    endloop
  endfacet
  facet normal 0 0 1
    outer loop
      vertex 2 28.49 3
      vertex 17 28.49 3
      vertex 2 29.03 3
    endloop
  endfacet
  facet normal 0 0 1
    outer loop
      vertex 2 26.49 3
      vertex 17 26.49 3
      vertex 2 28.49 3
    endloop
  endfacet
  facet normal 0 0 1
    outer loop
      vertex 17 26.49 3
      vertex 2 26.49 3
      vertex 17 25.95 3
    endloop
  endfacet
  facet normal 0 0 1
    outer loop
      vertex 17 25.95 3
      vertex 2 25.95 3
      vertex 17 23.95 3
    endloop
  endfacet
  facet normal 0 0 1
    outer loop
      vertex 2 23.95 3
      vertex 17 23.95 3
      vertex 2 25.95 3
    endloop
  endfacet
  facet normal 0 0 1
    outer loop
      vertex 2 23.41 3
      vertex 17 23.41 3
      vertex 2 23.95 3
    endloop
  endfacet
  facet normal 0 0 1
    outer loop
      vertex 17 23.41 3
      vertex 2 23.41 3
      vertex 17 21.41 3
    endloop
  endfacet
  facet normal 0 0 1
    outer loop
      vertex 17 21.41 3
      vertex 2 21.41 3
      vertex 17 20.87 3
    endloop
  endfacet
  facet normal 0 0 1
    outer loop
      vertex 2 20.87 3
      vertex 17 20.87 3
      vertex 2 21.41 3
    endloop
  endfacet
  facet normal 0 0 1
    outer loop
      vertex 2 18.87 3
      vertex 17 18.87 3
      vertex 2 20.87 3
    endloop
  endfacet
  facet normal 0 0 1
    outer loop
      vertex 17 18.87 3
      vertex 2 18.87 3
      vertex 17 18.33 3
    endloop
  endfacet
  facet normal 0 0 1
    outer loop
      vertex 17 18.33 3
      vertex 2 18.33 3
      vertex 17 16.33 3
    endloop
  endfacet
  facet normal 0 0 1
    outer loop
      vertex 2 16.33 3
      vertex 17 16.33 3
      vertex 2 18.33 3
    endloop
  endfacet
  facet normal 0 0 1
    outer loop
      vertex 2 15.79 3
      vertex 17 15.79 3
      vertex 2 16.33 3
    endloop
  endfacet
  facet normal 0 0 1
    outer loop
      vertex 17 15.79 3
      vertex 2 15.79 3
      vertex 17 13.79 3
    endloop
  endfacet
  facet normal 0 0 1
    outer loop
      vertex 17 13.79 3
      vertex 2 13.79 3
      vertex 17 13.25 3
    endloop
  endfacet
  facet normal 0 0 1
    outer loop
      vertex 2 13.25 3
      vertex 17 13.25 3
      vertex 2 13.79 3
    endloop
  endfacet
  facet normal 0 0 1
    outer loop
      vertex 2 11.25 3
      vertex 17 11.25 3
      vertex 2 13.25 3
    endloop
  endfacet
  facet normal 0 0 1
    outer loop
      vertex 17 11.25 3
      vertex 2 11.25 3
      vertex 17 10.71 3
    endloop
  endfacet
  facet normal 0 0 1
    outer loop
      vertex 2 34.11 3
      vertex 17 36.11 3
      vertex 2 36.11 3
    endloop
  endfacet
  facet normal 0 0 1
    outer loop
      vertex 17.2 37.3 3
      vertex 2 36.11 3
      vertex 17 36.11 3
    endloop
  endfacet
  facet normal -0 0 1
    outer loop
      vertex 1.8 37.3 3
      vertex 2 36.11 3
      vertex 17.2 37.3 3
    endloop
  endfacet
  facet normal -0 0 1
    outer loop
      vertex 1.8 36.8 3
      vertex 2 36.11 3
      vertex 1.8 37.3 3
    endloop
  endfacet
  facet normal 0 0 1
    outer loop
      vertex 1.5 36.11 3
      vertex 1.8 36.8 3
      vertex 1.5 36.8 3
    endloop
  endfacet
  facet normal 0 0 1
    outer loop
      vertex 1.8 36.8 3
      vertex 1.5 36.11 3
      vertex 2 36.11 3
    endloop
  endfacet
  facet normal -0 0 1
    outer loop
      vertex 17.2 36.8 3
      vertex 17.5 36.11 3
      vertex 17.5 36.8 3
    endloop
  endfacet
  facet normal 0 0 1
    outer loop
      vertex 17.5 36.11 3
      vertex 17.2 36.8 3
      vertex 17 36.11 3
    endloop
  endfacet
  facet normal -0 0 1
    outer loop
      vertex 17 34.11 3
      vertex 17.5 33.57 3
      vertex 17.5 34.11 3
    endloop
  endfacet
  facet normal 0 0 1
    outer loop
      vertex 17.5 33.57 3
      vertex 17 34.11 3
      vertex 17 33.57 3
    endloop
  endfacet
  facet normal -0 0 1
    outer loop
      vertex 17 31.57 3
      vertex 17.5 31.03 3
      vertex 17.5 31.57 3
    endloop
  endfacet
  facet normal 0 0 1
    outer loop
      vertex 17.5 31.03 3
      vertex 17 31.57 3
      vertex 17 31.03 3
    endloop
  endfacet
  facet normal -0 0 1
    outer loop
      vertex 17 29.03 3
      vertex 17.5 28.49 3
      vertex 17.5 29.03 3
    endloop
  endfacet
  facet normal 0 0 1
    outer loop
      vertex 17.5 28.49 3
      vertex 17 29.03 3
      vertex 17 28.49 3
    endloop
  endfacet
  facet normal -0 0 1
    outer loop
      vertex 17 26.49 3
      vertex 17.5 25.95 3
      vertex 17.5 26.49 3
    endloop
  endfacet
  facet normal 0 0 1
    outer loop
      vertex 17.5 25.95 3
      vertex 17 26.49 3
      vertex 17 25.95 3
    endloop
  endfacet
  facet normal -0 0 1
    outer loop
      vertex 17 23.95 3
      vertex 17.5 23.41 3
      vertex 17.5 23.95 3
    endloop
  endfacet
  facet normal 0 0 1
    outer loop
      vertex 17.5 23.41 3
      vertex 17 23.95 3
      vertex 17 23.41 3
    endloop
  endfacet
  facet normal -0 0 1
    outer loop
      vertex 17 21.41 3
      vertex 17.5 20.87 3
      vertex 17.5 21.41 3
    endloop
  endfacet
  facet normal 0 0 1
    outer loop
      vertex 17.5 20.87 3
      vertex 17 21.41 3
      vertex 17 20.87 3
    endloop
  endfacet
  facet normal -0 0 1
    outer loop
      vertex 17 18.87 3
      vertex 17.5 18.33 3
      vertex 17.5 18.87 3
    endloop
  endfacet
  facet normal 0 0 1
    outer loop
      vertex 17.5 18.33 3
      vertex 17 18.87 3
      vertex 17 18.33 3
    endloop
  endfacet
  facet normal -0 0 1
    outer loop
      vertex 17 16.33 3
      vertex 17.5 15.79 3
      vertex 17.5 16.33 3
    endloop
  endfacet
  facet normal 0 0 1
    outer loop
      vertex 17.5 15.79 3
      vertex 17 16.33 3
      vertex 17 15.79 3
    endloop
  endfacet
  facet normal -0 0 1
    outer loop
      vertex 17 13.79 3
      vertex 17.5 13.25 3
      vertex 17.5 13.79 3
    endloop
  endfacet
  facet normal 0 0 1
    outer loop
      vertex 17.5 13.25 3
      vertex 17 13.79 3
      vertex 17 13.25 3
    endloop
  endfacet
  facet normal -0 0 1
    outer loop
      vertex 17 11.25 3
      vertex 17.5 10.71 3
      vertex 17.5 11.25 3
    endloop
  endfacet
  facet normal 0 0 1
    outer loop
      vertex 17.5 10.71 3
      vertex 17 11.25 3
      vertex 17 10.71 3
    endloop
  endfacet
  facet normal -0 0 1
    outer loop
      vertex 17 8.71 3
      vertex 17.5 8.17 3
      vertex 17.5 8.71 3
    endloop
  endfacet
  facet normal 0 0 1
    outer loop
      vertex 17.5 8.17 3
      vertex 17 8.71 3
      vertex 17 8.17 3
    endloop
  endfacet
  facet normal -0 0 1
    outer loop
      vertex 17 6.17 3
      vertex 17.5 5.63 3
      vertex 17.5 6.17 3
    endloop
  endfacet
  facet normal 0 0 1
    outer loop
      vertex 17.5 5.63 3
      vertex 17 6.17 3
      vertex 17 5.63 3
    endloop
  endfacet
  facet normal -0 0 1
    outer loop
      vertex 17 3.63 3
      vertex 17.5 3.09 3
      vertex 17.5 3.63 3
    endloop
  endfacet
  facet normal 0 0 1
    outer loop
      vertex 17.5 3.09 3
      vertex 17 3.63 3
      vertex 17 3.09 3
    endloop
  endfacet
  facet normal 0 0 1
    outer loop
      vertex 17.5 1.09 3
      vertex 17.2 0.5 3
      vertex 17.5 0.5 3
    endloop
  endfacet
  facet normal -0 0 1
    outer loop
      vertex 17 1.09 3
      vertex 17.2 0.5 3
      vertex 17.5 1.09 3
    endloop
  endfacet
  facet normal 0 0 1
    outer loop
      vertex 17 1.09 3
      vertex 17.2 0 3
      vertex 17.2 0.5 3
    endloop
  endfacet
  facet normal 0 0 1
    outer loop
      vertex 17 33.57 3
      vertex 2 34.11 3
      vertex 2 33.57 3
    endloop
  endfacet
  facet normal 0 0 1
    outer loop
      vertex 17 31.57 3
      vertex 2 31.57 3
      vertex 17 31.03 3
    endloop
  endfacet
  facet normal 0 0 1
    outer loop
      vertex 2 29.03 3
      vertex 17 29.03 3
      vertex 2 31.03 3
    endloop
  endfacet
  facet normal 0 0 1
    outer loop
      vertex 17 28.49 3
      vertex 2 28.49 3
      vertex 17 26.49 3
    endloop
  endfacet
  facet normal 0 0 1
    outer loop
      vertex 2 25.95 3
      vertex 17 25.95 3
      vertex 2 26.49 3
    endloop
  endfacet
  facet normal 0 0 1
    outer loop
      vertex 17 23.95 3
      vertex 2 23.95 3
      vertex 17 23.41 3
    endloop
  endfacet
  facet normal 0 0 1
    outer loop
      vertex 2 21.41 3
      vertex 17 21.41 3
      vertex 2 23.41 3
    endloop
  endfacet
  facet normal 0 0 1
    outer loop
      vertex 17 20.87 3
      vertex 2 20.87 3
      vertex 17 18.87 3
    endloop
  endfacet
  facet normal 0 0 1
    outer loop
      vertex 2 18.33 3
      vertex 17 18.33 3
      vertex 2 18.87 3
    endloop
  endfacet
  facet normal 0 0 1
    outer loop
      vertex 17 16.33 3
      vertex 2 16.33 3
      vertex 17 15.79 3
    endloop
  endfacet
  facet normal 0 0 1
    outer loop
      vertex 2 13.79 3
      vertex 17 13.79 3
      vertex 2 15.79 3
    endloop
  endfacet
  facet normal 0 0 1
    outer loop
      vertex 17 13.25 3
      vertex 2 13.25 3
      vertex 17 11.25 3
    endloop
  endfacet
  facet normal 0 0 1
    outer loop
      vertex 2 10.71 3
      vertex 17 10.71 3
      vertex 2 11.25 3
    endloop
  endfacet
  facet normal 0 0 1
    outer loop
      vertex 17 10.71 3
      vertex 2 10.71 3
      vertex 17 8.71 3
    endloop
  endfacet
  facet normal 0 0 1
    outer loop
      vertex 2 8.71 3
      vertex 17 8.71 3
      vertex 2 10.71 3
    endloop
  endfacet
  facet normal 0 0 1
    outer loop
      vertex 17 8.71 3
      vertex 2 8.71 3
      vertex 17 8.17 3
    endloop
  endfacet
  facet normal 0 0 1
    outer loop
      vertex 2 8.17 3
      vertex 17 8.17 3
      vertex 2 8.71 3
    endloop
  endfacet
  facet normal 0 0 1
    outer loop
      vertex 17 8.17 3
      vertex 2 8.17 3
      vertex 17 6.17 3
    endloop
  endfacet
  facet normal 0 0 1
    outer loop
      vertex 2 6.17 3
      vertex 17 6.17 3
      vertex 2 8.17 3
    endloop
  endfacet
  facet normal 0 0 1
    outer loop
      vertex 17 6.17 3
      vertex 2 6.17 3
      vertex 17 5.63 3
    endloop
  endfacet
  facet normal 0 0 1
    outer loop
      vertex 2 5.63 3
      vertex 17 5.63 3
      vertex 2 6.17 3
    endloop
  endfacet
  facet normal 0 0 1
    outer loop
      vertex 17 5.63 3
      vertex 2 5.63 3
      vertex 17 3.63 3
    endloop
  endfacet
  facet normal 0 0 1
    outer loop
      vertex 2 3.63 3
      vertex 17 3.63 3
      vertex 2 5.63 3
    endloop
  endfacet
  facet normal 0 0 1
    outer loop
      vertex 17 3.63 3
      vertex 2 3.63 3
      vertex 17 3.09 3
    endloop
  endfacet
  facet normal 0 0 1
    outer loop
      vertex 2 3.09 3
      vertex 17 3.09 3
      vertex 2 3.63 3
    endloop
  endfacet
  facet normal 0 0 1
    outer loop
      vertex 17 3.09 3
      vertex 2 3.09 3
      vertex 17 1.09 3
    endloop
  endfacet
  facet normal 0 0 1
    outer loop
      vertex 2 1.09 3
      vertex 17 1.09 3
      vertex 2 3.09 3
    endloop
  endfacet
  facet normal 0 0 1
    outer loop
      vertex 17 1.09 3
      vertex 2 1.09 3
      vertex 17.2 0 3
    endloop
  endfacet
  facet normal 0 0 1
    outer loop
      vertex 1.8 0 3
      vertex 2 1.09 3
      vertex 1.8 0.5 3
    endloop
  endfacet
  facet normal 0 0 1
    outer loop
      vertex 2 1.09 3
      vertex 1.8 0 3
      vertex 17.2 0 3
    endloop
  endfacet
  facet normal 1 -0 0
    outer loop
      vertex 17.5 0.5 3
      vertex 17.5 1.09 0
      vertex 17.5 1.09 3
    endloop
  endfacet
  facet normal 1 0 0
    outer loop
      vertex 17.5 1.09 0
      vertex 17.5 0.5 3
      vertex 17.5 0.5 0
    endloop
  endfacet
  facet normal 1 -0 0
    outer loop
      vertex 17.5 36.11 3
      vertex 17.5 36.8 0
      vertex 17.5 36.8 3
    endloop
  endfacet
  facet normal 1 0 0
    outer loop
      vertex 17.5 36.8 0
      vertex 17.5 36.11 3
      vertex 17.5 36.11 0
    endloop
  endfacet
  facet normal 1 -0 0
    outer loop
      vertex 17.5 3.09 3
      vertex 17.5 3.63 0
      vertex 17.5 3.63 3
    endloop
  endfacet
  facet normal 1 0 0
    outer loop
      vertex 17.5 3.63 0
      vertex 17.5 3.09 3
      vertex 17.5 3.09 0
    endloop
  endfacet
  facet normal 1 -0 0
    outer loop
      vertex 17.5 5.63 3
      vertex 17.5 6.17 0
      vertex 17.5 6.17 3
    endloop
  endfacet
  facet normal 1 0 0
    outer loop
      vertex 17.5 6.17 0
      vertex 17.5 5.63 3
      vertex 17.5 5.63 0
    endloop
  endfacet
  facet normal 1 -0 0
    outer loop
      vertex 17.5 8.17 3
      vertex 17.5 8.71 0
      vertex 17.5 8.71 3
    endloop
  endfacet
  facet normal 1 0 0
    outer loop
      vertex 17.5 8.71 0
      vertex 17.5 8.17 3
      vertex 17.5 8.17 0
    endloop
  endfacet
  facet normal 1 -0 0
    outer loop
      vertex 17.5 10.71 3
      vertex 17.5 11.25 0
      vertex 17.5 11.25 3
    endloop
  endfacet
  facet normal 1 0 0
    outer loop
      vertex 17.5 11.25 0
      vertex 17.5 10.71 3
      vertex 17.5 10.71 0
    endloop
  endfacet
  facet normal 1 -0 0
    outer loop
      vertex 17.5 13.25 3
      vertex 17.5 13.79 0
      vertex 17.5 13.79 3
    endloop
  endfacet
  facet normal 1 0 0
    outer loop
      vertex 17.5 13.79 0
      vertex 17.5 13.25 3
      vertex 17.5 13.25 0
    endloop
  endfacet
  facet normal 1 -0 0
    outer loop
      vertex 17.5 15.79 3
      vertex 17.5 16.33 0
      vertex 17.5 16.33 3
    endloop
  endfacet
  facet normal 1 0 0
    outer loop
      vertex 17.5 16.33 0
      vertex 17.5 15.79 3
      vertex 17.5 15.79 0
    endloop
  endfacet
  facet normal 1 -0 0
    outer loop
      vertex 17.5 18.33 3
      vertex 17.5 18.87 0
      vertex 17.5 18.87 3
    endloop
  endfacet
  facet normal 1 0 0
    outer loop
      vertex 17.5 18.87 0
      vertex 17.5 18.33 3
      vertex 17.5 18.33 0
    endloop
  endfacet
  facet normal 1 -0 0
    outer loop
      vertex 17.5 20.87 3
      vertex 17.5 21.41 0
      vertex 17.5 21.41 3
    endloop
  endfacet
  facet normal 1 0 0
    outer loop
      vertex 17.5 21.41 0
      vertex 17.5 20.87 3
      vertex 17.5 20.87 0
    endloop
  endfacet
  facet normal 1 -0 0
    outer loop
      vertex 17.5 23.41 3
      vertex 17.5 23.95 0
      vertex 17.5 23.95 3
    endloop
  endfacet
  facet normal 1 0 0
    outer loop
      vertex 17.5 23.95 0
      vertex 17.5 23.41 3
      vertex 17.5 23.41 0
    endloop
  endfacet
  facet normal 1 -0 0
    outer loop
      vertex 17.5 25.95 3
      vertex 17.5 26.49 0
      vertex 17.5 26.49 3
    endloop
  endfacet
  facet normal 1 0 0
    outer loop
      vertex 17.5 26.49 0
      vertex 17.5 25.95 3
      vertex 17.5 25.95 0
    endloop
  endfacet
  facet normal 1 -0 0
    outer loop
      vertex 17.5 28.49 3
      vertex 17.5 29.03 0
      vertex 17.5 29.03 3
    endloop
  endfacet
  facet normal 1 0 0
    outer loop
      vertex 17.5 29.03 0
      vertex 17.5 28.49 3
      vertex 17.5 28.49 0
    endloop
  endfacet
  facet normal 1 -0 0
    outer loop
      vertex 17.5 31.03 3
      vertex 17.5 31.57 0
      vertex 17.5 31.57 3
    endloop
  endfacet
  facet normal 1 0 0
    outer loop
      vertex 17.5 31.57 0
      vertex 17.5 31.03 3
      vertex 17.5 31.03 0
    endloop
  endfacet
  facet normal 1 -0 0
    outer loop
      vertex 17.5 33.57 3
      vertex 17.5 34.11 0
      vertex 17.5 34.11 3
    endloop
  endfacet
  facet normal 1 0 0
    outer loop
      vertex 17.5 34.11 0
      vertex 17.5 33.57 3
      vertex 17.5 33.57 0
    endloop
  endfacet
  facet normal 0 1 -0
    outer loop
      vertex 17.2 37.3 0
      vertex 1.8 37.3 3
      vertex 17.2 37.3 3
    endloop
  endfacet
  facet normal 0 1 0
    outer loop
      vertex 1.8 37.3 3
      vertex 17.2 37.3 0
      vertex 1.8 37.3 0
    endloop
  endfacet
  facet normal 1 -0 0
    outer loop
      vertex 19 36.8 7.8
      vertex 19 38.3 0
      vertex 19 38.3 7.8
    endloop
  endfacet
  facet normal 1 0 0
    outer loop
      vertex 19 38.3 0
      vertex 19 36.8 7.8
      vertex 19 36.8 0
    endloop
  endfacet
  facet normal 0 0 1
    outer loop
      vertex 14 42.3 7.8
      vertex 5 42.3 7.8
      vertex 14 38.3 7.8
    endloop
  endfacet
  facet normal 0 0 1
    outer loop
      vertex 19 38.3 7.8
      vertex 17.2 37.3 7.8
      vertex 19 36.8 7.8
    endloop
  endfacet
  facet normal -0 0 1
    outer loop
      vertex 14 38.3 7.8
      vertex 17.2 37.3 7.8
      vertex 19 38.3 7.8
    endloop
  endfacet
  facet normal 0 0 1
    outer loop
      vertex 5 38.3 7.8
      vertex 14 38.3 7.8
      vertex 5 42.3 7.8
    endloop
  endfacet
  facet normal -0 0 1
    outer loop
      vertex 5 38.3 7.8
      vertex 17.2 37.3 7.8
      vertex 14 38.3 7.8
    endloop
  endfacet
  facet normal 0 0 1
    outer loop
      vertex 5 38.3 7.8
      vertex 1.8 37.3 7.8
      vertex 17.2 37.3 7.8
    endloop
  endfacet
  facet normal -0 0 1
    outer loop
      vertex 0 38.3 7.8
      vertex 1.8 37.3 7.8
      vertex 5 38.3 7.8
    endloop
  endfacet
  facet normal 0 0 1
    outer loop
      vertex -1.83697e-16 36.8 7.8
      vertex 1.8 37.3 7.8
      vertex 0 38.3 7.8
    endloop
  endfacet
  facet normal 0 0 1
    outer loop
      vertex 1.8 37.3 7.8
      vertex -1.83697e-16 36.8 7.8
      vertex 1.8 36.8 7.8
    endloop
  endfacet
  facet normal 0 0 1
    outer loop
      vertex 19 36.8 7.8
      vertex 17.2 37.3 7.8
      vertex 17.2 36.8 7.8
    endloop
  endfacet
  facet normal -1 1.22465e-16 0
    outer loop
      vertex -1.83697e-16 36.8 0
      vertex 0 38.3 7.8
      vertex 0 38.3 0
    endloop
  endfacet
  facet normal -1 1.22465e-16 0
    outer loop
      vertex 0 38.3 7.8
      vertex -1.83697e-16 36.8 0
      vertex -1.83697e-16 36.8 7.8
    endloop
  endfacet
  facet normal 0 -1 0
    outer loop
      vertex 1.8 37.3 0
      vertex 17.2 37.3 7.8
      vertex 1.8 37.3 7.8
    endloop
  endfacet
  facet normal 0 -1 -0
    outer loop
      vertex 17.2 37.3 7.8
      vertex 1.8 37.3 0
      vertex 17.2 37.3 0
    endloop
  endfacet
  facet normal 0 1 0
    outer loop
      vertex 19 38.3 7.8
      vertex 14 38.3 2.8
      vertex 14 38.3 7.8
    endloop
  endfacet
  facet normal 0 1 0
    outer loop
      vertex 19 38.3 0
      vertex 12.6 38.3 2.8
      vertex 14 38.3 2.8
    endloop
  endfacet
  facet normal 0 1 0
    outer loop
      vertex 12.6 38.3 2.8
      vertex 19 38.3 0
      vertex 6.4 38.3 2.8
    endloop
  endfacet
  facet normal 0 1 0
    outer loop
      vertex 0 38.3 0
      vertex 6.4 38.3 2.8
      vertex 19 38.3 0
    endloop
  endfacet
  facet normal 0 1 -0
    outer loop
      vertex 19 38.3 0
      vertex 14 38.3 2.8
      vertex 19 38.3 7.8
    endloop
  endfacet
  facet normal 0 1 -0
    outer loop
      vertex 12.6 38.3 2.8
      vertex 6.4 38.3 6.8
      vertex 12.6 38.3 6.8
    endloop
  endfacet
  facet normal 0 1 0
    outer loop
      vertex 6.4 38.3 6.8
      vertex 12.6 38.3 2.8
      vertex 6.4 38.3 2.8
    endloop
  endfacet
  facet normal 0 1 -0
    outer loop
      vertex 5 38.3 2.8
      vertex 0 38.3 7.8
      vertex 5 38.3 7.8
    endloop
  endfacet
  facet normal 0 1 0
    outer loop
      vertex 5 38.3 2.8
      vertex 0 38.3 0
      vertex 0 38.3 7.8
    endloop
  endfacet
  facet normal 0 1 0
    outer loop
      vertex 6.4 38.3 2.8
      vertex 0 38.3 0
      vertex 5 38.3 2.8
    endloop
  endfacet
  facet normal -1 0 0
    outer loop
      vertex 17.2 36.8 3
      vertex 17.2 37.3 7.8
      vertex 17.2 37.3 3
    endloop
  endfacet
  facet normal -1 -0 0
    outer loop
      vertex 17.2 37.3 7.8
      vertex 17.2 36.8 3
      vertex 17.2 36.8 7.8
    endloop
  endfacet
  facet normal -0 0 0
    outer loop
      vertex 17.2 37.3 3
      vertex 17.2 37.3 7.8
      vertex 17.2 37.3 0
    endloop
  endfacet
  facet normal 0 -1 0
    outer loop
      vertex 17.5 36.8 3
      vertex 17.2 36.8 7.8
      vertex 17.2 36.8 3
    endloop
  endfacet
  facet normal 0 -1 0
    outer loop
      vertex 17.2 36.8 7.8
      vertex 17.5 36.8 3
      vertex 19 36.8 7.8
    endloop
  endfacet
  facet normal 0 -1 0
    outer loop
      vertex 19 36.8 0
      vertex 17.5 36.8 3
      vertex 17.5 36.8 0
    endloop
  endfacet
  facet normal 0 -1 0
    outer loop
      vertex 17.5 36.8 3
      vertex 19 36.8 0
      vertex 19 36.8 7.8
    endloop
  endfacet
  facet normal 1 -0 0
    outer loop
      vertex 1.8 36.8 7.8
      vertex 1.8 37.3 3
      vertex 1.8 37.3 7.8
    endloop
  endfacet
  facet normal 1 0 0
    outer loop
      vertex 1.8 37.3 3
      vertex 1.8 36.8 7.8
      vertex 1.8 36.8 3
    endloop
  endfacet
  facet normal 0 0 0
    outer loop
      vertex 1.8 37.3 7.8
      vertex 1.8 37.3 3
      vertex 1.8 37.3 0
    endloop
  endfacet
  facet normal 0 -1 0
    outer loop
      vertex -1.83697e-16 36.8 7.8
      vertex 1.5 36.8 3
      vertex 1.8 36.8 7.8
    endloop
  endfacet
  facet normal 0 -1 0
    outer loop
      vertex -1.83697e-16 36.8 0
      vertex 1.5 36.8 3
      vertex -1.83697e-16 36.8 7.8
    endloop
  endfacet
  facet normal 0 -1 -0
    outer loop
      vertex 1.5 36.8 3
      vertex -1.83697e-16 36.8 0
      vertex 1.5 36.8 0
    endloop
  endfacet
  facet normal 0 -1 -0
    outer loop
      vertex 1.8 36.8 7.8
      vertex 1.5 36.8 3
      vertex 1.8 36.8 3
    endloop
  endfacet
  facet normal 1 0 0
    outer loop
      vertex 14 42.3 7.8
      vertex 14 40.3 6.8
      vertex 14 42.3 6.8
    endloop
  endfacet
  facet normal 1 -0 0
    outer loop
      vertex 14 38.3 7.8
      vertex 14 40.3 6.8
      vertex 14 42.3 7.8
    endloop
  endfacet
  facet normal 1 0 0
    outer loop
      vertex 14 38.3 2.8
      vertex 14 40.3 6.8
      vertex 14 38.3 7.8
    endloop
  endfacet
  facet normal 1 0 0
    outer loop
      vertex 14 40.3 6.8
      vertex 14 38.3 2.8
      vertex 14 40.3 2.8
    endloop
  endfacet
  facet normal -1 0 0
    outer loop
      vertex 5 40.3 2.8
      vertex 5 38.3 2.8
      vertex 5 40.3 6.8
    endloop
  endfacet
  facet normal -1 0 0
    outer loop
      vertex 5 40.3 6.8
      vertex 5 42.3 7.8
      vertex 5 42.3 6.8
    endloop
  endfacet
  facet normal -1 0 0
    outer loop
      vertex 5 40.3 6.8
      vertex 5 38.3 7.8
      vertex 5 42.3 7.8
    endloop
  endfacet
  facet normal -1 0 0
    outer loop
      vertex 5 38.3 7.8
      vertex 5 40.3 6.8
      vertex 5 38.3 2.8
    endloop
  endfacet
  facet normal 0 0 -1
    outer loop
      vertex 12.6 38.3 6.8
      vertex 6.4 38.3 6.8
      vertex 12.6 40.3 6.8
    endloop
  endfacet
  facet normal 0 0 -1
    outer loop
      vertex 12.6 40.3 6.8
      vertex 14 42.3 6.8
      vertex 14 40.3 6.8
    endloop
  endfacet
  facet normal 0 0 -1
    outer loop
      vertex 6.4 40.3 6.8
      vertex 12.6 40.3 6.8
      vertex 6.4 38.3 6.8
    endloop
  endfacet
  facet normal 0 0 -1
    outer loop
      vertex 12.6 40.3 6.8
      vertex 6.4 40.3 6.8
      vertex 14 42.3 6.8
    endloop
  endfacet
  facet normal 0 0 -1
    outer loop
      vertex 5 42.3 6.8
      vertex 6.4 40.3 6.8
      vertex 5 40.3 6.8
    endloop
  endfacet
  facet normal 0 0 -1
    outer loop
      vertex 6.4 40.3 6.8
      vertex 5 42.3 6.8
      vertex 14 42.3 6.8
    endloop
  endfacet
  facet normal 0 1 -0
    outer loop
      vertex 14 42.3 6.8
      vertex 5 42.3 7.8
      vertex 14 42.3 7.8
    endloop
  endfacet
  facet normal 0 1 0
    outer loop
      vertex 5 42.3 7.8
      vertex 14 42.3 6.8
      vertex 5 42.3 6.8
    endloop
  endfacet
  facet normal -1 0 0
    outer loop
      vertex 12.6 38.3 2.8
      vertex 12.6 40.3 6.8
      vertex 12.6 40.3 2.8
    endloop
  endfacet
  facet normal -1 -0 0
    outer loop
      vertex 12.6 40.3 6.8
      vertex 12.6 38.3 2.8
      vertex 12.6 38.3 6.8
    endloop
  endfacet
  facet normal 0 0 -1
    outer loop
      vertex 12.6 38.3 2.8
      vertex 14 40.3 2.8
      vertex 14 38.3 2.8
    endloop
  endfacet
  facet normal -0 0 -1
    outer loop
      vertex 14 40.3 2.8
      vertex 12.6 38.3 2.8
      vertex 12.6 40.3 2.8
    endloop
  endfacet
  facet normal 0 1 -0
    outer loop
      vertex 14 40.3 2.8
      vertex 12.6 40.3 6.8
      vertex 14 40.3 6.8
    endloop
  endfacet
  facet normal 0 1 0
    outer loop
      vertex 12.6 40.3 6.8
      vertex 14 40.3 2.8
      vertex 12.6 40.3 2.8
    endloop
  endfacet
  facet normal 1 -0 0
    outer loop
      vertex 6.4 38.3 6.8
      vertex 6.4 40.3 2.8
      vertex 6.4 40.3 6.8
    endloop
  endfacet
  facet normal 1 0 0
    outer loop
      vertex 6.4 40.3 2.8
      vertex 6.4 38.3 6.8
      vertex 6.4 38.3 2.8
    endloop
  endfacet
  facet normal 0 0 -1
    outer loop
      vertex 5 38.3 2.8
      vertex 6.4 40.3 2.8
      vertex 6.4 38.3 2.8
    endloop
  endfacet
  facet normal -0 0 -1
    outer loop
      vertex 6.4 40.3 2.8
      vertex 5 38.3 2.8
      vertex 5 40.3 2.8
    endloop
  endfacet
  facet normal 0 1 -0
    outer loop
      vertex 6.4 40.3 2.8
      vertex 5 40.3 6.8
      vertex 6.4 40.3 6.8
    endloop
  endfacet
  facet normal 0 1 0
    outer loop
      vertex 5 40.3 6.8
      vertex 6.4 40.3 2.8
      vertex 5 40.3 2.8
    endloop
  endfacet
endsolid OpenSCAD_Model
